<svg width="640" height="730" viewBox="0 0 640 730" fill="none" xmlns="http://www.w3.org/2000/svg">
<g clip-path="url(#clip0_1675_4551)">
<path opacity="0.2" d="M349.282 730L4.02148 531.279L197.019 421.604L542.279 620.325L349.282 730Z" fill="#D6D8E5"/>
<path d="M297.036 553.486C291.902 557.662 284.311 553.836 283.872 554.23C278.636 559.457 270.708 565.429 264.858 569.984C261.654 572.51 256.652 575.824 257.544 580.715C259.168 589.358 273.034 586.701 278.27 584.058C283.507 581.416 287.763 577.021 292.721 573.955C296.246 571.765 299.727 570.626 300.269 566.173C300.722 563.56 297.943 553.34 297.036 553.486Z" fill="#38226D"/>
<path d="M300.327 564.377C299.64 568.641 296.217 569.823 292.707 571.999C287.675 575.108 283.243 579.62 278.08 582.219C273.239 584.657 261.186 587.081 257.793 580.905C259.636 589.241 273.253 586.628 278.446 584.015C283.638 581.401 287.938 576.977 292.897 573.911C296.422 571.721 299.903 570.582 300.444 566.129C300.471 565.543 300.432 564.955 300.327 564.377Z" fill="#9C73FF"/>
<path d="M244.893 523.512C239.759 527.688 230.763 523.118 230.383 523.512C225.027 528.906 219.367 533.99 213.431 538.74C210.228 541.251 205.24 544.58 206.118 549.456C207.726 558.1 221.592 555.442 226.829 552.8C232.065 550.157 236.336 545.763 241.28 542.697C244.819 540.507 248.286 539.368 248.842 534.929C249.193 532.272 245.814 523.395 244.893 523.512Z" fill="#38226D"/>
<path d="M248.651 533.776C247.978 538.039 244.541 539.222 241.045 541.397C236.014 544.507 231.582 549.018 226.346 551.617C221.519 554.055 209.452 556.479 206.059 550.303C207.916 558.64 221.533 556.026 226.711 553.413C231.889 550.799 236.219 546.376 241.162 543.31C244.702 541.12 248.168 539.981 248.724 535.528C248.757 534.943 248.733 534.356 248.651 533.776Z" fill="#9C73FF"/>
<path d="M365.766 389.031C371.456 424.553 355.645 437.81 335.05 445.373C320.307 450.789 299.157 459.141 299.157 459.141C299.157 459.141 299.449 466.937 299.61 484.442C299.757 499.845 297.723 556.099 297.723 556.099C297.723 556.099 289.211 560.479 281.985 555.924C281.985 555.924 273.707 512.825 271.937 493.392C269.553 467.039 265.501 449.782 266.861 444.117C268.046 439.124 296.904 424.947 306.061 417.37L245.594 437.591C246.798 444.141 247.386 450.788 247.35 457.447C246.794 478.354 245.638 523.629 245.638 523.629C245.638 523.629 237.345 529.6 230.266 523.746C230.266 523.746 215.054 434.116 216.897 422.246C218.652 410.99 271.937 387.98 281.327 380.052C282.965 378.723 284.866 377.753 286.904 377.204C288.943 376.656 291.074 376.542 293.16 376.87L365.766 389.031Z" fill="#8C50FF"/>
<path d="M342.612 261.033L377.789 278.218C377.789 278.218 396.891 285.007 391.538 317.229C387.647 340.589 382.44 387.426 382.44 387.426L316.299 380.739L342.612 261.033Z" fill="#2B303F"/>
<path d="M344.719 255.296C344.719 255.296 343.841 272.217 344.222 273.721C344.602 275.225 352.003 280.174 354.153 281.955C356.303 283.736 342.452 297.387 335.694 300.483C328.937 303.578 307.567 295.416 307.187 284.948C306.807 274.48 310.844 265.662 314.135 265.194C317.426 264.727 344.719 255.296 344.719 255.296Z" fill="#FFCEA9"/>
<path d="M283.156 294.365L270.972 314.63L254.736 332.88L266.92 340.983L283.156 326.792C283.156 326.792 308.855 296.38 307.158 294.365C305.461 292.35 283.156 294.365 283.156 294.365Z" fill="#FFCEA9"/>
<path d="M346.649 276.641C346.649 276.641 334.348 294.92 317.191 296.643C311.78 291.328 311.341 272.378 318.771 266.319C318.771 266.319 311.897 260.785 307.187 261.851C302.129 264.917 298.364 269.718 296.597 275.356C292.227 287.936 290.175 301.203 290.542 314.513C290.834 332.471 290.542 377.848 290.542 377.848C290.542 377.848 293.101 395.193 308.62 403.821C320.985 410.791 335.547 412.796 349.341 409.428C358.029 407.413 361.276 402.551 364.26 396.288C363.484 383.702 358.497 357.802 360.603 341.99C362.709 326.179 366.044 314.353 366.907 301.563C367.77 288.773 365.225 289.036 358.804 284.466C354.949 281.566 350.886 278.95 346.649 276.641Z" fill="#F4F4F4"/>
<path d="M338.897 709.721C343.38 709.721 347.015 707.622 347.015 705.034C347.015 702.446 343.38 700.347 338.897 700.347C334.414 700.347 330.779 702.446 330.779 705.034C330.779 707.622 334.414 709.721 338.897 709.721Z" fill="#2B303F"/>
<path d="M347.029 545.529H330.779V704.552H347.029V545.529Z" fill="#2B303F"/>
<path d="M39.7974 531.644C44.2807 531.644 47.9152 529.546 47.9152 526.958C47.9152 524.369 44.2807 522.271 39.7974 522.271C35.3141 522.271 31.6797 524.369 31.6797 526.958C31.6797 529.546 35.3141 531.644 39.7974 531.644Z" fill="#2B303F"/>
<path d="M47.9298 367.438H31.6797V526.461H47.9298V367.438Z" fill="#2B303F"/>
<path d="M506.108 615.463C510.591 615.463 514.226 613.365 514.226 610.776C514.226 608.188 510.591 606.09 506.108 606.09C501.625 606.09 497.99 608.188 497.99 610.776C497.99 613.365 501.625 615.463 506.108 615.463Z" fill="#2B303F"/>
<path d="M514.24 463.433H497.99V610.295H514.24V463.433Z" fill="#2B303F"/>
<path d="M526.174 480.34L177.696 279.561L12.8111 374.578L4.03516 369.511V379.6L361.274 585.548L534.95 485.465V475.332L526.174 480.34Z" fill="#D3C4A9"/>
<path d="M361.305 575.415L4.02148 369.511L177.697 269.428L534.98 475.332L361.305 575.415Z" fill="#EFE3CA"/>
<path d="M326.889 422.436C329.902 420.976 332.096 418.699 336.513 416.917C339.628 415.953 342.46 414.244 344.763 411.939C347.776 409.019 352.72 397.835 356.245 386.973C360.413 374.139 361.13 356.707 360.399 349.188C358.936 333.946 353.393 312.6 352.003 303.826C350.613 295.051 353.466 291.562 357.532 288.321C362.329 284.525 368.955 286.204 372.509 298.541C377.072 315.558 379.716 333.03 380.393 350.633C380.541 363.692 378.53 376.685 374.44 389.09C370.74 400.624 365.913 408.917 359.74 419.341C358.044 422.173 357.503 424.699 354.928 430.481C352.354 436.262 347.966 442.38 343.724 445.431C339.483 448.483 337.376 448.95 336.411 448.351C335.139 447.607 335.402 446.234 337.201 444.599C340.264 442.219 342.871 439.306 344.894 436C344.894 436 341.121 439.781 338.664 441.84C336.477 443.677 334.058 445.219 331.467 446.424C328.937 447.534 325.441 445.402 327.226 443.708C329.01 442.015 330.838 441.183 334.436 438.073C336.352 436.437 338.065 434.579 339.541 432.539C337.018 434.463 334.348 436.186 331.555 437.693C327.635 439.693 325.602 439.723 324.242 439.664C322.881 439.606 321.316 437.752 323.788 435.941C326.026 434.321 329.537 433.226 333.325 429.459C336.075 426.729 337.64 424.407 336.864 424.363C336.089 424.32 334.583 426.028 331.35 427.05C328.118 428.072 324.666 427.137 324.256 425.371C323.847 423.604 323.876 423.925 326.889 422.436Z" fill="#FFCEA9"/>
<path d="M306.353 230.081C308.371 216.941 317.849 206.984 331.423 207.743C336.878 208.03 342.106 210.019 346.369 213.429C350.632 216.84 353.715 221.499 355.184 226.752C356.652 232.004 356.432 237.585 354.555 242.706C352.677 247.827 349.236 252.23 344.718 255.296C344.243 257.284 343.537 259.21 342.612 261.033C337.814 266.64 323.305 270.1 319.136 269.501C313.783 268.742 310.872 266.508 308.327 260.668C303.822 250.361 305.241 236.52 306.353 230.081Z" fill="#FFCEA9"/>
<path d="M344.719 255.296L343.476 243.835C343.476 243.835 352.851 219.599 330.692 224.256C316.065 227.322 312.394 228.636 307.933 218.854C303.472 209.072 319.181 200.254 337.83 202.692C344.249 203.364 350.182 206.419 354.451 211.251C358.721 216.083 361.016 222.34 360.881 228.782C360.399 235.994 358.468 250.58 344.719 255.296Z" fill="#3A2C6D"/>
<path d="M382.644 321.069C382.644 321.069 370.548 333.07 356.243 329.609C354.196 328.222 349.281 300.161 349.281 300.161C349.281 300.161 349.281 284.612 361.231 285.021C373.181 285.43 382.644 321.069 382.644 321.069Z" fill="#EDEDED"/>
<path d="M192.252 389.674L240.271 362.08C240.691 361.836 241.168 361.708 241.653 361.708C242.139 361.708 242.616 361.836 243.035 362.08L327.27 410.625L277.905 439.022L192.252 389.674Z" fill="#F4F4F4"/>
<path d="M280.114 428.846L283.771 430.948C284.063 431.123 284.034 431.43 283.683 431.62L280.187 433.62C280.009 433.713 279.811 433.762 279.61 433.762C279.408 433.762 279.21 433.713 279.032 433.62L275.361 431.518C275.068 431.342 275.112 431.05 275.448 430.846L278.944 428.831C279.127 428.743 279.328 428.699 279.531 428.702C279.734 428.704 279.934 428.753 280.114 428.846Z" fill="#2B303F"/>
<path d="M274.979 425.853L278.651 427.97C278.943 428.145 278.914 428.437 278.563 428.641L274.979 430.7C274.798 430.79 274.597 430.837 274.394 430.837C274.191 430.837 273.991 430.79 273.809 430.7L270.153 428.583C269.86 428.422 269.889 428.116 270.24 427.911L273.736 425.911C273.922 425.799 274.133 425.734 274.35 425.724C274.567 425.714 274.784 425.758 274.979 425.853Z" fill="#2B303F"/>
<path d="M269.684 422.831L273.34 424.948C273.648 425.123 273.604 425.415 273.34 425.619L269.845 427.634C269.663 427.724 269.463 427.771 269.26 427.771C269.057 427.771 268.856 427.724 268.675 427.634L265.018 425.532C264.711 425.356 264.755 425.05 265.106 424.86L268.587 422.845C268.758 422.765 268.945 422.722 269.134 422.72C269.323 422.717 269.51 422.755 269.684 422.831Z" fill="#2B303F"/>
<path d="M264.565 419.881L268.222 421.999C268.529 422.174 268.485 422.466 268.134 422.67L264.653 424.685C264.471 424.774 264.27 424.82 264.068 424.82C263.865 424.82 263.665 424.774 263.483 424.685L259.826 422.568C259.519 422.407 259.563 422.101 259.899 421.896L263.395 419.896C263.575 419.802 263.775 419.751 263.978 419.748C264.181 419.746 264.383 419.791 264.565 419.881Z" fill="#2B303F"/>
<path d="M259.388 416.903L263.044 419.005C263.337 419.181 263.308 419.487 262.957 419.677L259.461 421.692C259.283 421.785 259.084 421.834 258.883 421.834C258.682 421.834 258.483 421.785 258.305 421.692L254.634 419.589C254.341 419.414 254.385 419.108 254.722 418.918L258.218 416.903C258.398 416.809 258.599 416.761 258.803 416.761C259.006 416.761 259.207 416.809 259.388 416.903Z" fill="#2B303F"/>
<path d="M254.194 413.91L257.866 416.1C258.158 416.261 258.114 416.567 257.778 416.772L254.282 418.786C254.1 418.876 253.9 418.923 253.697 418.923C253.494 418.923 253.294 418.876 253.112 418.786L249.455 416.669C249.163 416.509 249.192 416.202 249.543 415.998L253.039 413.983C253.212 413.882 253.407 413.822 253.608 413.809C253.809 413.797 254.009 413.831 254.194 413.91Z" fill="#2B303F"/>
<path d="M249.017 410.932L252.673 413.034C252.98 413.209 252.937 413.501 252.6 413.706L249.104 415.72C248.924 415.814 248.723 415.863 248.519 415.863C248.316 415.863 248.115 415.814 247.934 415.72L244.278 413.618C243.971 413.443 244.014 413.136 244.365 412.946L247.847 410.932C248.027 410.838 248.228 410.789 248.432 410.789C248.635 410.789 248.836 410.838 249.017 410.932Z" fill="#2B303F"/>
<path d="M243.84 407.939L247.497 410.055C247.789 410.216 247.76 410.523 247.409 410.727L243.928 412.727C243.747 412.82 243.546 412.868 243.343 412.868C243.14 412.868 242.939 412.82 242.758 412.727L239.101 410.61C238.794 410.435 238.838 410.143 239.174 409.939L242.67 407.924C242.853 407.836 243.054 407.792 243.257 407.794C243.46 407.797 243.66 407.846 243.84 407.939Z" fill="#2B303F"/>
<path d="M238.661 404.96L242.318 407.063C242.61 407.238 242.581 407.53 242.23 407.734L238.734 409.749C238.556 409.842 238.358 409.891 238.156 409.891C237.955 409.891 237.757 409.842 237.579 409.749L233.907 407.647C233.615 407.471 233.659 407.165 233.995 406.975L237.491 404.96C237.672 404.867 237.872 404.818 238.076 404.818C238.28 404.818 238.48 404.867 238.661 404.96Z" fill="#2B303F"/>
<path d="M233.47 401.967L237.141 404.084C237.434 404.245 237.39 404.551 237.053 404.741L233.557 406.756C233.375 406.845 233.175 406.891 232.972 406.891C232.77 406.891 232.569 406.845 232.387 406.756L228.731 404.639C228.438 404.464 228.467 404.172 228.818 403.967L232.314 401.952C232.495 401.865 232.693 401.821 232.894 401.823C233.094 401.826 233.292 401.875 233.47 401.967Z" fill="#2B303F"/>
<path d="M228.292 398.974L231.949 401.091C232.256 401.266 232.212 401.558 231.876 401.763L228.38 403.778C228.198 403.868 227.998 403.915 227.795 403.915C227.592 403.915 227.392 403.868 227.21 403.778L223.553 401.675C223.246 401.5 223.29 401.193 223.641 401.004L227.122 398.989C227.303 398.898 227.503 398.849 227.705 398.846C227.908 398.844 228.109 398.888 228.292 398.974Z" fill="#2B303F"/>
<path d="M223.113 395.996L226.77 398.098C227.063 398.273 227.033 398.58 226.682 398.77L223.187 400.784C223.007 400.873 222.809 400.919 222.609 400.919C222.408 400.919 222.211 400.873 222.031 400.784L218.374 398.667C218.067 398.492 218.111 398.2 218.374 397.996L221.87 395.981C222.063 395.881 222.277 395.83 222.494 395.833C222.711 395.835 222.923 395.891 223.113 395.996Z" fill="#2B303F"/>
<path d="M217.937 393.003L221.608 395.12C221.9 395.295 221.871 395.587 221.52 395.791L218.024 397.806C217.845 397.896 217.647 397.943 217.447 397.943C217.246 397.943 217.048 397.896 216.869 397.806L213.197 395.704C212.905 395.529 212.934 395.222 213.285 395.032L216.781 393.017C216.959 392.926 217.157 392.878 217.357 392.875C217.557 392.873 217.756 392.916 217.937 393.003Z" fill="#2B303F"/>
<path d="M210.257 388.579L216.4 392.127C216.707 392.302 216.663 392.609 216.4 392.798L212.904 394.813C212.722 394.902 212.522 394.948 212.319 394.948C212.116 394.948 211.916 394.902 211.734 394.813L205.503 391.28C205.211 391.105 205.254 390.798 205.591 390.608L209.087 388.594C209.268 388.502 209.467 388.454 209.67 388.451C209.873 388.449 210.074 388.492 210.257 388.579Z" fill="#2B303F"/>
<path d="M277.452 421.517L281.109 423.634C281.401 423.794 281.372 424.101 281.021 424.305L277.525 426.32C277.346 426.41 277.148 426.457 276.947 426.457C276.747 426.457 276.549 426.41 276.37 426.32L272.698 424.203C272.406 424.042 272.45 423.736 272.786 423.531L276.282 421.517C276.464 421.427 276.664 421.38 276.867 421.38C277.07 421.38 277.27 421.427 277.452 421.517Z" fill="#2B303F"/>
<path d="M272.259 418.524L275.915 420.641C276.208 420.816 276.179 421.108 275.828 421.312L272.332 423.4C272.153 423.49 271.955 423.537 271.754 423.537C271.553 423.537 271.356 423.49 271.176 423.4L267.505 421.283C267.213 421.122 267.256 420.816 267.593 420.611L271.089 418.611C271.264 418.508 271.461 418.447 271.663 418.432C271.866 418.417 272.07 418.448 272.259 418.524Z" fill="#2B303F"/>
<path d="M267.067 415.531L270.723 417.648C271.016 417.823 270.987 418.115 270.636 418.319L267.155 420.334C266.972 420.423 266.772 420.469 266.57 420.469C266.367 420.469 266.167 420.423 265.985 420.334L262.328 418.232C262.021 418.056 262.065 417.75 262.401 417.56L265.897 415.545C266.078 415.454 266.277 415.405 266.48 415.403C266.683 415.4 266.884 415.444 267.067 415.531Z" fill="#2B303F"/>
<path d="M261.815 412.552L265.471 414.655C265.778 414.83 265.734 415.122 265.383 415.326L261.902 417.341C261.72 417.43 261.52 417.476 261.317 417.476C261.114 417.476 260.914 417.43 260.732 417.341L257.076 415.239C256.768 415.063 256.812 414.757 257.076 414.567L260.571 412.552C260.761 412.446 260.975 412.39 261.193 412.39C261.411 412.39 261.625 412.446 261.815 412.552Z" fill="#2B303F"/>
<path d="M256.725 409.574L260.352 411.72C260.66 411.895 260.616 412.187 260.265 412.392L256.784 414.406C256.601 414.495 256.401 414.542 256.198 414.542C255.996 414.542 255.796 414.495 255.613 414.406L251.957 412.289C251.65 412.129 251.693 411.822 252.03 411.618L255.526 409.618C255.707 409.514 255.911 409.455 256.12 409.448C256.329 409.44 256.537 409.483 256.725 409.574Z" fill="#2B303F"/>
<path d="M251.577 406.581L255.234 408.698C255.541 408.873 255.497 409.165 255.161 409.369L251.577 411.384C251.395 411.473 251.195 411.519 250.992 411.519C250.789 411.519 250.589 411.473 250.407 411.384L246.75 409.282C246.443 409.106 246.487 408.8 246.838 408.61L250.319 406.595C250.511 406.489 250.727 406.433 250.946 406.43C251.166 406.428 251.382 406.479 251.577 406.581Z" fill="#2B303F"/>
<path d="M246.34 403.602L249.997 405.705C250.304 405.88 250.26 406.172 249.997 406.376L246.501 408.391C246.319 408.481 246.119 408.528 245.916 408.528C245.713 408.528 245.513 408.481 245.331 408.391L241.674 406.289C241.382 406.114 241.411 405.807 241.762 405.617L245.243 403.602C245.414 403.521 245.602 403.478 245.791 403.478C245.981 403.478 246.169 403.521 246.34 403.602Z" fill="#2B303F"/>
<path d="M241.147 400.609L244.819 402.712C245.111 402.887 245.067 403.179 244.731 403.383L241.235 405.398C241.054 405.492 240.854 405.54 240.65 405.54C240.447 405.54 240.246 405.492 240.065 405.398L236.408 403.296C236.116 403.121 236.145 402.814 236.496 402.624L239.992 400.609C240.17 400.516 240.368 400.467 240.57 400.467C240.771 400.467 240.969 400.516 241.147 400.609Z" fill="#2B303F"/>
<path d="M235.956 397.616L239.627 399.719C239.92 399.894 239.876 400.2 239.54 400.39L236.044 402.405C235.863 402.499 235.662 402.547 235.459 402.547C235.255 402.547 235.054 402.499 234.874 402.405L231.217 400.303C230.925 400.127 230.954 399.835 231.305 399.631L234.801 397.616C234.979 397.523 235.177 397.474 235.378 397.474C235.58 397.474 235.778 397.523 235.956 397.616Z" fill="#2B303F"/>
<path d="M230.777 394.623L234.434 396.726C234.726 396.901 234.697 397.208 234.346 397.397L230.85 399.412C230.672 399.506 230.474 399.554 230.273 399.554C230.071 399.554 229.873 399.506 229.695 399.412L226.024 397.31C225.731 397.135 225.76 396.843 226.111 396.638L229.607 394.623C229.789 394.533 229.989 394.487 230.192 394.487C230.395 394.487 230.595 394.533 230.777 394.623Z" fill="#2B303F"/>
<path d="M225.585 391.63L229.242 393.733C229.534 393.908 229.505 394.215 229.154 394.404L225.658 396.419C225.478 396.508 225.281 396.554 225.08 396.554C224.88 396.554 224.682 396.508 224.503 396.419L220.861 394.361C220.568 394.185 220.612 393.893 220.948 393.689L224.444 391.674C224.619 391.582 224.812 391.53 225.01 391.522C225.207 391.515 225.404 391.552 225.585 391.63Z" fill="#2B303F"/>
<path d="M220.393 388.637L224.05 390.754C224.342 390.915 224.313 391.222 223.962 391.426L220.466 393.426C220.288 393.518 220.089 393.566 219.888 393.566C219.687 393.566 219.489 393.518 219.311 393.426L215.654 391.309C215.347 391.134 215.391 390.842 215.727 390.638L219.223 388.623C219.406 388.535 219.607 388.491 219.81 388.493C220.013 388.496 220.212 388.545 220.393 388.637Z" fill="#2B303F"/>
<path d="M282.629 424.51L288.787 428.057C289.094 428.233 289.05 428.525 288.714 428.729L285.218 430.7C285.037 430.794 284.836 430.842 284.633 430.842C284.429 430.842 284.228 430.794 284.048 430.7L277.905 427.24C277.612 427.065 277.641 426.773 277.992 426.568L281.488 424.554C281.662 424.459 281.855 424.406 282.053 424.398C282.251 424.391 282.448 424.429 282.629 424.51Z" fill="#2B303F"/>
<path d="M210.506 388.36L214.162 390.477C214.331 390.56 214.516 390.602 214.704 390.602C214.891 390.602 215.076 390.56 215.245 390.477L218.945 388.345C219.009 388.321 219.064 388.278 219.103 388.222C219.141 388.166 219.162 388.1 219.162 388.032C219.162 387.963 219.141 387.897 219.103 387.841C219.064 387.785 219.009 387.742 218.945 387.718L218.653 387.542C218.375 387.396 218.375 387.134 218.653 386.973L222.558 384.725C222.865 384.549 222.865 384.272 222.558 384.097L220.232 382.754C220.065 382.668 219.879 382.623 219.691 382.623C219.503 382.623 219.318 382.668 219.15 382.754L215.493 384.856L214.747 385.294L214.192 385.615L213.65 385.922L210.506 387.732C210.199 387.937 210.199 388.214 210.506 388.36Z" fill="#2B303F"/>
<path d="M300.182 417.253L303.838 419.37C304.131 419.531 304.102 419.838 303.751 420.042L300.255 422.042C300.075 422.131 299.878 422.177 299.677 422.177C299.477 422.177 299.279 422.131 299.099 422.042L295.443 419.925C295.136 419.75 295.179 419.458 295.443 419.254L298.939 417.239C299.131 417.139 299.345 417.088 299.562 417.09C299.779 417.093 299.992 417.149 300.182 417.253Z" fill="#2B303F"/>
<path d="M295.003 414.275L298.674 416.392C298.967 416.553 298.937 416.859 298.586 417.064L295.091 419.02C294.912 419.112 294.714 419.16 294.513 419.16C294.312 419.16 294.114 419.112 293.935 419.02L290.264 416.903C289.971 416.728 290.001 416.436 290.352 416.231L293.847 414.217C294.031 414.136 294.231 414.099 294.432 414.109C294.633 414.119 294.828 414.176 295.003 414.275Z" fill="#2B303F"/>
<path d="M289.841 411.297L293.497 413.414C293.805 413.574 293.761 413.881 293.497 414.085L289.929 416.1C289.747 416.192 289.547 416.24 289.344 416.24C289.14 416.24 288.94 416.192 288.758 416.1L285.102 413.983C284.809 413.822 284.839 413.516 285.19 413.311L288.685 411.297C288.865 411.207 289.062 411.16 289.263 411.16C289.464 411.16 289.662 411.207 289.841 411.297Z" fill="#2B303F"/>
<path d="M245.844 385.936L249.501 388.053C249.808 388.228 249.764 388.52 249.413 388.725L245.932 390.74C245.749 390.829 245.549 390.875 245.347 390.875C245.144 390.875 244.944 390.829 244.761 390.74L241.105 388.623C240.798 388.462 240.842 388.155 241.105 387.951L244.601 385.951C244.79 385.844 245.003 385.786 245.22 385.784C245.438 385.781 245.652 385.834 245.844 385.936Z" fill="#2B303F"/>
<path d="M240.681 382.958L244.337 385.075C244.63 385.25 244.601 385.542 244.25 385.746L240.754 387.761C240.574 387.851 240.377 387.898 240.176 387.898C239.975 387.898 239.778 387.851 239.598 387.761L235.927 385.644C235.634 385.484 235.678 385.177 236.015 384.973L239.51 382.972C239.692 382.881 239.891 382.832 240.094 382.83C240.297 382.827 240.497 382.871 240.681 382.958Z" fill="#2B303F"/>
<path d="M235.487 379.98L239.159 382.097C239.451 382.272 239.407 382.564 239.071 382.768L235.575 384.783C235.393 384.873 235.193 384.92 234.99 384.92C234.787 384.92 234.587 384.873 234.405 384.783L230.748 382.681C230.456 382.505 230.485 382.199 230.836 382.009L234.332 379.994C234.51 379.903 234.707 379.854 234.908 379.852C235.108 379.849 235.307 379.893 235.487 379.98Z" fill="#2B303F"/>
<path d="M230.34 377.001L233.997 379.118C234.304 379.293 234.26 379.585 233.997 379.79L230.501 381.805C230.319 381.895 230.119 381.942 229.916 381.942C229.713 381.942 229.513 381.895 229.331 381.805L225.674 379.702C225.367 379.527 225.411 379.22 225.762 379.031L229.243 377.016C229.414 376.936 229.601 376.893 229.79 376.89C229.979 376.888 230.167 376.926 230.34 377.001Z" fill="#2B303F"/>
<path d="M283.345 407.559L288.332 410.479C288.64 410.64 288.596 410.946 288.245 411.151L284.764 413.18C284.581 413.269 284.381 413.315 284.179 413.315C283.976 413.315 283.776 413.269 283.593 413.18L278.606 410.26C278.299 410.085 278.343 409.778 278.694 409.588L282.175 407.574C282.354 407.478 282.554 407.427 282.758 407.424C282.962 407.422 283.163 407.468 283.345 407.559Z" fill="#2B303F"/>
<path d="M251.007 388.915L255.994 391.835C256.302 392.01 256.258 392.317 255.921 392.506L252.426 394.521C252.245 394.615 252.044 394.663 251.841 394.663C251.637 394.663 251.436 394.615 251.255 394.521L246.268 391.601C245.975 391.441 246.005 391.134 246.356 390.93L249.837 388.929C250.017 388.835 250.217 388.784 250.42 388.782C250.623 388.779 250.824 388.825 251.007 388.915Z" fill="#2B303F"/>
<path d="M257.501 392.74L281.84 406.756C282.132 406.931 282.103 407.238 281.752 407.428L278.256 409.442C278.078 409.536 277.88 409.585 277.678 409.585C277.477 409.585 277.279 409.536 277.101 409.442L252.762 395.426C252.469 395.251 252.499 394.945 252.85 394.755L256.345 392.74C256.524 392.647 256.722 392.598 256.923 392.598C257.124 392.598 257.323 392.647 257.501 392.74Z" fill="#2B303F"/>
<path d="M281.064 417.808L284.721 419.925C285.014 420.1 284.984 420.392 284.633 420.597L281.138 422.611C280.958 422.701 280.76 422.748 280.56 422.748C280.359 422.748 280.161 422.701 279.982 422.611L276.311 420.48C276.018 420.319 276.048 420.013 276.399 419.808L279.894 417.808C280.076 417.719 280.277 417.673 280.479 417.673C280.682 417.673 280.882 417.719 281.064 417.808Z" fill="#2B303F"/>
<path d="M275.886 414.83L279.542 416.932C279.835 417.107 279.806 417.414 279.455 417.604L275.959 419.619C275.779 419.707 275.581 419.754 275.381 419.754C275.181 419.754 274.983 419.707 274.803 419.619L271.132 417.56C270.84 417.385 270.883 417.093 271.22 416.888L274.716 414.873C274.894 414.777 275.092 414.722 275.295 414.715C275.498 414.707 275.7 414.746 275.886 414.83Z" fill="#2B303F"/>
<path d="M270.709 411.851L274.366 413.954C274.658 414.129 274.629 414.436 274.278 414.625L270.797 416.64C270.616 416.734 270.415 416.782 270.212 416.782C270.008 416.782 269.808 416.734 269.627 416.64L265.97 414.538C265.663 414.363 265.707 414.056 265.97 413.866L269.466 411.851C269.656 411.745 269.87 411.689 270.087 411.689C270.305 411.689 270.519 411.745 270.709 411.851Z" fill="#2B303F"/>
<path d="M265.531 408.8L269.188 410.917C269.495 411.092 269.451 411.384 269.1 411.589L265.619 413.603C265.437 413.692 265.237 413.739 265.034 413.739C264.831 413.739 264.631 413.692 264.449 413.603L260.792 411.501C260.485 411.326 260.529 411.019 260.792 410.829L264.288 408.815C264.478 408.711 264.691 408.656 264.908 408.653C265.125 408.651 265.339 408.701 265.531 408.8Z" fill="#2B303F"/>
<path d="M260.353 405.88L264.009 407.997C264.316 408.157 264.273 408.464 263.936 408.668L260.44 410.669C260.259 410.761 260.059 410.809 259.855 410.809C259.652 410.809 259.451 410.761 259.27 410.669L255.614 408.552C255.306 408.376 255.35 408.084 255.701 407.88L259.182 405.88C259.365 405.791 259.565 405.745 259.768 405.745C259.97 405.745 260.17 405.791 260.353 405.88Z" fill="#2B303F"/>
<path d="M255.175 402.96L258.831 405.062C259.139 405.238 259.095 405.544 258.758 405.734L255.263 407.749C255.082 407.842 254.881 407.891 254.677 407.891C254.474 407.891 254.273 407.842 254.092 407.749L250.436 405.646C250.143 405.471 250.173 405.179 250.524 404.975L254.019 402.96C254.197 402.867 254.396 402.818 254.597 402.818C254.798 402.818 254.997 402.867 255.175 402.96Z" fill="#2B303F"/>
<path d="M249.997 399.909L253.668 402.025C253.961 402.201 253.917 402.493 253.581 402.697L250.114 404.712C249.932 404.802 249.732 404.849 249.529 404.849C249.326 404.849 249.126 404.802 248.944 404.712L245.287 402.61C244.995 402.434 245.024 402.128 245.375 401.938L248.871 399.923C249.046 399.837 249.237 399.79 249.432 399.788C249.627 399.785 249.82 399.827 249.997 399.909Z" fill="#2B303F"/>
<path d="M244.819 396.93L248.491 399.047C248.783 399.208 248.754 399.514 248.403 399.719L244.907 401.719C244.729 401.811 244.53 401.859 244.329 401.859C244.128 401.859 243.93 401.811 243.752 401.719L240.08 399.602C239.788 399.441 239.817 399.135 240.168 398.93L243.664 396.916C243.844 396.828 244.043 396.784 244.243 396.786C244.444 396.789 244.641 396.838 244.819 396.93Z" fill="#2B303F"/>
<path d="M239.657 393.952L243.314 396.054C243.606 396.229 243.577 396.536 243.226 396.726L239.73 398.741C239.552 398.834 239.354 398.883 239.153 398.883C238.951 398.883 238.753 398.834 238.575 398.741L234.904 396.638C234.611 396.463 234.655 396.171 234.991 395.967L238.487 393.952C238.669 393.862 238.869 393.815 239.072 393.815C239.275 393.815 239.475 393.862 239.657 393.952Z" fill="#2B303F"/>
<path d="M234.479 390.973L238.136 393.076C238.428 393.251 238.399 393.543 238.048 393.747L234.552 395.762C234.373 395.852 234.175 395.899 233.974 395.899C233.774 395.899 233.576 395.852 233.397 395.762L229.74 393.66C229.433 393.484 229.477 393.178 229.813 392.988L233.309 390.973C233.49 390.88 233.69 390.831 233.894 390.831C234.098 390.831 234.298 390.88 234.479 390.973Z" fill="#2B303F"/>
<path d="M229.301 387.98L232.958 390.097C233.265 390.273 233.221 390.565 232.87 390.769L229.389 392.74C229.207 392.829 229.007 392.875 228.804 392.875C228.601 392.875 228.401 392.829 228.219 392.74L224.562 390.623C224.255 390.462 224.299 390.156 224.635 389.951L228.131 387.951C228.315 387.863 228.516 387.82 228.72 387.825C228.923 387.83 229.122 387.884 229.301 387.98Z" fill="#2B303F"/>
<path d="M224.122 385.002L227.779 387.104C228.086 387.28 228.042 387.586 227.691 387.776L224.21 389.82C224.028 389.909 223.828 389.955 223.625 389.955C223.422 389.955 223.222 389.909 223.04 389.82L219.383 387.703C219.076 387.528 219.12 387.236 219.471 387.031L222.952 385.017C223.133 384.925 223.333 384.877 223.535 384.874C223.738 384.872 223.939 384.915 224.122 385.002Z" fill="#2B303F"/>
<path d="M286.228 420.801L293.804 425.181C294.097 425.356 294.067 425.663 293.716 425.853L290.221 427.78C290.041 427.869 289.843 427.915 289.643 427.915C289.442 427.915 289.245 427.869 289.065 427.78L281.489 423.4C281.196 423.225 281.225 422.918 281.576 422.728L285.072 420.713C285.257 420.633 285.459 420.599 285.661 420.615C285.862 420.63 286.057 420.694 286.228 420.801Z" fill="#2B303F"/>
<path d="M288.655 416.392L292.312 418.509C292.604 418.684 292.575 418.976 292.224 419.181L288.728 421.195C288.549 421.285 288.351 421.332 288.151 421.332C287.95 421.332 287.752 421.285 287.573 421.195L283.902 419.093C283.609 418.918 283.653 418.611 283.989 418.421L287.485 416.407C287.666 416.315 287.866 416.267 288.068 416.264C288.271 416.261 288.472 416.305 288.655 416.392Z" fill="#2B303F"/>
<path d="M283.477 413.414L287.134 415.531C287.426 415.691 287.397 415.998 287.046 416.202L283.55 418.217C283.371 418.307 283.173 418.354 282.972 418.354C282.772 418.354 282.574 418.307 282.395 418.217L278.738 416.1C278.431 415.939 278.475 415.633 278.811 415.428L282.292 413.472C282.471 413.368 282.671 413.309 282.877 413.298C283.084 413.288 283.289 413.328 283.477 413.414Z" fill="#2B303F"/>
<path d="M278.3 410.435L281.957 412.538C282.264 412.713 282.22 413.019 281.869 413.209L278.388 415.224C278.206 415.313 278.006 415.359 277.803 415.359C277.6 415.359 277.4 415.313 277.218 415.224L273.517 413.18C273.21 413.005 273.254 412.713 273.59 412.508L277.086 410.494C277.269 410.388 277.475 410.328 277.686 410.318C277.897 410.308 278.108 410.348 278.3 410.435Z" fill="#2B303F"/>
<path d="M273.121 407.457L276.778 409.559C277.085 409.734 277.041 410.041 276.778 410.231L273.282 412.246C273.101 412.339 272.901 412.388 272.697 412.388C272.493 412.388 272.293 412.339 272.112 412.246L268.455 410.143C268.163 409.968 268.192 409.661 268.543 409.472L272.024 407.457C272.195 407.375 272.383 407.333 272.573 407.333C272.763 407.333 272.95 407.375 273.121 407.457Z" fill="#2B303F"/>
<path d="M267.944 404.42L271.616 406.537C271.908 406.712 271.864 407.004 271.528 407.209L268.032 409.223C267.85 409.313 267.65 409.36 267.447 409.36C267.244 409.36 267.044 409.313 266.862 409.223L263.205 407.121C262.913 406.946 262.942 406.639 263.293 406.449L266.789 404.435C266.967 404.344 267.164 404.295 267.365 404.292C267.565 404.29 267.764 404.334 267.944 404.42Z" fill="#2B303F"/>
<path d="M262.781 401.5L266.438 403.617C266.73 403.778 266.701 404.084 266.35 404.289L262.854 406.289C262.676 406.381 262.478 406.429 262.277 406.429C262.076 406.429 261.877 406.381 261.699 406.289L258.028 404.172C257.735 403.997 257.764 403.705 258.115 403.5L261.611 401.485C261.794 401.398 261.995 401.353 262.198 401.356C262.401 401.358 262.601 401.408 262.781 401.5Z" fill="#2B303F"/>
<path d="M257.604 398.58L261.261 400.682C261.553 400.858 261.524 401.164 261.173 401.354L257.677 403.369C257.499 403.462 257.301 403.511 257.099 403.511C256.898 403.511 256.7 403.462 256.522 403.369L252.865 401.266C252.558 401.091 252.602 400.799 252.938 400.595L256.434 398.58C256.616 398.49 256.816 398.443 257.019 398.443C257.222 398.443 257.422 398.49 257.604 398.58Z" fill="#2B303F"/>
<path d="M252.426 395.529L256.083 397.631C256.39 397.806 256.346 398.098 255.995 398.303L252.514 400.317C252.333 400.411 252.132 400.46 251.929 400.46C251.725 400.46 251.524 400.411 251.344 400.317L247.687 398.215C247.38 398.04 247.424 397.733 247.687 397.543L251.183 395.529C251.373 395.422 251.587 395.367 251.804 395.367C252.022 395.367 252.236 395.422 252.426 395.529Z" fill="#2B303F"/>
<path d="M247.19 392.535L250.846 394.652C251.153 394.828 251.11 395.12 250.846 395.324L247.351 397.339C247.169 397.429 246.968 397.476 246.765 397.476C246.562 397.476 246.362 397.429 246.18 397.339L242.524 395.222C242.217 395.061 242.26 394.755 242.612 394.55L246.093 392.55C246.264 392.47 246.45 392.427 246.64 392.425C246.829 392.422 247.016 392.46 247.19 392.535Z" fill="#2B303F"/>
<path d="M242.069 389.557L245.741 391.674C246.033 391.835 245.989 392.141 245.653 392.331L242.157 394.346C241.975 394.435 241.775 394.481 241.572 394.481C241.369 394.481 241.169 394.435 240.987 394.346L237.33 392.229C237.038 392.054 237.067 391.762 237.418 391.557L240.914 389.543C241.094 389.455 241.293 389.411 241.493 389.413C241.694 389.416 241.891 389.465 242.069 389.557Z" fill="#2B303F"/>
<path d="M236.95 386.579L240.621 388.681C240.914 388.856 240.885 389.163 240.534 389.353L236.95 391.368C236.772 391.461 236.574 391.51 236.372 391.51C236.171 391.51 235.973 391.461 235.795 391.368L232.123 389.265C231.831 389.09 231.86 388.798 232.211 388.594L235.707 386.579C235.896 386.47 236.11 386.413 236.328 386.413C236.547 386.413 236.761 386.47 236.95 386.579Z" fill="#2B303F"/>
<path d="M225.323 379.907L235.386 385.747C235.678 385.922 235.649 386.214 235.298 386.418L231.802 388.36C231.623 388.45 231.425 388.497 231.225 388.497C231.024 388.497 230.826 388.45 230.647 388.36L220.584 382.52C220.277 382.345 220.32 382.038 220.657 381.848L224.153 379.834C224.339 379.751 224.543 379.715 224.747 379.728C224.95 379.74 225.148 379.802 225.323 379.907Z" fill="#2B303F"/>
<path d="M293.819 419.385L298.822 422.305C299.114 422.48 299.07 422.772 298.734 422.977L295.238 424.991C295.056 425.081 294.856 425.128 294.653 425.128C294.45 425.128 294.25 425.081 294.068 424.991L289.08 422.071C288.788 421.896 288.817 421.604 289.168 421.4L292.664 419.385C292.842 419.292 293.04 419.243 293.242 419.243C293.443 419.243 293.641 419.292 293.819 419.385Z" fill="#2B303F"/>
<path d="M205.05 391.587L278.549 433.927C278.841 434.102 278.812 434.394 278.461 434.598L276.721 435.606C276.539 435.696 276.339 435.742 276.136 435.742C275.933 435.742 275.732 435.696 275.55 435.606L202.052 393.266C201.759 393.09 201.803 392.784 202.14 392.594L203.88 391.587C204.061 391.493 204.262 391.444 204.465 391.444C204.669 391.444 204.87 391.493 205.05 391.587Z" fill="#2B303F"/>
<path d="M291.054 393.47L290.572 393.747L277.876 401.062L255.292 388.053L254.824 387.79L268.003 380.198L291.054 393.47Z" fill="#BFBFBF"/>
<path d="M290.572 393.747L277.876 401.062L255.293 388.053L268.003 380.739L290.572 393.747Z" fill="#E5E5E5"/>
<path d="M327.27 410.552V411.72C327.27 412.533 327.057 413.331 326.652 414.036C326.246 414.74 325.662 415.326 324.959 415.735L280.187 441.533C279.484 441.938 278.687 442.149 277.876 442.146C277.065 442.145 276.269 441.934 275.565 441.533L194.563 394.813C193.859 394.404 193.276 393.818 192.87 393.114C192.465 392.409 192.251 391.611 192.252 390.798V389.674L277.905 439.022L327.27 410.552Z" fill="#E5E5E5"/>
<path d="M281.517 328.223L266.495 319.74C266.495 319.74 252.702 332.88 252.702 333.406C247.153 339.698 242.027 346.351 237.359 353.32C235.472 355.992 233.439 357.598 229.271 362.328C225.102 367.059 221.372 373.395 220.246 378.315C219.12 383.235 219.5 385.09 220.407 385.615C221.548 386.301 222.659 385.455 223.435 383.25C224.421 379.599 226.023 376.143 228.174 373.03C228.174 373.03 226.243 377.819 225.336 380.753C224.529 383.328 224.072 386 223.976 388.696C223.976 391.251 227.12 393.076 227.954 390.886C228.788 388.696 228.846 386.798 230.251 382.462C230.992 380.126 231.998 377.883 233.249 375.775C232.483 378.677 231.95 381.636 231.655 384.622C231.348 388.725 232.093 390.375 232.635 391.426C233.176 392.477 235.428 392.886 236.101 390.097C236.701 387.542 236.364 384.184 238.281 379.396C239.743 375.906 241.206 373.556 241.469 374.183C241.732 374.811 240.84 376.797 241.147 379.877C241.454 382.958 243.561 385.352 245.287 384.871C247.013 384.389 246.662 384.447 246.866 381.323C247.071 378.198 248.241 375.381 248.153 370.986C247.863 367.93 248.32 364.848 249.484 362.007C250.786 358.678 257.12 351.261 264.257 344.195L281.517 328.223Z" fill="#FFCEA9"/>
<path d="M276.574 439.708C275.809 440.004 274.988 440.125 274.17 440.061C273.352 439.998 272.559 439.753 271.849 439.343L191.198 392.871C190.5 392.468 189.9 391.917 189.44 391.256C188.979 390.594 188.671 389.84 188.536 389.046L179.76 336.486C179.739 336.19 179.739 335.892 179.76 335.596C179.76 334.871 179.903 334.154 180.182 333.485C180.46 332.816 180.869 332.208 181.384 331.698L265.194 379.994C265.717 380.306 266.164 380.729 266.503 381.234C266.842 381.739 267.065 382.313 267.154 382.914L276.574 439.708Z" fill="#F4F4F4"/>
<path d="M277.904 439.022L277.348 439.343C277.109 439.482 276.86 439.604 276.603 439.708L267.051 382.841C266.962 382.24 266.74 381.666 266.401 381.161C266.062 380.656 265.614 380.233 265.091 379.921L181.281 331.624C181.619 331.295 181.997 331.011 182.407 330.778L266.379 379.162C266.893 379.462 267.336 379.871 267.674 380.361C268.013 380.85 268.24 381.408 268.339 381.994L277.904 439.022Z" fill="#E5E5E5"/>
<path d="M291.317 297.84C291.317 297.84 284.998 297.519 282.395 293.84C282.877 287.562 290.936 263.691 307.143 261.909C302.732 265 299.231 269.215 297.006 274.115C294.067 281.254 291.317 297.84 291.317 297.84Z" fill="#EDEDED"/>
<path opacity="0.4" d="M107.504 369.395C113.062 369.395 117.568 366.8 117.568 363.598C117.568 360.397 113.062 357.802 107.504 357.802C101.947 357.802 97.4414 360.397 97.4414 363.598C97.4414 366.8 101.947 369.395 107.504 369.395Z" fill="#D6D8E5"/>
<path d="M108.938 368.314C114.496 368.314 119.001 365.719 119.001 362.518C119.001 359.317 114.496 356.722 108.938 356.722C103.38 356.722 98.875 359.317 98.875 362.518C98.875 365.719 103.38 368.314 108.938 368.314Z" fill="#D6D8E5"/>
<path d="M95.4668 342.691L98.9918 362.927H118.972L122.409 342.837L95.4668 342.691Z" fill="#D6D8E5"/>
<path d="M108.939 350.21C116.387 350.21 122.425 346.733 122.425 342.443C122.425 338.153 116.387 334.676 108.939 334.676C101.491 334.676 95.4531 338.153 95.4531 342.443C95.4531 346.733 101.491 350.21 108.939 350.21Z" fill="#E4E6EF"/>
<path d="M108.939 348.502C105.921 348.569 102.936 347.866 100.266 346.458C98.3059 345.319 97.1797 343.859 97.1797 342.443C97.1797 341.027 98.3059 339.523 100.266 338.428C102.959 337.084 105.929 336.384 108.939 336.384C111.95 336.384 114.92 337.084 117.613 338.428C119.588 339.567 120.714 341.027 120.714 342.443C120.714 343.859 119.588 345.363 117.613 346.458C114.944 347.867 111.958 348.571 108.939 348.502Z" fill="#28221C"/>
<path d="M114.746 336.326C114.938 333.71 114.521 331.085 113.529 328.656C112.537 326.228 110.996 324.061 109.027 322.324C107.057 324.061 105.517 326.228 104.525 328.656C103.532 331.085 103.116 333.71 103.308 336.326L95.5996 335.596C98.8613 347.83 109.085 346.779 109.085 346.779C109.846 346.779 119.324 347.334 122.498 335.596L114.746 336.326Z" fill="#99B524"/>
<path d="M109.027 346.808C109.027 346.808 108.34 337.275 95.5123 330.865C95.5123 330.865 92.4846 346.692 109.027 346.808Z" fill="#A6CE28"/>
<path d="M108.939 346.808C108.939 346.808 109.7 337.26 122.454 330.865C122.454 330.865 125.482 346.692 108.939 346.808Z" fill="#A6CE28"/>
<path opacity="0.4" d="M375.654 503.642C382.908 503.642 388.789 500.256 388.789 496.079C388.789 491.902 382.908 488.516 375.654 488.516C368.4 488.516 362.52 491.902 362.52 496.079C362.52 500.256 368.4 503.642 375.654 503.642Z" fill="#D6D8E5"/>
<path d="M390.075 494.94V474.807L363.864 475.464V494.079C363.367 496.327 364.61 498.663 367.594 500.386C370.474 501.84 373.655 502.597 376.882 502.597C380.109 502.597 383.29 501.84 386.17 500.386C388.817 498.897 390.09 496.955 390.075 494.94Z" fill="#D6D8E5"/>
<path d="M376.941 482.37C384.195 482.37 390.076 478.983 390.076 474.807C390.076 470.63 384.195 467.244 376.941 467.244C369.687 467.244 363.807 470.63 363.807 474.807C363.807 478.983 369.687 482.37 376.941 482.37Z" fill="#E4E6EF"/>
<path d="M387.998 474.807C387.998 476.048 386.974 477.332 385.19 478.369C382.904 479.568 380.371 480.222 377.789 480.282H376.941C374.071 480.334 371.235 479.666 368.691 478.34C366.907 477.303 365.883 476.018 365.883 474.777C365.883 473.536 366.907 472.252 368.691 471.23C371.232 469.897 374.07 469.229 376.941 469.288H377.789C380.373 469.345 382.907 470.005 385.19 471.215C386.974 472.281 387.998 473.58 387.998 474.807Z" fill="#28221C"/>
<path opacity="0.07" d="M388 474.806C388 476.047 386.976 477.332 385.191 478.369C382.924 479.623 380.375 480.281 377.783 480.281C375.191 480.281 372.642 479.623 370.375 478.369C368.59 477.332 367.566 476.047 367.566 474.806C367.566 473.565 368.59 472.281 370.375 471.259C372.639 469.995 375.189 469.332 377.783 469.332C380.377 469.332 382.927 469.995 385.191 471.259C386.976 472.281 388 473.58 388 474.806Z" fill="white"/>
<path d="M388.16 484.165L385.366 482.545L384.02 483.333L385.366 484.121V484.632L387.984 486.092L387.911 486.574C388.553 487.471 389.13 488.413 389.637 489.392L389.739 489.304V495.801C389.739 497.51 388.73 496.926 388.277 496.677L385.351 494.998L384.006 495.772L385.351 496.561V497.072L388.277 498.765C388.577 498.941 388.896 499.083 389.228 499.189L389.052 500.006L390.515 499.145C390.842 498.867 391.096 498.512 391.251 498.111C391.407 497.711 391.461 497.279 391.407 496.853V490.064C391.339 488.901 391.013 487.769 390.451 486.748C389.889 485.728 389.107 484.845 388.16 484.165Z" fill="#B0B4C1"/>
<path d="M386.945 499.597L384.02 497.904V495.816L386.945 497.51C387.384 497.758 388.408 498.342 388.408 496.634V489.845C388.356 489.264 388.177 488.701 387.884 488.196C387.591 487.692 387.19 487.258 386.711 486.925L384.049 485.465V483.377L386.828 484.983C387.802 485.657 388.611 486.541 389.196 487.569C389.78 488.598 390.126 489.745 390.207 490.925V497.714C390.177 499.51 389.329 500.97 386.945 499.597Z" fill="#BFC2D1"/>
<path d="M92.2647 151.022C89.9683 145.007 87.4818 142.715 82.4064 139.459C77.331 136.203 64.6205 128.655 53.6067 122.304C42.5929 115.953 29.8239 108.755 24.7777 106.244C21.282 104.448 19.0149 103.66 17.1865 104.448L16.8648 104.624L16.6746 104.726L6.09961 110.391L12.2281 114.96C11.5437 120.412 11.2456 125.906 11.3359 131.4C11.3359 145.577 12.5499 154.41 14.9194 160.425C17.2889 166.44 19.7169 168.747 24.7631 172.105C29.8093 175.463 42.5636 182.909 53.6067 189.26C61.7683 193.976 70.8807 199.115 77.097 202.502L78.3841 213.291L90.334 206.955C91.1267 206.495 91.7946 205.848 92.2793 205.072C94.6635 201.801 95.8628 194.355 95.8628 180.252C95.8482 165.871 94.6488 157.096 92.2647 151.022Z" fill="#DB302C"/>
<path d="M80.9142 157.111C78.6324 151.081 76.1459 148.789 71.0705 145.533C65.9951 142.277 53.2846 134.729 42.2708 128.378C31.257 122.027 18.488 114.844 13.4418 112.318C8.39565 109.792 5.85063 109.164 3.56888 112.537C1.28714 115.909 0 123.253 0 137.488C0 151.665 1.21401 160.498 3.56888 166.513C5.92376 172.528 8.38102 174.835 13.4272 178.193C18.4734 181.551 31.2277 188.997 42.2708 195.363C53.3138 201.728 66.0097 208.838 71.0851 211.423C76.1605 214.007 78.6324 214.532 80.9288 211.145C83.2252 207.758 84.5123 200.429 84.5123 186.252C84.5123 171.959 83.3714 163.17 80.9142 157.111Z" fill="#F44336"/>
<path d="M31.6953 174.032V137.503L58.0963 170.981L31.6953 174.032Z" fill="#FAFAFA"/>
<path d="M298.761 76.8691C298.761 50.5891 280.303 18.7319 257.544 5.60645C246.355 -0.832146 236.218 -1.45995 228.788 2.52585L228.539 2.67185L228.261 2.83245L219.895 7.69425L221.972 8.64325C218.389 13.6219 216.326 20.6299 216.326 29.3753C216.326 55.6553 234.785 87.5125 257.544 100.623C264.448 104.609 270.956 106.463 276.675 106.23L276.441 109.398L286.68 103.558H286.782L286.929 103.47C294.227 99.0319 298.761 89.8631 298.761 76.8691Z" fill="#499BCE"/>
<path d="M277.363 108.903C293.461 99.6266 293.462 69.5475 277.367 41.72C261.271 13.8924 235.174 -1.14584 219.076 8.13105C202.979 17.4079 202.978 47.487 219.073 75.3146C235.169 103.142 261.266 118.18 277.363 108.903Z" fill="#55ACEE"/>
<path d="M271.761 57.1591C269.804 57.0053 267.888 56.5112 266.101 55.6991C267.129 55.5853 268.099 55.1631 268.883 54.4881C269.666 53.813 270.226 52.9168 270.489 51.9177C268.368 52.0997 266.234 51.8054 264.243 51.0563C262.567 47.8949 260.084 45.2308 257.047 43.3329C251.577 40.1793 247.189 42.7197 247.189 48.9977C247.19 49.9139 247.278 50.828 247.452 51.7279C239.261 46.5449 232.006 37.8287 227.15 28.1635C226.205 29.6311 225.74 31.3554 225.819 33.0983C226.016 37.4485 227.547 41.6331 230.207 45.0849C228.511 44.0032 227.004 42.6519 225.746 41.0845V41.2305C225.904 44.2442 226.68 47.1935 228.026 49.8957C229.372 52.598 231.259 54.9956 233.571 56.9401C232.66 56.7002 231.789 56.3315 230.982 55.8451C230.33 55.4723 229.709 55.0475 229.125 54.5749C230.448 59.9443 233.728 64.6291 238.325 67.7149C234.961 68.8099 230.704 68.182 226.097 65.5103C225.307 65.0577 224.517 64.5466 223.742 64.0503C227.818 69.5983 232.953 74.2872 238.851 77.8473C256.959 88.3008 266.876 76.7085 266.876 61.6996C266.876 61.2033 266.876 60.7068 266.876 60.2397C268.791 59.7637 270.51 58.7019 271.79 57.2029L271.761 57.1591Z" fill="#F1F2F2"/>
<path d="M540.101 126.188L480.775 91.98C479.752 91.2635 478.575 90.7953 477.338 90.6128C476.102 90.4303 474.84 90.5385 473.652 90.9288H473.564C473.224 91.0796 472.901 91.2655 472.599 91.4836L463.121 96.9002L469.835 106.2V166.601C470.032 170.401 471.126 174.101 473.027 177.399C474.929 180.697 477.583 183.5 480.775 185.581L510.028 202.444V169.024L502.481 164.644C501.964 164.306 501.535 163.85 501.228 163.315C500.92 162.78 500.743 162.18 500.711 161.564V150.774C500.711 149.635 501.516 149.168 502.496 149.738L510.014 154.118V143.722C510.014 131.634 516.42 128.743 525.781 134.13L533.46 138.51C533.983 138.85 534.418 139.309 534.729 139.85C535.039 140.391 535.216 140.998 535.245 141.62V150.701C535.245 151.84 534.455 152.293 533.475 151.723L528.765 149.022C523.675 146.102 522.695 148.307 522.695 152.395V161.403L533.87 167.9C534.421 168.255 534.873 168.744 535.183 169.321C535.492 169.898 535.65 170.545 535.64 171.2L534.528 181.42C534.426 182.398 533.665 182.734 532.758 182.208L522.739 176.368V209.773L534.938 216.81L537.088 226.738L547.809 220.606L547.926 220.533H548.014C549.915 219.35 551.1 216.956 551.1 213.54V145.109C550.887 141.314 549.78 137.623 547.868 134.335C545.957 131.047 543.296 128.256 540.101 126.188Z" fill="#384B7A"/>
<path d="M492.813 204.196L527.726 224.329L533.474 156.308L523.075 139.269L489.522 119.457L482.398 133.663C482.398 133.663 482.954 165.068 483.861 171.623C484.768 178.178 492.813 204.196 492.813 204.196Z" fill="white"/>
<path d="M529.979 132.028L470.654 97.82C464.613 94.3306 459.713 97.163 459.713 104.127V172.484C459.91 176.285 461.004 179.984 462.906 183.283C464.807 186.581 467.462 189.384 470.654 191.464L499.907 208.327V174.908L492.374 170.528C491.855 170.19 491.424 169.735 491.114 169.2C490.804 168.665 490.624 168.065 490.59 167.447V156.658C490.59 155.519 491.394 155.052 492.374 155.621L499.907 160.001V149.592C499.907 137.503 506.299 134.612 515.66 139.999L523.338 144.379C523.852 144.721 524.278 145.177 524.582 145.712C524.887 146.247 525.062 146.845 525.094 147.46V156.541C525.094 157.68 524.289 158.133 523.309 157.563L518.599 154.862C513.509 151.942 512.529 154.147 512.529 158.235V167.243L523.704 173.696C524.256 174.051 524.708 174.54 525.017 175.117C525.327 175.695 525.484 176.341 525.474 176.996L524.362 187.216C524.26 188.179 523.499 188.53 522.593 188.004L512.573 182.237V215.642L529.979 225.672C536.02 229.162 540.92 226.329 540.92 219.365V150.949C540.713 147.159 539.615 143.471 537.714 140.184C535.813 136.897 533.163 134.102 529.979 132.028Z" fill="#475993"/>
<path d="M640 427.78C640 397.529 618.719 360.751 592.479 345.611C579.695 338.311 568.111 337.391 559.569 341.932L559.306 342.093C558.804 342.36 558.315 342.652 557.843 342.969L547.955 348.809L550.705 350.108C547.019 355.773 544.928 363.482 544.928 372.957C544.928 403.208 566.209 440 592.464 455.126C598.565 458.897 605.502 461.113 612.663 461.579L613.175 465.565L625.242 458.907C634.34 454.148 640 443.344 640 427.78Z" fill="#357ECE"/>
<path d="M609.571 455.104C625.227 446.081 625.228 416.824 609.573 389.758C593.918 362.692 568.535 348.064 552.878 357.087C537.221 366.11 537.22 395.366 552.876 422.433C568.531 449.499 593.914 464.126 609.571 455.104Z" fill="white"/>
<path d="M581.625 417.56C586.861 420.582 591.118 418.129 591.118 412.1C591.047 409.53 590.439 407.004 589.333 404.683C587.713 400.994 585.036 397.865 581.64 395.689C578.466 393.864 575.672 394.054 573.931 395.821C572.667 397.304 572.027 399.22 572.147 401.164C572.325 404.448 573.275 407.645 574.922 410.493C576.569 413.342 578.865 415.763 581.625 417.56Z" fill="#357ECE"/>
<path d="M602.351 405.208V396.04V394.667L601.166 393.996L593.209 389.44L593.238 399.996L602.351 405.208Z" fill="#357ECE"/>
<path d="M581.625 352.006C555.488 336.939 534.221 349.203 534.221 379.323C534.221 409.442 555.488 446.22 581.625 461.287C607.763 476.354 629.03 464.09 629.03 433.97C629.03 403.85 607.778 367.073 581.625 352.006ZM608.597 415.808V441.241C608.597 447.87 603.916 450.571 598.168 447.256L565.097 428.189C562.064 426.214 559.54 423.554 557.728 420.424C555.916 417.294 554.868 413.782 554.669 410.172V372.052C554.669 365.423 559.349 362.722 565.097 366.037L598.227 385.104C601.26 387.079 603.784 389.739 605.596 392.869C607.408 395.999 608.456 399.511 608.655 403.12L608.597 415.808Z" fill="#357ECE"/>
<path d="M596.384 415.136C596.384 424.51 589.758 428.277 581.626 423.648C573.493 419.02 566.882 407.515 566.882 398.142C566.844 396.171 567.213 394.213 567.965 392.39L559.92 387.761V413.18C560.017 414.97 560.534 416.711 561.431 418.264C562.329 419.816 563.58 421.136 565.083 422.115L598.227 441.197C601.152 442.833 603.39 441.504 603.39 438.277V412.771L595.345 408.143C596.024 410.413 596.374 412.768 596.384 415.136Z" fill="#357ECE"/>
</g>
<defs>
<clipPath id="clip0_1675_4551">
<rect width="640" height="730" fill="white"/>
</clipPath>
</defs>
</svg>
