<svg width="40" height="40" viewBox="0 0 40 40" fill="none" xmlns="http://www.w3.org/2000/svg">
<g clip-path="url(#clip0_5_367)">
<path d="M20 40C31.0457 40 40.0001 31.0457 40.0001 20C40.0001 8.95431 31.0457 0 20 0C8.95434 0 3.05176e-05 8.95431 3.05176e-05 20C3.05176e-05 31.0457 8.95434 40 20 40Z" fill="#3C5A9A"/>
<path d="M26.5031 6.13892H22.0726C19.4435 6.13892 16.5191 7.24472 16.5191 11.0559C16.5319 12.3838 16.5191 13.6556 16.5191 15.0869H13.4774V19.927H16.6132V33.861H22.3753V19.8351H26.1784L26.5225 15.0733H22.276C22.276 15.0733 22.2855 12.9551 22.276 12.3399C22.276 10.8339 23.8431 10.9201 23.9373 10.9201C24.6831 10.9201 26.1331 10.9223 26.5053 10.9201V6.13892H26.5031Z" fill="white"/>
</g>
<defs>
<clipPath id="clip0_5_367">
<rect width="40" height="40" fill="white"/>
</clipPath>
</defs>
</svg>
