<svg width="629" height="701" viewBox="0 0 629 701" fill="none" xmlns="http://www.w3.org/2000/svg">
<path opacity="0.4" d="M573.242 340.672C604.036 340.672 629 326.241 629 308.44C629 290.639 604.036 276.208 573.242 276.208C542.447 276.208 517.483 290.639 517.483 308.44C517.483 326.241 542.447 340.672 573.242 340.672Z" fill="#D6D8E5"/>
<path d="M582.052 19.6275C584.223 16.1225 600.848 13.8232 606.31 27.9133C608.383 33.2689 608.075 46.9244 609.812 55.5187C611.549 64.1129 615.624 68.9638 617.095 75.9318C618.566 82.8997 616.171 94.6064 599.461 96.7375C582.752 98.8685 569.796 92.91 565.847 87.5684C561.897 82.2268 561.799 70.8425 565.917 64.7298C570.035 58.6171 573.158 53.654 573.06 45.7047L582.052 19.6275Z" fill="black"/>
<path d="M562.135 78.6658C562.135 78.6658 558.2 106.482 565.637 126.334C573.074 146.186 571.029 121.231 571.029 121.231L569.236 115.328C569.236 115.328 567.738 92.5316 568.354 86.9236C568.97 81.3156 568.83 76.5488 569.236 76.1002C569.642 75.6515 567.752 74.7683 566.967 74.6982C566.183 74.6281 562.135 78.6658 562.135 78.6658Z" fill="#FFCEA9"/>
<path d="M593.032 17.2301C593.032 17.2301 580.511 13.627 572.92 20.3987C570.416 22.7058 568.592 25.6569 567.649 28.9302C566.705 32.2035 566.678 35.6733 567.569 38.9611C568.578 42.9148 570.609 48.3125 573.746 48.6069C576.883 48.9013 593.032 17.2301 593.032 17.2301Z" fill="black"/>
<path d="M597.809 51.3965C597.809 51.3965 596.996 65.4165 597.249 66.3839C597.501 67.3512 602.725 68.4027 604.182 69.6225C605.638 70.8422 596.604 85.0445 591.996 87.1054C587.388 89.1664 573.144 83.8388 572.164 76.7446C571.239 70.2113 576.239 65.1361 578.158 63.3696C579.466 63.2387 580.781 63.2059 582.094 63.2714L582.514 56.4998C588.747 54.5089 597.809 51.3965 597.809 51.3965Z" fill="#FFCEA9"/>
<path d="M599.727 67.7438C603.649 68.3467 608.131 70.4497 608.733 72.5947C609.461 75.1043 611.002 86.9091 607.613 95.896C604.223 104.883 601.94 110.603 599.979 114.472C599.979 114.472 583.032 121.763 569.362 113.267C569.362 113.267 568.41 103.635 568.354 98.4756C555.748 87.4559 566.519 73.8705 577.219 63.3135C578.501 63.2015 579.79 63.2015 581.071 63.3135C581.071 63.3135 571.533 74.5295 578.158 81.0207C592.36 76.6745 595.175 70.2954 599.727 67.7438Z" fill="#F4F4F4"/>
<path d="M571.757 34.0958C573.158 25.123 579.628 18.3513 588.872 18.8981C591.214 19.0287 593.507 19.6205 595.619 20.6394C597.732 21.6584 599.623 23.0845 601.184 24.8361C602.746 26.5878 603.946 28.6305 604.718 30.8473C605.489 33.0641 605.816 35.4115 605.68 37.755C605.516 40.4797 604.724 43.1295 603.366 45.4963C602.008 47.8632 600.12 49.8827 597.85 51.3965C597.533 52.7536 597.063 54.0705 596.45 55.3221C593.158 59.1355 584.475 61.561 581.603 61.589C579.124 61.589 576.981 59.3037 574.6 55.4482C569.754 47.4288 570.987 38.5261 571.757 34.0958Z" fill="#FFCEA9"/>
<path d="M591.744 19.0532C598.229 20.329 603.551 22.1516 605.316 28.5307C606.52 32.9189 608.117 41.2749 606.59 44.8079L605.666 47.3455L597.809 51.3973C597.809 51.3973 594.153 48.3409 595.287 39.3822C595.243 38.1698 594.86 36.9942 594.181 35.9893C593.694 35.1436 593.331 34.2324 593.103 33.2835C592.17 30.866 590.352 28.8954 588.018 27.7736C582.164 24.4929 573.606 27.325 572.416 28.5167C574.061 24.9572 576.881 22.0734 580.401 20.35C583.921 18.6266 587.926 18.1687 591.744 19.0532Z" fill="black"/>
<path d="M609.265 132.979C610.666 123.894 613.467 117.991 612.179 113C609.357 102.885 605.664 93.0343 601.142 83.5583C598.341 77.9503 599.139 73.9686 602.108 71.7394C605.456 69.2298 608.649 70.3374 611.66 76.5903C615.442 84.4696 619.714 92.5591 621.787 104.294C622.809 109.986 623.341 115.51 621.507 127.203C620.218 135.376 617.627 139.961 614.504 147.63C613.649 149.719 607.949 140.69 609.265 132.979Z" fill="#FFCEA9"/>
<path d="M603.523 302.523C600.246 305.201 595.12 303.35 594.895 303.602C591.548 306.953 586.576 309.869 582.864 312.785C580.819 314.398 577.64 316.557 578.214 319.641C579.251 325.179 588.103 323.483 591.436 321.786C594.769 320.09 597.501 317.286 600.666 315.323C602.907 313.921 605.134 313.192 605.484 310.346C605.694 308.622 604.097 302.467 603.523 302.523Z" fill="#38226D"/>
<path d="M605.442 309.196C605.008 312 602.823 312.673 600.582 314.061C597.374 316.066 594.545 318.94 591.212 320.637C588.116 322.193 580.427 323.749 578.256 319.795C579.432 325.137 588.13 323.455 591.436 321.786C594.741 320.118 597.5 317.286 600.666 315.323C602.907 313.921 605.134 313.192 605.484 310.346C605.509 309.962 605.495 309.577 605.442 309.196Z" fill="#6E628C"/>
<path d="M580.497 297.924C577.5 300.378 572.962 299.004 572.738 299.228C569.684 302.298 565.146 304.934 561.757 307.64C559.88 309.126 556.953 311.089 557.485 313.935C558.437 318.996 566.533 317.44 569.6 315.884C572.668 314.328 575.203 311.762 578.004 309.967C580.063 308.692 582.094 308.019 582.416 305.411C582.654 303.799 581.029 297.868 580.497 297.924Z" fill="#38226D"/>
<path d="M582.43 304.317C582.024 306.813 580.021 307.5 577.976 308.776C575.034 310.612 572.373 313.248 569.39 314.79C566.589 316.192 559.586 317.594 557.527 314.033C558.605 318.912 566.575 317.384 569.6 315.842C572.625 314.3 575.203 311.72 578.004 309.925C580.063 308.65 582.094 307.977 582.416 305.369C582.461 305.02 582.465 304.667 582.43 304.317Z" fill="#6E628C"/>
<path d="M562.807 145.149C564.208 133.834 568.41 117.375 568.41 117.375C572.368 119.229 576.65 120.292 581.015 120.501C588.313 120.88 599.994 118.651 599.994 118.651C602.024 122.215 604.25 125.665 606.661 128.984C609.924 133.512 616.255 143.452 614.728 160.795C613.72 172.137 607.375 220.282 607.375 220.282C609.847 228.413 611.163 236.851 611.283 245.35C611.213 252.36 609.378 264.249 607.305 275.254L603.523 302.579C603.523 302.579 598.481 306.224 594.895 303.659L595.344 276.909C594.909 270.361 594.251 260.701 593.845 254.477C593.159 244.438 591.366 228.484 590.848 224.502C590.329 220.52 589.055 213.566 588.439 205.757C587.822 197.948 584.895 158.327 584.895 158.327L584.489 165.758C584.489 165.758 584.111 177.801 582.374 192.676C580.637 207.552 580.035 214.141 580.035 214.141C580.035 214.141 583.046 219.665 583.424 223.745C583.733 226.955 587.402 252.374 585.203 265.3L580.707 298.177C579.584 298.95 578.295 299.446 576.943 299.624C575.592 299.801 574.218 299.656 572.934 299.2L570.287 266.071C568.508 253.453 564.684 226.731 564.166 223.254C563.41 218.684 562.765 216.426 561.925 202.056C561.085 187.685 561.365 156.477 562.807 145.149Z" fill="#FFCEA9"/>
<path d="M599.98 114.473L609.784 134.101C609.784 134.101 624.645 155.888 609.252 211.87L612.067 229.1C612.067 229.1 582.906 247.831 563.396 229.1C563.396 229.1 556.631 177.367 560.23 153.504C562.228 139.782 565.267 126.233 569.32 112.973C569.32 112.973 574.097 118.258 598.733 114.767" fill="#707070"/>
<path d="M617.459 87.5681C617.459 87.5681 610.694 94.3117 602.668 93.4705L598.817 80.3478C598.817 80.3478 596.31 73.478 602.164 70.5338C608.019 67.5896 614.097 74.1229 617.459 87.5681Z" fill="#EDEDED"/>
<path d="M577.22 63.3143C577.22 63.3143 569.474 60.959 561.253 78.1195L564.32 79.9841C564.32 79.9841 572.416 67.7306 577.22 63.3143Z" fill="#EDEDED"/>
<path opacity="0.4" d="M55.7583 471.759C86.5527 471.759 111.517 457.328 111.517 439.527C111.517 421.726 86.5527 407.295 55.7583 407.295C24.9638 407.295 0 421.726 0 439.527C0 457.328 24.9638 471.759 55.7583 471.759Z" fill="#D6D8E5"/>
<path d="M27.1575 429.63C31.1493 432.882 37.0318 429.91 37.326 430.204C42.0147 434.559 46.9333 438.658 52.0604 442.486C54.5395 444.449 58.4191 447.056 57.6628 450.828C56.4023 457.557 45.6456 455.482 41.5838 453.422C37.522 451.361 34.2026 447.954 30.3789 445.57C27.5777 443.86 24.9306 442.977 24.5104 439.514C24.2863 437.425 26.4432 429.545 27.1575 429.63Z" fill="#38226D"/>
<path d="M24.6088 438.111C25.127 441.434 27.7882 442.317 30.5194 444.042C34.4131 446.467 37.8586 449.972 41.9203 452.033C45.674 453.926 55.03 455.819 57.6632 451.01C56.2626 457.501 45.66 455.468 41.6402 453.421C37.6205 451.374 34.259 447.953 30.4353 445.57C27.6341 443.86 24.987 442.976 24.5668 439.513C24.5287 439.046 24.5428 438.576 24.6088 438.111Z" fill="#6E628C"/>
<path d="M61.795 416.745C65.7727 419.997 72.7618 416.436 72.9999 416.745C77.1574 420.952 81.5482 424.921 86.1516 428.634C88.6447 430.597 92.5244 433.204 91.754 436.976C90.4935 443.705 79.7368 441.63 75.675 439.569C71.6133 437.508 68.2938 434.102 64.4702 431.718C61.6689 430.008 59.0358 429.124 58.6156 425.661C58.4475 423.572 61.0807 416.661 61.795 416.745Z" fill="#38226D"/>
<path d="M58.8257 424.807C59.3579 428.129 62.0191 429.013 64.7363 430.737C68.644 433.163 72.0895 436.668 76.1372 438.728C79.8909 440.621 89.2609 442.514 91.8941 437.705C90.4935 444.196 79.8768 442.163 75.8571 440.116C71.8373 438.07 68.4899 434.649 64.6522 432.265C61.921 430.555 59.2178 429.672 58.7977 426.209C58.7537 425.742 58.7631 425.271 58.8257 424.807Z" fill="#6E628C"/>
<path d="M26.9195 282.167C27.1156 288.209 28.9924 314.413 29.8328 328.335C30.6731 342.257 30.8692 359.179 30.8692 359.179C30.8692 359.179 28.4742 369.301 26.9195 381.19C25.3648 393.079 26.9195 430.611 26.9195 430.611C28.445 431.59 30.2193 432.111 32.0317 432.111C33.8441 432.111 35.6184 431.59 37.1439 430.611C37.1439 430.611 43.5307 400.58 46.486 387.051C49.4413 373.521 49.9595 365.712 51.5002 357.328C53.349 347.178 57.3547 299.846 57.3547 299.846L58.9514 299.944L63.1533 353.403C61.8401 357.341 60.9389 361.405 60.4641 365.53C59.3016 374.236 61.6826 418.049 61.6826 418.049C63.388 418.998 65.3215 419.458 67.271 419.379C69.2205 419.299 71.1105 418.684 72.7334 417.6C72.7334 417.6 83.4061 359.571 83.4061 350.739C83.4061 344.906 82.4117 267.895 82.4117 267.895L26.9195 282.167Z" fill="#707070"/>
<path d="M41.3877 165.437C41.3877 165.437 42.074 178.601 41.7799 179.765C41.4858 180.929 35.7292 184.798 34.0625 186.186C32.3958 187.574 43.1665 198.201 48.3908 200.599C53.615 202.996 70.2263 196.673 70.5204 188.513C70.8145 180.354 67.7192 173.498 65.1281 173.091C62.5369 172.685 41.3877 165.437 41.3877 165.437Z" fill="#FFCEA9"/>
<path d="M77.4256 189.859C78.196 184.055 74.3723 178.531 78.0839 173.904C91.0676 186.648 89.4149 220.381 92.3702 241.957C102.006 252.052 121.391 261.992 126.853 264.389C127.848 264.838 128.702 265.315 128.506 266.394C127.722 270.6 126.503 272.199 123.996 276.208C111.166 270.67 101.922 267.488 85.8993 252.248C84.3794 250.605 83.0193 248.821 81.8376 246.92C77.2576 233.293 76.1091 199.883 77.4256 189.859Z" fill="#FFCEA9"/>
<path d="M39.9174 182.036C39.9174 182.036 49.4696 196.281 62.7894 197.683C66.9912 193.477 67.3694 178.784 61.5568 174.073C61.5568 174.073 66.9072 169.755 70.5627 170.596C74.4883 172.978 77.4114 176.712 78.7843 181.097C82.1732 190.895 83.7628 201.226 83.4764 211.59C83.2523 225.61 83.4764 268.259 83.4764 268.259C83.4764 268.259 81.6136 277.288 69.5683 284.004C57.5231 290.719 48.5592 291.378 40.3936 289.472C33.6427 287.901 28.0682 285.518 25.7572 280.625C26.3595 270.811 30.7294 245.267 29.0907 232.957C27.452 220.647 24.8888 211.436 24.1885 201.482C23.4882 191.528 25.5051 191.668 30.4913 188.177C33.4836 185.909 36.6336 183.856 39.9174 182.036Z" fill="#F4F4F4"/>
<path d="M71.165 145.808C69.5963 135.587 62.2431 127.834 51.7105 128.423C46.3302 128.723 41.2893 131.15 37.6962 135.17C34.1032 139.19 32.2521 144.474 32.5502 149.86C32.7224 152.963 33.6098 155.984 35.1431 158.686C36.6764 161.388 38.8138 163.698 41.388 165.436C41.7567 166.986 42.3067 168.487 43.0267 169.908C46.7384 174.268 58.0133 176.918 61.2347 176.498C65.4365 175.909 67.6495 174.17 69.6383 169.628C73.1259 161.566 72.0334 150.841 71.165 145.808Z" fill="#FFCEA9"/>
<path d="M41.388 165.436L42.3545 156.519C42.3545 156.519 35.0153 137.621 52.2848 141.252C63.6297 143.635 66.487 144.673 69.9465 137.046C73.406 129.419 61.2067 122.563 46.7384 124.428C41.7548 124.954 37.1499 127.333 33.8352 131.095C30.5204 134.857 28.7373 139.728 28.8386 144.743C29.2167 150.393 30.7154 161.749 41.388 165.436Z" fill="black"/>
<path d="M21.2472 195.537C26.2334 194.135 22.4377 195.298 26.2334 194.135C39.217 206.893 37.6063 228.736 40.5476 250.327C47.7187 262.188 74.3303 278.269 74.3303 278.269C74.6665 280.568 73.8541 281.241 70.9828 285.882C58.1673 280.344 47.4246 275.563 31.4016 260.337C30.7713 259.734 29.8469 259.58 29.5808 258.753C25.0008 244.971 19.9166 205.575 21.2472 195.537Z" fill="#FFCEA9"/>
<path d="M139.655 222.133L120.313 288.335L77.874 305.313L93.3508 240.821L139.655 222.133Z" fill="#F4F4F4"/>
<path d="M67.6355 278.718C68.2657 276.461 69.9045 277.021 71.7393 277.582C73.7291 278.389 75.9149 278.579 78.014 278.129C79.7648 277.582 81.0253 276.082 82.5099 275.087C83.359 274.58 84.3234 274.301 85.3112 274.273C85.2271 274.848 84.3447 278.213 84.3447 278.213C84.3447 278.213 93.6448 278.311 94.5972 278.115C94.9126 278.072 95.2335 278.126 95.5174 278.27C95.8013 278.414 96.0347 278.641 96.1866 278.921C96.3386 279.201 96.4019 279.52 96.3682 279.837C96.3345 280.154 96.2053 280.453 95.9978 280.695L96.6281 280.596C98.5329 280.176 99.3453 283.092 97.4264 283.527C96.9222 283.639 96.404 283.695 95.8718 283.765C97.1183 284.242 97.4264 286.303 95.8718 286.569L95.3956 286.653C95.1768 286.736 94.9425 286.77 94.7093 286.751H94.4151C94.4593 286.974 94.4576 287.203 94.4103 287.425C94.363 287.647 94.2709 287.856 94.1398 288.041C94.0088 288.226 93.8414 288.383 93.6479 288.501C93.4544 288.619 93.2389 288.696 93.0145 288.728C88.4766 289.331 81.8096 291.14 77.6919 287.396C74.8423 287.115 72.0592 286.361 69.4563 285.167C66.9492 283.975 66.8791 281.424 67.6355 278.718Z" fill="#FFCEA9"/>
<path d="M114.066 273.306H114.696C114.445 273.109 114.259 272.84 114.165 272.535C114.07 272.23 114.071 271.903 114.167 271.599C114.263 271.294 114.449 271.026 114.702 270.83C114.954 270.634 115.259 270.52 115.578 270.502C116.559 270.502 126.125 268.497 126.125 268.497L127.273 264.558C127.273 264.334 128.94 265.343 128.996 265.385C129.806 265.916 130.486 266.623 130.985 267.453C131.485 268.283 131.791 269.215 131.881 270.18C131.928 271.536 131.704 272.888 131.223 274.156C130.742 275.425 130.014 276.585 129.08 277.568C127.361 279.305 125.037 280.31 122.595 280.372C121.433 280.443 120.312 280.499 119.318 280.583C119.098 280.583 118.88 280.539 118.677 280.454C118.474 280.37 118.289 280.246 118.134 280.089C117.979 279.933 117.857 279.747 117.774 279.543C117.691 279.339 117.649 279.121 117.651 278.9H117.357C117.131 278.953 116.896 278.953 116.671 278.9H116.18C114.556 278.9 114.43 276.881 115.536 276.096C115.018 276.096 114.486 276.194 113.967 276.194C111.937 276.321 112.049 273.292 114.066 273.306Z" fill="#FFCEA9"/>
<path d="M82.8459 198.495C82.8459 198.495 87.748 198.243 89.7789 195.383C89.4007 190.49 83.14 171.913 70.5625 170.525C73.991 172.929 76.7099 176.213 78.4339 180.031C80.7169 185.625 82.8459 198.495 82.8459 198.495Z" fill="#EDEDED"/>
<path d="M18.9781 223.044C18.9781 223.044 31.4996 227.362 40.3234 220.1C41.2898 218.432 35.2112 197.107 35.2112 197.107C35.2112 197.107 29.9589 186.2 21.7373 190.532C13.5157 194.864 18.9781 223.044 18.9781 223.044Z" fill="#EDEDED"/>
<path opacity="0.4" d="M146.644 566.703C150.635 566.703 153.871 564.832 153.871 562.525C153.871 560.217 150.635 558.347 146.644 558.347C142.652 558.347 139.417 560.217 139.417 562.525C139.417 564.832 142.652 566.703 146.644 566.703Z" fill="#D6D8E5"/>
<path opacity="0.4" d="M281.999 643.966C285.99 643.966 289.226 642.096 289.226 639.788C289.226 637.481 285.99 635.61 281.999 635.61C278.007 635.61 274.771 637.481 274.771 639.788C274.771 642.096 278.007 643.966 281.999 643.966Z" fill="#D6D8E5"/>
<path opacity="0.4" d="M516.615 500.739C520.606 500.739 523.842 498.868 523.842 496.561C523.842 494.253 520.606 492.383 516.615 492.383C512.623 492.383 509.388 494.253 509.388 496.561C509.388 498.868 512.623 500.739 516.615 500.739Z" fill="#D6D8E5"/>
<path d="M141.938 421.034V561.683C141.97 562.117 142.117 562.536 142.363 562.895C142.609 563.255 142.945 563.543 143.339 563.73C144.438 564.29 145.655 564.582 146.889 564.582C148.123 564.582 149.34 564.29 150.44 563.73C150.832 563.542 151.168 563.253 151.414 562.894C151.66 562.535 151.807 562.117 151.84 561.683V421.034H141.938Z" fill="#C1C4D3"/>
<path d="M277.615 475.769V639.003C277.639 639.426 277.768 639.836 277.99 640.196C278.213 640.556 278.522 640.855 278.889 641.064C279.831 641.622 280.905 641.916 281.999 641.916C283.093 641.916 284.166 641.622 285.108 641.064C285.477 640.855 285.788 640.557 286.013 640.197C286.238 639.838 286.37 639.427 286.397 639.003V475.769H277.615Z" fill="#C1C4D3"/>
<path d="M512.217 362.389V495.495C512.242 495.917 512.374 496.326 512.599 496.684C512.824 497.042 513.136 497.337 513.506 497.541C514.445 498.099 515.516 498.394 516.608 498.394C517.7 498.394 518.772 498.099 519.711 497.541C520.08 497.337 520.392 497.042 520.618 496.684C520.843 496.326 520.974 495.917 520.999 495.495V362.389H512.217Z" fill="#C1C4D3"/>
<path d="M281.999 517.661L133.17 431.648V421.596L281.999 507.622V517.661Z" fill="#1C70B8" fill-opacity="0.7"/>
<path d="M532.932 362.894L281.971 507.93L133.128 421.918L384.089 276.881L532.932 362.894Z" fill="#357ECE"/>
<path d="M532.96 372.623L281.999 517.66V507.622L532.96 362.585V372.623Z" fill="#1C70B8" fill-opacity="0.7"/>
<path d="M461.333 333.956L421.318 367.506L384.762 352.94L424.777 319.39L461.333 333.956Z" fill="#F4F4F4"/>
<path d="M452.047 335.513L402.199 364.324L370.812 346.182L420.659 317.371L452.047 335.513Z" fill="#F4F4F4"/>
<path d="M405.533 356.543L402.479 358.31L381.778 346.35L384.832 344.584L405.533 356.543Z" fill="#D6D8E5"/>
<path d="M412.396 352.575L409.342 354.342L388.655 342.383L391.709 340.616L412.396 352.575Z" fill="#D6D8E5"/>
<path d="M419.006 348.762L415.953 350.514L395.266 338.569L398.319 336.803L419.006 348.762Z" fill="#D6D8E5"/>
<path d="M434.525 339.789L431.472 341.555L419.427 334.601L422.48 332.835L434.525 339.789Z" fill="#D6D8E5"/>
<path d="M441.136 335.976L438.083 337.728L426.038 330.774L429.091 329.008L441.136 335.976Z" fill="#D6D8E5"/>
<path d="M407.844 362.137C408.67 361.786 452.047 335.499 452.047 335.499L406.737 361.716L407.844 362.137Z" fill="#D6D6D6"/>
<path opacity="0.2" d="M414.931 402.724C420.933 402.724 425.799 399.912 425.799 396.443C425.799 392.974 420.933 390.162 414.931 390.162C408.928 390.162 404.062 392.974 404.062 396.443C404.062 399.912 408.928 402.724 414.931 402.724Z" fill="black"/>
<path d="M426.864 395.546V378.792L405.169 379.339V394.761C404.762 396.611 405.785 398.56 408.264 399.99C410.65 401.207 413.29 401.841 415.967 401.841C418.645 401.841 421.285 401.207 423.671 399.99C424.55 399.602 425.31 398.985 425.872 398.203C426.433 397.422 426.776 396.504 426.864 395.546Z" fill="#A6CE28"/>
<path d="M415.995 385.074C421.998 385.074 426.864 382.262 426.864 378.793C426.864 375.324 421.998 372.512 415.995 372.512C409.993 372.512 405.126 375.324 405.126 378.793C405.126 382.262 409.993 385.074 415.995 385.074Z" fill="#BCD64D"/>
<path d="M425.141 378.792C425.141 379.816 424.301 380.895 422.816 381.737C420.93 382.744 418.833 383.292 416.696 383.335H415.981C413.608 383.385 411.261 382.83 409.16 381.722C407.69 380.881 406.835 379.802 406.835 378.778C406.835 377.755 407.69 376.689 409.16 375.834C411.261 374.727 413.608 374.172 415.981 374.222H416.682C418.819 374.265 420.916 374.812 422.802 375.82C424.301 376.703 425.141 377.769 425.141 378.792Z" fill="#28221C"/>
<path opacity="0.07" d="M425.141 378.792C425.141 379.816 424.301 380.895 422.816 381.736C420.942 382.78 418.833 383.328 416.689 383.328C414.544 383.328 412.435 382.78 410.561 381.736C409.09 380.895 408.236 379.816 408.236 378.792C408.236 377.769 409.09 376.703 410.561 375.848C412.435 374.804 414.544 374.257 416.689 374.257C418.833 374.257 420.942 374.804 422.816 375.848C424.301 376.703 425.141 377.769 425.141 378.792Z" fill="white"/>
<path d="M425.281 386.546L422.97 385.214L421.85 385.873L422.97 386.518V386.938L425.127 388.186V388.593C425.646 389.336 426.114 390.113 426.528 390.92L426.612 390.85V396.248C426.612 397.65 425.785 397.187 425.421 396.977L422.998 395.575L421.878 396.234L422.998 396.878V397.299L425.421 398.701C425.673 398.849 425.941 398.966 426.22 399.052L426.065 399.739L427.326 399.024C427.594 398.796 427.801 398.505 427.928 398.176C428.055 397.848 428.098 397.494 428.054 397.145V391.537C428.001 390.549 427.723 389.586 427.243 388.721C426.762 387.856 426.091 387.112 425.281 386.546Z" fill="#8DA01F"/>
<path d="M424.273 399.36L421.85 397.958V396.233L424.273 397.635C424.623 397.831 425.463 398.308 425.463 396.892V391.284C425.422 390.807 425.275 390.346 425.032 389.934C424.79 389.521 424.459 389.168 424.063 388.901L421.864 387.625V385.9L424.175 387.232C424.981 387.789 425.652 388.52 426.137 389.372C426.622 390.224 426.909 391.175 426.976 392.153V397.761C426.948 399.276 426.248 400.495 424.273 399.36Z" fill="#99B524"/>
<path opacity="0.2" d="M200.511 425.325C206.514 425.325 211.38 422.513 211.38 419.044C211.38 415.575 206.514 412.763 200.511 412.763C194.509 412.763 189.643 415.575 189.643 419.044C189.643 422.513 194.509 425.325 200.511 425.325Z" fill="black"/>
<path d="M212.444 418.146V401.393L190.749 401.939V417.361C190.343 419.226 191.379 421.175 193.844 422.591C196.23 423.807 198.87 424.441 201.548 424.441C204.225 424.441 206.865 423.807 209.251 422.591C210.132 422.204 210.892 421.587 211.454 420.805C212.016 420.024 212.358 419.105 212.444 418.146Z" fill="#F7B03E"/>
<path d="M201.576 407.673C207.578 407.673 212.444 404.861 212.444 401.392C212.444 397.923 207.578 395.111 201.576 395.111C195.573 395.111 190.707 397.923 190.707 401.392C190.707 404.861 195.573 407.673 201.576 407.673Z" fill="#FCC068"/>
<path d="M210.722 401.392C210.722 402.416 209.867 403.481 208.397 404.337C206.508 405.337 204.412 405.884 202.276 405.935H201.576C199.202 405.985 196.855 405.43 194.755 404.323C193.27 403.467 192.43 402.402 192.43 401.379C192.43 400.355 193.27 399.275 194.755 398.42C196.856 397.318 199.203 396.768 201.576 396.822H202.276C204.412 396.862 206.509 397.405 208.397 398.406C209.867 399.29 210.722 400.369 210.722 401.392Z" fill="#28221C"/>
<path opacity="0.07" d="M210.722 401.392C210.722 402.416 209.867 403.481 208.397 404.336C206.523 405.38 204.414 405.928 202.269 405.928C200.125 405.928 198.015 405.38 196.141 404.336C194.741 403.481 193.816 402.416 193.816 401.392C193.816 400.369 194.671 399.289 196.141 398.434C198.015 397.39 200.125 396.843 202.269 396.843C204.414 396.843 206.523 397.39 208.397 398.434C209.867 399.289 210.722 400.369 210.722 401.392Z" fill="white"/>
<path d="M210.848 409.145L208.551 407.813L207.417 408.458L208.551 409.117V409.538L210.708 410.786L210.638 411.192C211.161 411.933 211.629 412.711 212.039 413.52L212.109 413.45V418.847C212.109 420.249 211.282 419.787 210.932 419.576L208.509 418.174L207.375 418.819L208.509 419.478V419.899L210.932 421.301C211.179 421.448 211.442 421.565 211.716 421.651L211.576 422.338L212.837 421.623C213.11 421.396 213.322 421.104 213.452 420.773C213.582 420.442 213.625 420.083 213.579 419.73V414.122C213.528 413.14 213.256 412.183 212.783 411.321C212.31 410.459 211.649 409.715 210.848 409.145Z" fill="#C9883A"/>
<path d="M209.854 422.002L207.417 420.6V418.861L209.854 420.263C210.204 420.473 211.03 420.95 211.03 419.534V413.926C210.983 413.449 210.834 412.988 210.592 412.574C210.35 412.16 210.022 411.803 209.629 411.529L207.417 410.267V408.528L209.728 409.93C210.535 410.486 211.206 411.217 211.691 412.07C212.176 412.922 212.463 413.873 212.529 414.851V420.459C212.529 421.875 211.828 423.095 209.854 422.002Z" fill="#E09C3B"/>
<path opacity="0.2" d="M339.256 377.545L307.042 358.913C306.762 358.747 306.442 358.66 306.117 358.66C305.792 358.66 305.473 358.747 305.193 358.913L248.636 391.607L281.761 410.787L339.256 377.545Z" fill="black"/>
<path d="M340.783 373.886L308.569 355.253C308.288 355.088 307.969 355.001 307.644 355.001C307.319 355.001 307 355.088 306.72 355.253L250.163 387.948L283.33 407.113L340.783 373.886Z" fill="#F4F4F4"/>
<path d="M281.803 400.258L279.337 401.66C279.141 401.786 279.169 401.982 279.337 402.122L281.69 403.524C281.812 403.586 281.946 403.618 282.083 403.618C282.219 403.618 282.353 403.586 282.475 403.524L284.926 402.122C285.122 402.01 285.108 401.814 284.926 401.674L282.587 400.272C282.465 400.211 282.332 400.178 282.196 400.176C282.061 400.174 281.926 400.201 281.803 400.258Z" fill="#2B303F"/>
<path d="M285.276 398.252L282.825 399.654C282.615 399.767 282.643 399.977 282.825 400.103L285.164 401.505C285.286 401.564 285.42 401.594 285.556 401.594C285.692 401.594 285.826 401.564 285.948 401.505L288.399 400.103C288.61 399.991 288.582 399.781 288.399 399.654L286.06 398.252C285.94 398.187 285.805 398.153 285.668 398.153C285.531 398.153 285.397 398.187 285.276 398.252Z" fill="#2B303F"/>
<path d="M288.792 396.22L286.341 397.622C286.145 397.734 286.159 397.945 286.341 398.071L288.68 399.473C288.802 399.531 288.936 399.562 289.072 399.562C289.207 399.562 289.341 399.531 289.464 399.473L291.929 398.071C292.125 397.959 292.097 397.748 291.929 397.622L289.576 396.22C289.455 396.155 289.321 396.121 289.184 396.121C289.047 396.121 288.912 396.155 288.792 396.22Z" fill="#2B303F"/>
<path d="M292.237 394.229L289.772 395.631C289.576 395.743 289.604 395.953 289.772 396.079L292.125 397.481C292.246 397.546 292.38 397.58 292.517 397.58C292.654 397.58 292.789 397.546 292.909 397.481L295.36 396.079C295.571 395.967 295.543 395.757 295.36 395.631L293.021 394.229C292.899 394.17 292.765 394.14 292.629 394.14C292.494 394.14 292.36 394.17 292.237 394.229Z" fill="#2B303F"/>
<path d="M295.711 392.21L293.26 393.612C293.063 393.724 293.077 393.921 293.26 394.061L295.599 395.463C295.721 395.521 295.855 395.552 295.991 395.552C296.126 395.552 296.26 395.521 296.383 395.463L298.848 394.061C299.044 393.935 299.016 393.738 298.848 393.598L296.495 392.196C296.372 392.137 296.237 392.107 296.101 392.11C295.965 392.112 295.831 392.146 295.711 392.21Z" fill="#2B303F"/>
<path d="M299.198 390.205L296.733 391.607C296.537 391.733 296.565 391.93 296.733 392.07L299.086 393.472C299.206 393.537 299.341 393.571 299.478 393.571C299.615 393.571 299.75 393.537 299.87 393.472L302.321 392.07C302.517 391.958 302.503 391.747 302.321 391.621L299.982 390.219C299.861 390.158 299.728 390.126 299.592 390.123C299.456 390.121 299.322 390.149 299.198 390.205Z" fill="#2B303F"/>
<path d="M302.672 388.201L300.22 389.603C300.01 389.715 300.038 389.925 300.22 390.051L302.559 391.453C302.682 391.512 302.816 391.542 302.952 391.542C303.087 391.542 303.221 391.512 303.344 391.453L305.795 390.051C306.005 389.939 305.977 389.729 305.795 389.603L303.456 388.201C303.335 388.136 303.201 388.102 303.064 388.102C302.927 388.102 302.792 388.136 302.672 388.201Z" fill="#2B303F"/>
<path d="M306.145 386.182L303.694 387.584C303.498 387.71 303.512 387.906 303.694 388.046L306.033 389.448C306.155 389.51 306.289 389.542 306.425 389.542C306.562 389.542 306.696 389.51 306.817 389.448L309.283 388.046C309.479 387.934 309.451 387.738 309.283 387.598L306.93 386.196C306.808 386.135 306.675 386.102 306.539 386.1C306.403 386.097 306.269 386.125 306.145 386.182Z" fill="#2B303F"/>
<path d="M309.633 384.149L307.168 385.551C306.971 385.663 306.999 385.873 307.168 386L309.521 387.402C309.642 387.463 309.776 387.495 309.913 387.495C310.049 387.495 310.183 387.463 310.305 387.402L312.756 386C312.966 385.887 312.938 385.677 312.756 385.551L310.417 384.149C310.296 384.084 310.162 384.05 310.025 384.05C309.888 384.05 309.753 384.084 309.633 384.149Z" fill="#2B303F"/>
<path d="M313.106 382.157L310.655 383.559C310.459 383.672 310.473 383.868 310.655 384.008L312.994 385.41C313.117 385.469 313.251 385.499 313.386 385.499C313.522 385.499 313.656 385.469 313.778 385.41L316.243 384.008C316.44 383.882 316.412 383.686 316.243 383.545L313.89 382.144C313.768 382.084 313.633 382.054 313.497 382.057C313.36 382.059 313.227 382.094 313.106 382.157Z" fill="#2B303F"/>
<path d="M316.538 380.152L314.073 381.554C313.877 381.667 313.905 381.877 314.073 382.003L316.426 383.405C316.546 383.47 316.681 383.504 316.818 383.504C316.955 383.504 317.09 383.47 317.21 383.405L319.661 382.003C319.857 381.891 319.843 381.681 319.661 381.554L317.322 380.152C317.2 380.094 317.066 380.063 316.93 380.063C316.794 380.063 316.66 380.094 316.538 380.152Z" fill="#2B303F"/>
<path d="M320.068 378.134L317.616 379.536C317.406 379.648 317.434 379.845 317.616 379.985L319.956 381.387C320.078 381.445 320.212 381.476 320.348 381.476C320.483 381.476 320.617 381.445 320.74 381.387L323.191 379.985C323.401 379.859 323.373 379.662 323.191 379.522L320.852 378.12C320.729 378.061 320.594 378.031 320.458 378.033C320.322 378.036 320.188 378.07 320.068 378.134Z" fill="#2B303F"/>
<path d="M323.541 376.129L321.09 377.531C320.894 377.657 320.908 377.853 321.09 377.994L323.429 379.396C323.55 379.457 323.685 379.489 323.821 379.489C323.957 379.489 324.091 379.457 324.213 379.396L326.678 377.994C326.874 377.881 326.846 377.685 326.678 377.545L324.325 376.143C324.204 376.082 324.07 376.049 323.934 376.047C323.799 376.045 323.664 376.073 323.541 376.129Z" fill="#2B303F"/>
<path d="M328.709 373.157L324.507 375.54C324.311 375.652 324.339 375.863 324.507 375.989L326.86 377.391C326.983 377.449 327.117 377.48 327.253 377.48C327.388 377.48 327.522 377.449 327.645 377.391L331.847 375.007C332.043 374.895 332.015 374.685 331.847 374.559L329.494 373.157C329.374 373.089 329.239 373.054 329.101 373.054C328.964 373.054 328.829 373.089 328.709 373.157Z" fill="#2B303F"/>
<path d="M283.581 395.365L281.13 396.767C280.934 396.879 280.948 397.075 281.13 397.215L283.469 398.617C283.592 398.676 283.726 398.706 283.861 398.706C283.997 398.706 284.131 398.676 284.253 398.617L286.719 397.215C286.915 397.089 286.887 396.893 286.719 396.753L284.324 395.365C284.207 395.31 284.081 395.281 283.952 395.281C283.824 395.281 283.697 395.31 283.581 395.365Z" fill="#2B303F"/>
<path d="M287.125 393.318L284.674 394.72C284.464 394.832 284.492 395.042 284.674 395.168L287.013 396.57C287.136 396.629 287.27 396.659 287.405 396.659C287.541 396.659 287.675 396.629 287.797 396.57L290.263 395.168C290.459 395.056 290.431 394.846 290.263 394.72L287.91 393.318C287.789 393.253 287.654 393.219 287.517 393.219C287.38 393.219 287.246 393.253 287.125 393.318Z" fill="#2B303F"/>
<path d="M290.556 391.299L288.105 392.701C287.895 392.827 287.923 393.023 288.105 393.163L290.444 394.565C290.566 394.627 290.7 394.659 290.836 394.659C290.973 394.659 291.107 394.627 291.229 394.565L293.68 393.163C293.89 393.051 293.862 392.841 293.68 392.715L291.341 391.313C291.219 391.252 291.086 391.219 290.95 391.217C290.814 391.215 290.68 391.242 290.556 391.299Z" fill="#2B303F"/>
<path d="M294.044 389.28L291.579 390.682C291.383 390.794 291.411 390.99 291.579 391.13L293.932 392.532C294.055 392.591 294.189 392.621 294.324 392.621C294.46 392.621 294.594 392.591 294.717 392.532L297.168 391.13C297.364 391.004 297.35 390.808 297.168 390.668L294.829 389.266C294.706 389.206 294.571 389.176 294.435 389.179C294.298 389.181 294.165 389.216 294.044 389.28Z" fill="#2B303F"/>
<path d="M297.504 387.289L295.039 388.691C294.843 388.803 294.871 389.014 295.039 389.14L297.392 390.542C297.512 390.607 297.647 390.641 297.784 390.641C297.921 390.641 298.055 390.607 298.176 390.542L300.627 389.14C300.823 389.028 300.809 388.817 300.627 388.691L298.288 387.289C298.166 387.231 298.032 387.2 297.896 387.2C297.76 387.2 297.626 387.231 297.504 387.289Z" fill="#2B303F"/>
<path d="M300.991 385.27L298.526 386.672C298.33 386.798 298.358 386.995 298.526 387.135L300.879 388.537C300.998 388.598 301.13 388.63 301.264 388.63C301.398 388.63 301.53 388.598 301.649 388.537L304.114 387.135C304.31 387.023 304.282 386.826 304.114 386.686L301.761 385.284C301.642 385.224 301.511 385.191 301.378 385.189C301.244 385.186 301.112 385.214 300.991 385.27Z" fill="#2B303F"/>
<path d="M304.465 383.251L302.013 384.653C301.817 384.765 301.831 384.962 302.013 385.102L304.352 386.504C304.475 386.562 304.609 386.593 304.745 386.593C304.88 386.593 305.014 386.562 305.137 386.504L307.602 385.102C307.798 384.976 307.77 384.779 307.602 384.639L305.249 383.237C305.126 383.178 304.991 383.148 304.855 383.151C304.719 383.153 304.585 383.187 304.465 383.251Z" fill="#2B303F"/>
<path d="M307.952 381.246L305.501 382.648C305.291 382.76 305.319 382.971 305.501 383.097L307.84 384.499C307.96 384.564 308.095 384.598 308.232 384.598C308.369 384.598 308.504 384.564 308.624 384.499L311.075 383.097C311.285 382.985 311.257 382.774 311.075 382.648L308.736 381.246C308.614 381.188 308.48 381.157 308.344 381.157C308.208 381.157 308.074 381.188 307.952 381.246Z" fill="#2B303F"/>
<path d="M311.44 379.228L308.989 380.63C308.778 380.756 308.806 380.952 308.989 381.092L311.328 382.494C311.449 382.556 311.583 382.588 311.72 382.588C311.856 382.588 311.99 382.556 312.112 382.494L314.563 381.092C314.773 380.98 314.745 380.784 314.563 380.644L312.224 379.242C312.103 379.181 311.969 379.148 311.833 379.146C311.698 379.143 311.563 379.171 311.44 379.228Z" fill="#2B303F"/>
<path d="M314.927 377.208L312.462 378.61C312.266 378.722 312.294 378.919 312.462 379.059L314.815 380.461C314.937 380.519 315.071 380.55 315.207 380.55C315.343 380.55 315.477 380.519 315.599 380.461L318.05 379.059C318.246 378.933 318.232 378.736 318.05 378.596L315.711 377.194C315.589 377.135 315.454 377.105 315.318 377.108C315.181 377.11 315.048 377.144 314.927 377.208Z" fill="#2B303F"/>
<path d="M318.415 375.204L315.95 376.606C315.754 376.718 315.782 376.929 315.95 377.055L318.303 378.457C318.423 378.522 318.558 378.556 318.695 378.556C318.832 378.556 318.967 378.522 319.087 378.457L321.538 377.055C321.734 376.943 321.72 376.732 321.538 376.606L319.199 375.204C319.077 375.146 318.943 375.115 318.807 375.115C318.671 375.115 318.537 375.146 318.415 375.204Z" fill="#2B303F"/>
<path d="M321.902 373.185L319.437 374.587C319.241 374.713 319.269 374.91 319.437 375.05L321.776 376.452C321.898 376.514 322.032 376.546 322.168 376.546C322.304 376.546 322.439 376.514 322.56 376.452L325.025 375.05C325.222 374.938 325.194 374.741 325.025 374.601L322.672 373.199C322.553 373.139 322.422 373.106 322.289 373.104C322.155 373.101 322.023 373.129 321.902 373.185Z" fill="#2B303F"/>
<path d="M280.122 397.341L275.92 399.725C275.724 399.851 275.752 400.047 275.92 400.187L278.273 401.589C278.395 401.651 278.529 401.683 278.665 401.683C278.801 401.683 278.936 401.651 279.057 401.589L283.189 399.192C283.385 399.08 283.357 398.869 283.189 398.743L280.836 397.341C280.724 397.291 280.602 397.266 280.479 397.266C280.356 397.266 280.234 397.291 280.122 397.341Z" fill="#2B303F"/>
<path d="M328.541 373.017L326.076 374.419C325.963 374.474 325.838 374.503 325.712 374.503C325.586 374.503 325.461 374.474 325.348 374.419L322.869 373.017C322.673 372.905 322.673 372.722 322.869 372.596L323.065 372.484C323.247 372.386 323.247 372.204 323.065 372.091L320.446 370.591C320.236 370.465 320.236 370.283 320.446 370.157L322.014 369.259C322.128 369.204 322.252 369.175 322.378 369.175C322.505 369.175 322.629 369.204 322.743 369.259L325.194 370.661L325.698 370.956L326.062 371.166L326.44 371.377L328.541 372.596C328.737 372.722 328.737 372.933 328.541 373.017Z" fill="#2B303F"/>
<path d="M268.329 392.448L265.864 393.85C265.668 393.963 265.696 394.159 265.864 394.299L268.217 395.701C268.337 395.759 268.469 395.79 268.602 395.79C268.735 395.79 268.867 395.759 268.987 395.701L271.452 394.299C271.648 394.173 271.62 393.977 271.452 393.836L269.099 392.434C268.979 392.375 268.846 392.345 268.712 392.348C268.578 392.35 268.447 392.385 268.329 392.448Z" fill="#2B303F"/>
<path d="M271.788 390.444L269.337 391.846C269.141 391.958 269.155 392.154 269.337 392.294L271.676 393.696C271.799 393.755 271.933 393.785 272.068 393.785C272.204 393.785 272.338 393.755 272.461 393.696L274.926 392.294C275.122 392.168 275.094 391.972 274.926 391.832L272.573 390.43C272.45 390.37 272.315 390.34 272.179 390.343C272.042 390.345 271.909 390.38 271.788 390.444Z" fill="#2B303F"/>
<path d="M275.262 388.439L272.811 389.841C272.601 389.953 272.629 390.149 272.811 390.289L275.15 391.691C275.272 391.75 275.406 391.78 275.542 391.78C275.678 391.78 275.812 391.75 275.934 391.691L278.385 390.289C278.595 390.163 278.567 389.967 278.385 389.827L276.046 388.425C275.924 388.365 275.789 388.336 275.652 388.338C275.516 388.34 275.382 388.375 275.262 388.439Z" fill="#2B303F"/>
<path d="M304.8 371.376L302.349 372.778C302.153 372.891 302.167 373.101 302.349 373.227L304.688 374.629C304.811 374.688 304.945 374.718 305.081 374.718C305.216 374.718 305.35 374.688 305.473 374.629L307.938 373.227C308.134 373.115 308.106 372.905 307.938 372.778L305.585 371.376C305.464 371.311 305.33 371.277 305.193 371.277C305.056 371.277 304.921 371.311 304.8 371.376Z" fill="#2B303F"/>
<path d="M308.274 369.372L305.823 370.774C305.613 370.886 305.641 371.096 305.823 371.222L308.162 372.624C308.285 372.683 308.418 372.713 308.554 372.713C308.69 372.713 308.824 372.683 308.946 372.624L311.397 371.222C311.608 371.11 311.58 370.9 311.397 370.774L309.058 369.372C308.938 369.307 308.803 369.272 308.666 369.272C308.529 369.272 308.395 369.307 308.274 369.372Z" fill="#2B303F"/>
<path d="M311.748 367.325L309.283 368.727C309.087 368.839 309.115 369.049 309.283 369.175L311.636 370.577C311.758 370.636 311.892 370.666 312.028 370.666C312.164 370.666 312.298 370.636 312.42 370.577L314.871 369.175C315.067 369.063 315.053 368.853 314.871 368.727L312.532 367.325C312.412 367.26 312.277 367.226 312.14 367.226C312.003 367.226 311.868 367.26 311.748 367.325Z" fill="#2B303F"/>
<path d="M315.207 365.362L312.756 366.764C312.56 366.876 312.574 367.086 312.756 367.212L315.095 368.614C315.218 368.673 315.352 368.703 315.487 368.703C315.623 368.703 315.757 368.673 315.879 368.614L318.345 367.212C318.541 367.1 318.513 366.89 318.345 366.764L315.992 365.362C315.871 365.297 315.736 365.263 315.599 365.263C315.462 365.263 315.328 365.297 315.207 365.362Z" fill="#2B303F"/>
<path d="M279.632 385.929L276.27 387.864C276.074 387.976 276.102 388.172 276.27 388.313L278.623 389.715C278.746 389.773 278.88 389.803 279.015 389.803C279.151 389.803 279.285 389.773 279.407 389.715L282.755 387.78C282.951 387.668 282.923 387.457 282.755 387.331L280.402 385.929C280.284 385.864 280.151 385.83 280.017 385.83C279.882 385.83 279.749 385.864 279.632 385.929Z" fill="#2B303F"/>
<path d="M301.341 373.381L297.98 375.316C297.783 375.428 297.811 375.625 297.98 375.765L300.333 377.167C300.455 377.225 300.589 377.256 300.725 377.256C300.86 377.256 300.994 377.225 301.117 377.167L304.464 375.232C304.66 375.12 304.646 374.91 304.464 374.783L302.125 373.381C302.005 373.316 301.87 373.282 301.733 373.282C301.596 373.282 301.461 373.316 301.341 373.381Z" fill="#2B303F"/>
<path d="M296.929 375.891L280.598 385.34C280.388 385.452 280.416 385.663 280.598 385.789L282.937 387.191C283.059 387.249 283.193 387.28 283.329 387.28C283.465 387.28 283.599 387.249 283.721 387.191L300.066 377.755C300.262 377.629 300.234 377.433 299.996 377.293L297.657 375.891C297.543 375.838 297.419 375.811 297.293 375.811C297.167 375.811 297.043 375.838 296.929 375.891Z" fill="#2B303F"/>
<path d="M281.158 392.827L278.707 394.229C278.497 394.341 278.525 394.538 278.707 394.678L281.046 396.08C281.168 396.141 281.302 396.173 281.438 396.173C281.575 396.173 281.709 396.141 281.831 396.08L284.296 394.678C284.492 394.566 284.464 394.369 284.296 394.229L281.943 392.827C281.821 392.766 281.687 392.733 281.551 392.733C281.414 392.733 281.28 392.766 281.158 392.827Z" fill="#2B303F"/>
<path d="M284.632 390.822L282.181 392.224C281.985 392.35 281.999 392.547 282.181 392.687L284.52 394.089C284.642 394.15 284.776 394.183 284.912 394.183C285.048 394.183 285.183 394.15 285.304 394.089L287.769 392.687C287.965 392.575 287.937 392.378 287.769 392.238L285.416 390.836C285.295 390.776 285.161 390.743 285.026 390.74C284.89 390.738 284.756 390.766 284.632 390.822Z" fill="#2B303F"/>
<path d="M288.106 388.817L285.655 390.219C285.458 390.331 285.472 390.542 285.655 390.668L287.994 392.07C288.114 392.135 288.249 392.169 288.386 392.169C288.523 392.169 288.657 392.135 288.778 392.07L291.243 390.668C291.439 390.556 291.411 390.345 291.243 390.219L288.89 388.817C288.768 388.756 288.634 388.724 288.498 388.724C288.362 388.724 288.227 388.756 288.106 388.817Z" fill="#2B303F"/>
<path d="M291.593 386.812L289.128 388.214C288.932 388.327 288.96 388.537 289.128 388.663L291.481 390.065C291.601 390.123 291.733 390.154 291.866 390.154C292 390.154 292.131 390.123 292.251 390.065L294.716 388.663C294.913 388.537 294.884 388.341 294.716 388.2L292.363 386.798C292.244 386.735 292.111 386.704 291.976 386.706C291.842 386.709 291.71 386.745 291.593 386.812Z" fill="#2B303F"/>
<path d="M295.067 384.793L292.602 386.195C292.406 386.307 292.434 386.503 292.602 386.644L294.955 388.046C295.076 388.107 295.211 388.139 295.347 388.139C295.483 388.139 295.617 388.107 295.739 388.046L298.19 386.644C298.386 386.531 298.372 386.335 298.19 386.195L295.851 384.793C295.729 384.731 295.595 384.699 295.459 384.699C295.323 384.699 295.188 384.731 295.067 384.793Z" fill="#2B303F"/>
<path d="M298.54 382.746L296.075 384.148C295.879 384.274 295.907 384.471 296.075 384.611L298.428 386.013C298.549 386.074 298.684 386.106 298.82 386.106C298.956 386.106 299.091 386.074 299.212 386.013L301.663 384.611C301.859 384.499 301.845 384.302 301.663 384.162L299.324 382.76C299.203 382.699 299.069 382.667 298.934 382.664C298.798 382.662 298.663 382.69 298.54 382.746Z" fill="#2B303F"/>
<path d="M302.013 380.783L299.548 382.185C299.352 382.297 299.38 382.508 299.548 382.634L301.901 384.036C302.022 384.101 302.157 384.135 302.294 384.135C302.43 384.135 302.565 384.101 302.686 384.036L305.137 382.634C305.347 382.522 305.319 382.311 305.137 382.185L302.798 380.783C302.676 380.722 302.542 380.689 302.406 380.689C302.269 380.689 302.135 380.722 302.013 380.783Z" fill="#2B303F"/>
<path d="M305.487 378.765L303.036 380.167C302.826 380.279 302.854 380.475 303.036 380.616L305.375 382.018C305.497 382.076 305.631 382.106 305.767 382.106C305.903 382.106 306.037 382.076 306.159 382.018L308.61 380.616C308.82 380.489 308.792 380.293 308.61 380.153L306.271 378.751C306.149 378.691 306.014 378.662 305.877 378.664C305.741 378.667 305.607 378.701 305.487 378.765Z" fill="#2B303F"/>
<path d="M308.961 376.76L306.51 378.162C306.299 378.274 306.327 378.47 306.51 378.61L308.849 380.012C308.97 380.074 309.104 380.106 309.241 380.106C309.377 380.106 309.511 380.074 309.633 380.012L312.084 378.61C312.294 378.498 312.266 378.302 312.084 378.162L309.745 376.76C309.623 376.698 309.489 376.666 309.353 376.666C309.217 376.666 309.082 376.698 308.961 376.76Z" fill="#2B303F"/>
<path d="M312.434 374.755L309.983 376.157C309.787 376.283 309.801 376.479 309.983 376.62L312.322 378.022C312.444 378.083 312.578 378.115 312.714 378.115C312.851 378.115 312.985 378.083 313.107 378.022L315.572 376.62C315.768 376.507 315.74 376.311 315.572 376.171L313.219 374.769C313.097 374.708 312.964 374.675 312.828 374.673C312.692 374.671 312.558 374.699 312.434 374.755Z" fill="#2B303F"/>
<path d="M315.907 372.75L313.456 374.152C313.26 374.265 313.274 374.475 313.456 374.601L315.795 376.003C315.917 376.065 316.051 376.097 316.187 376.097C316.324 376.097 316.458 376.065 316.58 376.003L319.045 374.601C319.241 374.489 319.213 374.279 319.045 374.152L316.692 372.75C316.571 372.685 316.436 372.651 316.3 372.651C316.163 372.651 316.028 372.685 315.907 372.75Z" fill="#2B303F"/>
<path d="M319.339 370.732L316.874 372.134C316.678 372.246 316.706 372.442 316.874 372.582L319.227 373.984C319.347 374.043 319.479 374.073 319.612 374.073C319.746 374.073 319.877 374.043 319.997 373.984L322.462 372.582C322.659 372.456 322.631 372.26 322.462 372.12L320.109 370.718C319.989 370.658 319.857 370.629 319.723 370.631C319.589 370.633 319.457 370.668 319.339 370.732Z" fill="#2B303F"/>
<path d="M277.685 394.846L272.601 397.776C272.405 397.888 272.433 398.099 272.601 398.225L274.954 399.627C275.073 399.688 275.205 399.721 275.339 399.721C275.473 399.721 275.605 399.688 275.724 399.627L280.808 396.697C281.018 396.571 280.99 396.374 280.808 396.248L278.469 394.846C278.349 394.781 278.214 394.747 278.077 394.747C277.94 394.747 277.805 394.781 277.685 394.846Z" fill="#2B303F"/>
<path d="M276.06 391.873L273.609 393.275C273.399 393.387 273.427 393.584 273.609 393.724L275.948 395.126C276.071 395.184 276.205 395.215 276.34 395.215C276.476 395.215 276.61 395.184 276.733 395.126L279.198 393.724C279.394 393.598 279.366 393.401 279.198 393.261L276.845 391.859C276.722 391.8 276.587 391.77 276.451 391.773C276.314 391.775 276.181 391.81 276.06 391.873Z" fill="#2B303F"/>
<path d="M279.534 389.868L277.083 391.27C276.887 391.396 276.901 391.593 277.083 391.733L279.422 393.135C279.543 393.196 279.678 393.229 279.814 393.229C279.95 393.229 280.085 393.196 280.206 393.135L282.671 391.733C282.867 391.621 282.839 391.424 282.671 391.284L280.318 389.882C280.197 389.821 280.063 389.789 279.928 389.786C279.792 389.784 279.657 389.812 279.534 389.868Z" fill="#2B303F"/>
<path d="M283.007 387.864L280.556 389.266C280.36 389.378 280.374 389.589 280.556 389.715L282.895 391.117C283.015 391.182 283.15 391.216 283.287 391.216C283.424 391.216 283.559 391.182 283.679 391.117L286.144 389.715C286.34 389.603 286.312 389.392 286.144 389.266L283.791 387.864C283.669 387.806 283.535 387.775 283.399 387.775C283.263 387.775 283.129 387.806 283.007 387.864Z" fill="#2B303F"/>
<path d="M286.495 385.859L284.03 387.261C283.834 387.373 283.862 387.583 284.03 387.71L286.383 389.112C286.503 389.17 286.635 389.2 286.768 389.2C286.901 389.2 287.033 389.17 287.153 389.112L289.618 387.71C289.814 387.597 289.786 387.387 289.618 387.261L287.265 385.859C287.147 385.794 287.015 385.76 286.88 385.76C286.745 385.76 286.613 385.794 286.495 385.859Z" fill="#2B303F"/>
<path d="M289.926 383.84L287.461 385.242C287.265 385.354 287.293 385.55 287.461 385.691L289.814 387.093C289.934 387.151 290.066 387.181 290.199 387.181C290.333 387.181 290.464 387.151 290.584 387.093L293.049 385.691C293.245 385.564 293.217 385.368 293.049 385.228L290.696 383.826C290.576 383.767 290.444 383.737 290.31 383.739C290.176 383.742 290.044 383.776 289.926 383.84Z" fill="#2B303F"/>
<path d="M293.442 381.835L290.977 383.237C290.781 383.349 290.809 383.545 290.977 383.686L293.33 385.088C293.451 385.149 293.586 385.181 293.722 385.181C293.858 385.181 293.992 385.149 294.114 385.088L296.565 383.686C296.761 383.573 296.747 383.377 296.565 383.237L294.226 381.835C294.104 381.773 293.97 381.741 293.834 381.741C293.698 381.741 293.563 381.773 293.442 381.835Z" fill="#2B303F"/>
<path d="M296.929 379.83L294.464 381.232C294.268 381.358 294.296 381.555 294.464 381.695L296.817 383.097C296.939 383.158 297.073 383.19 297.21 383.19C297.346 383.19 297.48 383.158 297.602 383.097L300.053 381.695C300.249 381.583 300.235 381.386 300.053 381.246L297.714 379.844C297.592 379.783 297.459 379.751 297.323 379.748C297.188 379.746 297.053 379.774 296.929 379.83Z" fill="#2B303F"/>
<path d="M300.389 377.825L297.924 379.227C297.728 379.339 297.756 379.55 297.924 379.676L300.277 381.078C300.397 381.143 300.532 381.177 300.669 381.177C300.806 381.177 300.941 381.143 301.061 381.078L303.512 379.676C303.708 379.564 303.694 379.353 303.512 379.227L301.173 377.825C301.052 377.764 300.917 377.731 300.781 377.731C300.645 377.731 300.511 377.764 300.389 377.825Z" fill="#2B303F"/>
<path d="M303.932 375.821L301.467 377.223C301.271 377.335 301.299 377.545 301.467 377.671L303.82 379.073C303.943 379.132 304.077 379.162 304.213 379.162C304.348 379.162 304.482 379.132 304.605 379.073L307.056 377.671C307.266 377.559 307.238 377.349 307.056 377.223L304.717 375.821C304.596 375.756 304.461 375.722 304.325 375.722C304.188 375.722 304.053 375.756 303.932 375.821Z" fill="#2B303F"/>
<path d="M307.336 373.802L304.885 375.204C304.674 375.316 304.702 375.512 304.885 375.653L307.224 377.055C307.346 377.113 307.48 377.144 307.616 377.144C307.751 377.144 307.885 377.113 308.008 377.055L310.459 375.653C310.669 375.527 310.641 375.33 310.459 375.19L308.12 373.788C307.997 373.729 307.862 373.699 307.726 373.701C307.59 373.704 307.456 373.738 307.336 373.802Z" fill="#2B303F"/>
<path d="M310.809 371.797L308.358 373.199C308.148 373.325 308.176 373.521 308.358 373.662L310.697 375.064C310.819 375.125 310.953 375.157 311.089 375.157C311.226 375.157 311.36 375.125 311.482 375.064L313.933 373.662C314.143 373.549 314.115 373.353 313.933 373.213L311.594 371.811C311.472 371.75 311.339 371.717 311.203 371.715C311.067 371.713 310.933 371.741 310.809 371.797Z" fill="#2B303F"/>
<path d="M318.583 367.324L311.832 371.222C311.622 371.334 311.65 371.544 311.832 371.67L314.171 373.072C314.291 373.137 314.426 373.171 314.563 373.171C314.7 373.171 314.835 373.137 314.955 373.072L321.72 369.175C321.916 369.063 321.888 368.852 321.72 368.726L319.339 367.324C319.222 367.264 319.092 367.232 318.961 367.232C318.829 367.232 318.7 367.264 318.583 367.324Z" fill="#2B303F"/>
<path d="M272.586 393.963L269.239 395.897C269.043 396.009 269.057 396.206 269.239 396.346L271.578 397.748C271.701 397.807 271.835 397.837 271.97 397.837C272.106 397.837 272.24 397.807 272.362 397.748L275.724 395.813C275.92 395.701 275.892 395.491 275.654 395.365L273.315 393.963C273.201 393.907 273.077 393.878 272.951 393.878C272.824 393.878 272.7 393.907 272.586 393.963Z" fill="#2B303F"/>
<path d="M332.196 375.162L282.839 403.693C282.643 403.805 282.671 404.001 282.839 404.141L284.015 404.814C284.137 404.876 284.271 404.908 284.408 404.908C284.544 404.908 284.678 404.876 284.8 404.814L334.143 376.284C334.353 376.172 334.325 375.975 334.143 375.835L332.981 375.162C332.859 375.1 332.725 375.068 332.589 375.068C332.452 375.068 332.318 375.1 332.196 375.162Z" fill="#2B303F"/>
<path d="M274.449 376.438L274.771 376.62L283.301 381.555L298.456 372.792L298.778 372.61L289.926 367.507L274.449 376.438Z" fill="#BFBFBF"/>
<path d="M274.771 376.62L283.301 381.555L298.456 372.792L289.926 367.871L274.771 376.62Z" fill="#E5E5E5"/>
<path d="M250.135 387.948V388.705C250.135 389.251 250.279 389.787 250.552 390.259C250.825 390.732 251.217 391.124 251.689 391.397L281.747 408.767C282.218 409.044 282.755 409.19 283.301 409.188C283.847 409.186 284.383 409.041 284.856 408.767L339.228 377.335C339.701 377.063 340.094 376.671 340.367 376.198C340.64 375.725 340.783 375.189 340.782 374.643V373.886L283.357 407.113L250.135 387.948Z" fill="#E5E5E5"/>
<path d="M284.17 407.576C284.685 407.775 285.238 407.856 285.788 407.812C286.339 407.769 286.872 407.602 287.349 407.324L341.497 376.031C341.967 375.759 342.371 375.387 342.68 374.941C342.99 374.495 343.198 373.987 343.29 373.452L349.214 338.079C349.228 337.878 349.228 337.677 349.214 337.476C349.215 336.99 349.121 336.508 348.936 336.058C348.751 335.608 348.479 335.199 348.136 334.854L291.901 367.325C291.559 367.53 291.264 367.807 291.037 368.136C290.81 368.465 290.656 368.838 290.585 369.232L284.17 407.576Z" fill="#F4F4F4"/>
<path d="M283.301 407.113L283.665 407.324C283.828 407.419 283.996 407.503 284.17 407.576L290.584 369.273C290.655 368.88 290.81 368.506 291.037 368.177C291.264 367.848 291.558 367.572 291.901 367.367L348.178 334.854C347.95 334.632 347.696 334.439 347.421 334.279L291.033 366.862C290.69 367.067 290.395 367.344 290.168 367.673C289.941 368.001 289.787 368.375 289.716 368.769L283.301 407.113Z" fill="#E5E5E5"/>
<path opacity="0.4" d="M566.505 701C597.299 701 622.263 686.569 622.263 668.768C622.263 650.967 597.299 636.536 566.505 636.536C535.71 636.536 510.747 650.967 510.747 668.768C510.747 686.569 535.71 701 566.505 701Z" fill="#D6D8E5"/>
<path d="M611.702 423.811C612.333 429.419 618.972 453.379 617.543 461.594C616.114 469.81 593.466 483.578 593.466 483.578L590.329 469.558L602.935 457.248L599.461 433.877L611.702 423.811Z" fill="#FFCEA9"/>
<path d="M594.181 400.159C596.383 399.134 598.885 398.956 601.21 399.66C603.535 400.363 605.52 401.898 606.787 403.972C610.12 409.496 613.58 428.451 613.902 431.69C613.902 431.69 609.224 438.153 602.207 437.073L594.181 400.159Z" fill="#EDEDED"/>
<path d="M568.298 667.8C563.366 669.168 558.095 668.528 553.633 666.019C550.104 666.131 530.929 657.916 528.324 664.813C526.041 670.856 534.347 676.45 538.787 677.53C548.465 679.871 555.594 684.708 559.516 685.521C562.415 686.138 566.169 686.544 568.48 684.259C571.253 681.525 571.015 671.403 568.298 667.8Z" fill="#38226D"/>
<path d="M559.516 683.853C555.636 683.039 548.465 678.245 538.787 675.847C535.061 674.95 528.66 670.87 528.016 666.033C527.148 671.641 534.641 676.534 538.787 677.544C548.465 679.885 555.594 684.722 559.516 685.535C562.415 686.152 566.169 686.558 568.48 684.273C569.075 683.61 569.511 682.818 569.754 681.96C568.313 683.052 566.637 683.792 564.859 684.121C563.082 684.45 561.252 684.358 559.516 683.853Z" fill="#6E628C"/>
<path d="M599.461 653.823C594.531 655.188 589.262 654.553 584.797 652.056C581.267 652.154 562.093 643.939 559.488 650.836C557.205 656.879 565.51 662.473 569.95 663.553C579.629 665.894 586.758 670.731 590.679 671.558C593.593 672.161 597.332 672.567 599.643 670.282C602.346 667.548 602.108 657.426 599.461 653.823Z" fill="#38226D"/>
<path d="M590.61 669.875C586.73 669.062 579.559 664.267 569.881 661.87C566.155 660.972 559.754 656.907 559.11 652.056C558.242 657.664 565.735 662.543 569.881 663.552C579.559 665.893 586.688 670.73 590.61 671.557C593.523 672.16 597.263 672.567 599.574 670.282C600.169 669.618 600.605 668.827 600.848 667.968C599.408 669.063 597.732 669.806 595.955 670.137C594.177 670.468 592.347 670.378 590.61 669.875Z" fill="#6E628C"/>
<path d="M599.77 601.682C598.95 594.55 597.468 587.509 595.344 580.652C595.344 580.652 596.674 562.51 597.333 545.308C598.089 525.792 604.84 508.617 599.503 493.041L539.347 506.43C539.347 506.43 542.989 584.241 543.801 593.663C544.243 600.983 545.141 608.269 546.49 615.478C549.292 630.577 553.703 666.51 553.703 666.51C560.062 670.212 568.41 668.165 568.41 668.165C568.41 668.165 567.962 622.726 567.541 611.846C567.051 598.556 566.645 599.565 566.645 599.565L568.648 566.506L569.951 550.046C569.951 550.046 571.617 562.132 572.752 572.927C573.69 582.334 575.959 590.845 578.494 608.369C580.693 623.567 584.265 654.103 584.265 654.103C590.624 657.818 599.265 654.734 599.265 654.734C599.265 654.734 601.492 614.861 599.77 601.682Z" fill="#707070"/>
<path d="M591.058 400.481C586.478 400.705 583.074 401.883 582.5 400.481C582.004 398.116 581.653 395.724 581.449 393.317C581.982 391.985 582.43 390.513 582.43 390.513C588.186 386.966 590.007 380.699 590.763 373.492C592.052 361.099 585.357 350.261 572.99 348.957C561.351 347.752 552.793 355.967 550.51 367.183C549.277 372.791 546.826 383.222 550.146 392.419C551.995 397.523 554.348 401.574 556.757 402.359C559.064 402.3 561.365 402.099 563.648 401.757C563.648 401.757 564.264 405.206 564.698 407.365C565.132 409.524 564.95 410.743 560.566 413.449C556.182 416.155 567.205 421.735 574.418 421.174C581.631 420.614 589.657 416.394 591.87 411.669C594.349 406.467 594.139 400.327 591.058 400.481Z" fill="#FFCEA9"/>
<path d="M584.363 401.168C585.623 404.322 582.402 408.178 573.802 410.912C565.202 413.646 564.418 410.141 564.418 410.141C564.418 410.141 551.813 415.889 547.695 418.763C542.541 422.38 540.244 432.783 539.543 450.49C538.745 470.917 538.675 501.214 539.347 506.444C539.347 506.444 548.997 516.076 561.351 515.066C573.704 514.057 594.489 503.107 599.531 494.653C599.391 476.75 597.29 473.833 600.19 463.515C606.828 439.891 610.316 430.217 607.095 414.515C604.433 401.574 600.708 399.976 595.61 400.102C591.844 400.257 588.09 400.612 584.363 401.168Z" fill="#F4F4F4"/>
<path d="M520.131 467.37C530.271 469.936 532.652 463.528 533.983 458.243C537.204 445.415 538.941 433.834 541.35 426.544C544.151 417.963 547.148 416.603 551.308 414.921C556.21 412.958 560.412 417.094 558.788 428.03C556.855 440.956 554.334 450.027 549.502 465.323C548.241 469.319 545.412 476.413 541.182 479.848C535.944 484.054 528.072 483.9 516.153 480.927C511.069 479.665 505.494 476.623 495.886 472.137C493.309 470.931 491.292 470.132 486.348 467.819C481.404 465.505 476.236 461.65 473.645 457.892C471.053 454.135 470.703 452.284 471.235 451.499C471.894 450.42 473.07 450.658 474.457 452.242C476.456 454.922 478.93 457.213 481.754 459C481.754 459 478.547 455.691 476.81 453.546C475.257 451.633 473.966 449.521 472.972 447.265C472.062 445.078 473.953 442.106 475.381 443.662C476.81 445.218 477.51 446.817 480.129 449.957C481.505 451.639 483.08 453.145 484.821 454.443C483.195 452.225 481.748 449.881 480.493 447.433C479.372 445.531 478.823 443.346 478.911 441.138C478.981 439.989 480.606 438.629 482.118 440.802C483.519 442.751 484.387 445.807 487.567 449.13C489.878 451.527 491.852 452.915 491.908 452.242C491.964 451.569 490.508 450.266 489.681 447.462C488.855 444.658 489.682 441.699 491.236 441.377C492.791 441.054 492.483 441.138 493.715 443.76C494.948 446.382 496.867 448.317 498.323 452.172C499.118 454.872 500.56 457.337 502.525 459.35C504.99 462.014 510.495 464.944 520.131 467.37Z" fill="#FFCEA9"/>
<path d="M555.062 413.169C548.297 412.173 543.521 415.216 540.524 425.492C537.527 435.769 535.454 444.181 535.454 444.181C538.128 448.051 542.184 450.746 546.785 451.71C554.88 453.672 557.793 449.803 557.793 449.803C557.793 449.803 560.048 439.05 561.449 431.731C562.85 424.413 563.438 414.402 555.062 413.169Z" fill="#EDEDED"/>
<path d="M550.832 365.627C550.832 365.627 540.131 349.364 563.312 345.999C580.021 343.616 590.764 354.411 591.996 366.02C593.187 377.166 586.324 388.732 581.379 393.331C578.97 394.186 573.76 394.733 566.939 391.578C566.662 388.544 566.554 385.497 566.617 382.451C566.617 382.451 574.769 365.333 550.832 365.627Z" fill="black"/>
<path d="M334.522 309.155C348.12 309.155 359.144 298.12 359.144 284.507C359.144 270.895 348.12 259.86 334.522 259.86C320.923 259.86 309.899 270.895 309.899 284.507C309.899 298.12 320.923 309.155 334.522 309.155Z" fill="#201A53"/>
<path d="M334.522 296.173C325.18 296.173 316.132 294.042 309.703 290.312C304.339 287.214 301.299 283.302 301.299 279.601C301.299 275.9 304.381 271.988 309.703 268.89C316.132 265.16 325.11 263.029 334.522 263.029C343.934 263.029 352.898 265.174 359.341 268.89C364.705 271.988 367.744 275.9 367.744 279.601C367.744 283.302 364.677 287.214 359.341 290.312C352.954 294.042 343.85 296.173 334.522 296.173Z" fill="#B7C0EE"/>
<path d="M334.522 291.924C325.18 291.924 316.132 289.793 309.703 286.078C304.339 282.979 301.299 279.068 301.299 275.367C301.299 271.665 304.381 267.754 309.703 264.641C316.132 260.926 325.11 258.795 334.522 258.795C343.934 258.795 352.898 260.926 359.341 264.641C364.705 267.754 367.744 271.651 367.744 275.367C367.744 279.082 364.677 282.979 359.341 286.078C352.954 289.793 343.85 291.924 334.522 291.924Z" fill="#201A53"/>
<path d="M334.522 288.097C322.421 288.097 310.712 285.293 302.308 280.512C295.305 276.488 291.369 271.427 291.369 266.618C291.369 261.809 295.347 256.804 302.308 252.738C310.642 247.915 322.365 245.153 334.522 245.153C346.679 245.153 358.332 247.957 366.736 252.738C373.739 256.748 377.689 261.809 377.689 266.618C377.689 271.427 373.697 276.432 366.736 280.512C358.346 285.335 346.623 288.097 334.522 288.097Z" fill="#B7C0EE"/>
<path d="M334.522 282.601C322.421 282.601 310.712 279.797 302.308 275.017C295.305 271.007 291.369 265.932 291.369 261.137C291.369 256.342 295.347 251.323 302.308 247.243C310.642 242.42 322.365 239.658 334.522 239.658C346.679 239.658 358.332 242.462 366.736 247.243C373.739 251.267 377.689 256.328 377.689 261.137C377.689 265.946 373.697 270.951 366.736 275.017C358.346 279.84 346.623 282.601 334.522 282.601Z" fill="#201A53"/>
<path d="M334.522 277.483C319.759 277.483 305.473 274.119 295.304 268.244C286.831 263.337 281.971 257.168 281.971 251.308C281.971 245.448 286.831 239.279 295.304 234.386C305.473 228.512 319.759 225.133 334.522 225.133C349.284 225.133 363.556 228.512 373.739 234.386C382.212 239.279 387.072 245.448 387.072 251.308C387.072 257.168 382.212 263.337 373.739 268.244C363.57 274.119 349.27 277.483 334.522 277.483Z" fill="#B7C0EE"/>
<path d="M334.522 270.782C319.759 270.782 305.473 267.417 295.304 261.543C286.831 256.65 281.971 250.467 281.971 244.607C281.971 238.746 286.831 232.577 295.304 227.684C305.473 221.81 319.759 218.445 334.522 218.445C349.284 218.445 363.556 221.81 373.739 227.684C382.212 232.577 387.072 238.76 387.072 244.621C387.072 250.481 382.212 256.65 373.739 261.543C363.57 267.417 349.27 270.782 334.522 270.782Z" fill="#201A53"/>
<path d="M334.522 263.87C317.574 263.87 301.173 260.014 289.492 253.257C279.758 247.649 274.184 240.555 274.184 233.825C274.184 227.096 279.786 220.015 289.492 214.379C301.159 207.636 317.575 203.78 334.508 203.78C351.441 203.78 367.87 207.636 379.538 214.393C389.272 220.001 394.846 227.096 394.846 233.825C394.846 240.555 389.244 247.635 379.538 253.257C367.87 260.014 351.455 263.87 334.522 263.87Z" fill="#B7C0EE"/>
<path d="M334.522 256.188C317.574 256.188 301.173 252.318 289.492 245.575C279.758 239.967 274.184 232.872 274.184 226.143C274.184 219.413 279.786 212.319 289.492 206.697C301.159 199.953 317.575 196.084 334.508 196.084C351.441 196.084 367.87 199.953 379.538 206.697C389.272 212.305 394.846 219.413 394.846 226.143C394.846 232.872 389.244 239.953 379.538 245.575C367.87 252.36 351.455 256.188 334.522 256.188Z" fill="#201A53"/>
<path d="M334.522 250.467C371.992 250.467 402.367 232.91 402.367 211.253C402.367 189.596 371.992 172.039 334.522 172.039C297.052 172.039 266.676 189.596 266.676 211.253C266.676 232.91 297.052 250.467 334.522 250.467Z" fill="#FFDF57"/>
<path d="M317.21 114.628H311.202V208.127H317.21V114.628Z" fill="#D8AA44"/>
<path d="M358.346 114.628H352.337V208.127H358.346V114.628Z" fill="#D8AA44"/>
<path d="M334.354 120.712L325.544 112.636L314.731 119.885L311.202 114.641L326.132 104.827L334.69 112.665L344.942 104.701L358.346 114.641L354.158 119.45L344.928 112.51L334.354 120.712Z" fill="#D8AA44"/>
<path opacity="0.69" d="M402.269 213.3C402.381 204.496 403.894 178.503 424.553 142.682C448.994 100.299 423.517 0 334.34 0C245.163 0 219.686 100.299 244.127 142.682C261.984 173.652 265.878 201.131 266.69 213.693" fill="#FFDF57"/>
<path opacity="0.2" d="M287.307 468.465L283.413 464.819C282.919 464.103 282.325 463.461 281.649 462.913C281.353 462.665 281.04 462.44 280.71 462.24L275.668 458.875L270.164 456.436C269.826 456.279 269.48 456.144 269.127 456.029C268.316 455.759 267.473 455.598 266.62 455.552L261.382 453.842C261.088 453.842 261.256 454.375 261.382 454.599L261.886 454.809C262.516 455.048 261.984 454.963 262.642 455.426L265.654 456.197C267.572 456.125 269.469 456.612 271.116 457.599L275.108 459.604L278.945 461.917C280.632 462.846 281.977 464.29 282.783 466.039L284.814 467.68C285.444 468.268 285.08 468.016 286.018 468.156L286.537 468.605C286.915 468.703 287.475 468.717 287.307 468.465Z" fill="black"/>
<path opacity="0.1" d="M276.354 460.753C276.666 460.273 277.083 459.87 277.573 459.575C278.286 459.137 279.122 458.945 279.954 459.029C280.936 459.129 281.888 459.425 282.755 459.898H282.853L284.254 460.655C284.618 460.851 284.954 461.076 285.29 461.3L285.935 461.777C286.901 462.548 286.621 464.062 285.766 465.268C285.293 465.941 284.748 466.562 284.142 467.118C283.608 467.582 282.967 467.903 282.276 468.052C281.586 468.202 280.869 468.175 280.192 467.973C279.564 467.776 278.958 467.513 278.385 467.188C277.855 466.878 277.354 466.522 276.887 466.123C276.312 465.586 275.916 464.885 275.75 464.116C275.585 463.346 275.659 462.545 275.962 461.819C276.054 461.45 276.185 461.093 276.354 460.753ZM264.799 453.743C265.556 452.579 266.844 451.696 267.937 452.061L268.637 452.327C268.991 452.466 269.338 452.625 269.673 452.804L270.948 453.463H271.032C271.833 453.885 272.527 454.485 273.063 455.215C273.283 455.512 273.441 455.849 273.53 456.208C273.619 456.566 273.637 456.939 273.581 457.304C273.498 457.846 273.287 458.36 272.965 458.804C272.703 459.121 272.407 459.408 272.083 459.66C271.496 460.232 270.769 460.641 269.975 460.845C269.182 461.049 268.348 461.042 267.559 460.823C266.995 460.644 266.451 460.409 265.934 460.122C265.433 459.814 264.964 459.457 264.533 459.057C264.085 458.639 263.775 458.095 263.642 457.497C263.51 456.898 263.561 456.274 263.791 455.706C264.053 455.021 264.391 454.367 264.799 453.757V453.743Z" fill="black"/>
<path d="M263.315 455.454L266.312 455.173C268.21 454.985 270.121 455.366 271.802 456.267L288.344 464.581L289.31 463.179L270.794 455.005C269.681 454.484 268.478 454.184 267.25 454.122L261.368 453.785C261.303 453.774 261.237 453.782 261.177 453.809C261.118 453.837 261.068 453.882 261.035 453.938C261.001 453.994 260.986 454.059 260.99 454.125C260.995 454.19 261.019 454.253 261.06 454.304L261.214 454.514C261.456 454.836 261.776 455.091 262.143 455.255C262.511 455.419 262.914 455.487 263.315 455.454Z" fill="#2B303F"/>
<path d="M284.716 467.455L283.469 464.651C282.665 462.902 281.326 461.453 279.646 460.515L264.533 451.458L265.388 450.154L281.369 460.796C282.431 461.469 283.345 462.352 284.058 463.389L287.489 468.408C287.657 468.661 287.405 468.983 287.069 468.927H286.775C286.336 468.875 285.917 468.712 285.557 468.455C285.197 468.198 284.908 467.854 284.716 467.455Z" fill="#2B303F"/>
<path opacity="0.3" d="M280.234 458.454C281.215 458.55 282.168 458.841 283.035 459.309H283.12L284.52 460.052C284.884 460.263 285.22 460.473 285.557 460.697C285.893 460.922 285.991 461.02 286.201 461.188C287.153 461.945 286.873 463.473 286.033 464.665C285.563 465.346 285.013 465.967 284.394 466.516C283.867 466.986 283.229 467.313 282.54 467.465C281.851 467.617 281.134 467.59 280.458 467.385C279.832 467.176 279.227 466.909 278.652 466.586C278.115 466.285 277.613 465.928 277.153 465.52C276.576 464.988 276.178 464.29 276.012 463.522C275.847 462.754 275.922 461.953 276.229 461.23C276.333 460.838 276.488 460.46 276.691 460.108C277.006 459.632 277.422 459.23 277.909 458.931C278.613 458.525 279.428 458.358 280.234 458.454Z" fill="url(#paint0_linear_422_868)"/>
<path d="M264.939 449.86L264.211 451.009C264.15 451.077 264.116 451.164 264.116 451.255C264.116 451.346 264.15 451.433 264.211 451.5C264.336 451.612 264.42 451.762 264.451 451.927C264.481 452.092 264.456 452.262 264.379 452.411L263.175 454.935C262.822 455.65 262.711 456.46 262.858 457.244C263.004 458.027 263.4 458.742 263.987 459.281C265.005 460.19 266.21 460.865 267.516 461.258C268.489 461.556 269.525 461.582 270.512 461.335C271.499 461.088 272.4 460.577 273.119 459.856L274.239 458.72C274.487 458.479 274.637 458.154 274.66 457.809C274.681 457.656 274.739 457.51 274.828 457.384C274.917 457.257 275.034 457.153 275.171 457.081C275.308 457.008 275.459 456.969 275.614 456.967C275.768 456.964 275.921 456.998 276.06 457.066L276.34 457.206L276.62 457.375C276.734 457.457 276.825 457.567 276.885 457.695C276.945 457.822 276.971 457.962 276.961 458.103C276.951 458.243 276.906 458.379 276.829 458.497C276.752 458.615 276.647 458.711 276.522 458.777C276.208 458.944 275.957 459.21 275.808 459.534L275.178 460.936C274.78 461.827 274.682 462.824 274.896 463.776C275.111 464.729 275.627 465.586 276.368 466.221C277.438 467.165 278.693 467.877 280.052 468.31C280.923 468.591 281.855 468.623 282.744 468.403C283.632 468.183 284.441 467.718 285.08 467.062L287.181 464.847C287.321 464.707 287.497 464.607 287.689 464.557C287.881 464.508 288.083 464.511 288.274 464.567C288.375 464.602 288.485 464.604 288.587 464.574C288.69 464.544 288.781 464.483 288.848 464.399L289.702 463.221C289.791 463.115 289.84 462.981 289.84 462.842C289.84 462.704 289.791 462.57 289.702 462.464C288.365 461.133 286.823 460.025 285.136 459.183L283.736 458.426C282.7 457.861 281.562 457.509 280.388 457.389L279.352 457.276C279.12 457.287 278.894 457.207 278.721 457.052C278.619 456.907 278.485 456.787 278.329 456.702L277.181 456.085L276.032 455.454C275.867 455.37 275.685 455.322 275.5 455.314C275.367 455.31 275.236 455.277 275.117 455.216C274.999 455.155 274.895 455.069 274.814 454.963L274.253 454.206C273.606 453.339 272.767 452.633 271.802 452.145L270.528 451.472C269.021 450.578 267.372 449.947 265.654 449.607C265.523 449.58 265.387 449.589 265.261 449.633C265.135 449.678 265.024 449.756 264.939 449.86ZM276.634 460.193C276.95 459.716 277.366 459.314 277.853 459.015C278.566 458.578 279.403 458.39 280.234 458.482C281.215 458.578 282.168 458.869 283.035 459.337H283.119L284.52 460.08C284.884 460.291 285.22 460.501 285.556 460.725C285.892 460.95 285.991 461.048 286.201 461.216C287.153 461.973 286.873 463.501 286.033 464.693C285.563 465.374 285.012 465.995 284.394 466.544C283.867 467.014 283.229 467.341 282.539 467.493C281.85 467.645 281.134 467.618 280.458 467.413C279.832 467.204 279.227 466.937 278.651 466.614C278.115 466.313 277.613 465.956 277.153 465.548C276.576 465.016 276.178 464.318 276.012 463.55C275.847 462.782 275.922 461.981 276.228 461.258C276.319 460.888 276.456 460.53 276.634 460.193ZM265.065 453.183C265.836 452.033 267.11 451.15 268.217 451.514C268.455 451.586 268.688 451.67 268.917 451.767C269.267 451.907 269.617 452.075 269.954 452.243L271.228 452.916H271.312C272.107 453.347 272.8 453.945 273.343 454.669C273.562 454.968 273.719 455.309 273.806 455.67C273.892 456.031 273.906 456.405 273.847 456.772C273.767 457.31 273.555 457.821 273.231 458.258C272.973 458.582 272.677 458.874 272.349 459.127C271.761 459.698 271.034 460.106 270.241 460.31C269.448 460.514 268.615 460.508 267.825 460.291C267.264 460.11 266.724 459.871 266.214 459.576C265.71 459.278 265.24 458.926 264.813 458.524C264.366 458.103 264.056 457.557 263.923 456.957C263.791 456.356 263.842 455.73 264.071 455.159C264.335 454.473 264.668 453.815 265.065 453.197V453.183Z" fill="#2B303F"/>
<path d="M272.237 459.351C271.651 459.926 270.925 460.336 270.131 460.541C269.336 460.745 268.502 460.736 267.713 460.515C267.159 460.351 266.624 460.13 266.116 459.856C265.609 459.563 265.138 459.21 264.715 458.804C264.267 458.386 263.957 457.843 263.824 457.244C263.692 456.646 263.744 456.022 263.973 455.453C264.249 454.744 264.601 454.067 265.024 453.435C264.636 454.025 264.312 454.655 264.057 455.313C263.828 455.884 263.777 456.51 263.909 457.11C264.042 457.711 264.352 458.257 264.799 458.678C265.226 459.079 265.696 459.432 266.2 459.73C266.71 460.024 267.25 460.264 267.811 460.445C268.601 460.662 269.434 460.668 270.227 460.464C271.021 460.26 271.747 459.852 272.335 459.281C272.659 459.029 272.955 458.742 273.217 458.426L273.119 458.454C272.863 458.788 272.567 459.09 272.237 459.351Z" fill="#1F232D"/>
<path d="M284.212 466.782C283.684 467.25 283.045 467.574 282.356 467.724C281.667 467.874 280.951 467.844 280.276 467.637C279.648 467.44 279.043 467.176 278.47 466.852C277.939 466.542 277.438 466.186 276.971 465.787C276.396 465.249 276 464.549 275.835 463.78C275.669 463.01 275.743 462.209 276.046 461.482C276.157 461.097 276.312 460.725 276.509 460.375L276.621 460.221C276.429 460.566 276.278 460.933 276.172 461.314C275.866 462.038 275.791 462.838 275.956 463.606C276.122 464.374 276.52 465.072 277.097 465.604C277.557 466.012 278.059 466.37 278.596 466.67C279.171 466.993 279.776 467.261 280.402 467.469C281.078 467.674 281.794 467.702 282.484 467.549C283.173 467.397 283.811 467.07 284.338 466.6C284.907 466.091 285.419 465.523 285.865 464.903C285.392 465.595 284.837 466.225 284.212 466.782Z" fill="#1F232D"/>
<path opacity="0.3" d="M273.343 454.725C272.8 454.002 272.107 453.404 271.312 452.973H271.228L269.954 452.3C269.617 452.131 269.267 451.963 268.917 451.823C268.688 451.726 268.455 451.642 268.217 451.571C267.11 451.206 265.836 452.089 265.065 453.239C264.646 453.873 264.294 454.55 264.015 455.258C263.786 455.828 263.735 456.455 263.867 457.055C264 457.655 264.31 458.202 264.757 458.623C265.184 459.024 265.653 459.377 266.158 459.674C266.668 459.969 267.208 460.209 267.769 460.389C268.559 460.606 269.392 460.613 270.185 460.409C270.978 460.205 271.705 459.797 272.293 459.225C272.621 458.972 272.917 458.681 273.175 458.356C273.499 457.919 273.711 457.409 273.791 456.87C273.864 456.501 273.862 456.12 273.785 455.752C273.708 455.383 273.558 455.034 273.343 454.725Z" fill="url(#paint1_linear_422_868)"/>
<defs>
<linearGradient id="paint0_linear_422_868" x1="281.327" y1="458.454" x2="281.327" y2="467.651" gradientUnits="userSpaceOnUse">
<stop offset="0.01" stop-color="white"/>
<stop offset="0.88" stop-color="white" stop-opacity="0"/>
</linearGradient>
<linearGradient id="paint1_linear_422_868" x1="2192.71" y1="3371.94" x2="2192.71" y2="3430.8" gradientUnits="userSpaceOnUse">
<stop offset="0.01" stop-color="white"/>
<stop offset="0.88" stop-color="white" stop-opacity="0"/>
</linearGradient>
</defs>
</svg>
