<svg width="40" height="40" viewBox="0 0 40 40" fill="none" xmlns="http://www.w3.org/2000/svg">
<g clip-path="url(#clip0_5_379)">
<path d="M39.8174 20.3742C39.8174 18.7355 39.6844 17.5396 39.3966 16.2994H20.6833V23.6961H31.6676C31.4462 25.5342 30.2503 28.3025 27.5928 30.1626L27.5555 30.4102L33.4723 34.9939L33.8823 35.0348C37.647 31.5579 39.8174 26.4422 39.8174 20.3742Z" fill="#4285F4"/>
<path d="M20.6833 39.8627C26.0646 39.8627 30.5824 38.091 33.8822 35.0349L27.5927 30.1627C25.9097 31.3364 23.6508 32.1558 20.6833 32.1558C15.4126 32.1558 10.9392 28.679 9.34453 23.8733L9.11079 23.8931L2.95843 28.6545L2.87798 28.8782C6.15553 35.3891 12.8879 39.8627 20.6833 39.8627Z" fill="#34A853"/>
<path d="M9.34453 23.8733C8.92377 22.6331 8.68026 21.3043 8.68026 19.9313C8.68026 18.5582 8.92377 17.2295 9.3224 15.9893L9.31125 15.7252L3.08179 10.8873L2.87797 10.9843C1.52713 13.6861 0.752014 16.7202 0.752014 19.9313C0.752014 23.1424 1.52713 26.1763 2.87797 28.8782L9.34453 23.8733Z" fill="#FBBC05"/>
<path d="M20.6834 7.7067C24.426 7.7067 26.9505 9.32334 28.3901 10.6743L34.0151 5.18213C30.5605 1.97099 26.0647 0 20.6834 0C12.8879 0 6.15554 4.47342 2.87798 10.9842L9.32242 15.9893C10.9392 11.1836 15.4127 7.7067 20.6834 7.7067Z" fill="#EB4335"/>
</g>
<defs>
<clipPath id="clip0_5_379">
<rect width="39.088" height="40" fill="white" transform="translate(0.75)"/>
</clipPath>
</defs>
</svg>
