<svg width="722" height="681" viewBox="0 0 722 681" fill="none" xmlns="http://www.w3.org/2000/svg">
<path d="M639.056 467.32L309.536 277.537C304.915 274.872 301.175 267.742 301.175 261.591V7.31803C301.175 1.16719 304.915 -1.65614 309.536 1.00874L639.056 190.792C643.677 193.456 647.432 200.587 647.432 206.738V460.953C647.432 467.162 643.677 469.985 639.056 467.32Z" fill="#B1B4C4"/>
<path d="M640.761 469.942L644.414 467.853L642.826 457.05L640.761 469.942Z" fill="#B1B4C4"/>
<path d="M300.583 2.56476L304.179 0.504883L309.334 3.38584C309.334 3.38584 303.832 4.22131 303.702 4.1781C303.572 4.13489 300.583 2.56476 300.583 2.56476Z" fill="#B1B4C4"/>
<path d="M636.039 469.063L306.518 279.28C301.897 276.616 298.143 269.471 298.143 263.334V9.06128C298.143 2.91045 301.897 0.0871103 306.518 2.73759L636.039 192.535C640.659 195.185 644.414 202.33 644.414 208.481V462.754C644.414 468.905 640.659 471.728 636.039 469.063Z" fill="#E4E7F2"/>
<path d="M635.461 469.395L305.94 279.612C301.319 276.947 297.565 269.802 297.565 263.666V9.37817C297.565 3.24174 301.319 0.418404 305.94 3.06888L635.461 192.866C640.082 195.517 643.822 202.661 643.822 208.812V463.085C643.822 469.236 640.082 472.059 635.461 469.395Z" fill="#D6D8E5"/>
<path d="M639.302 453.938L301.796 259.531L301.969 10.4006C301.969 7.85093 303.76 6.81379 305.983 8.09582L635.504 197.879C636.671 198.639 637.642 199.662 638.339 200.866C639.036 202.069 639.44 203.42 639.519 204.807L639.302 453.938Z" fill="#1E212D"/>
<path opacity="0.5" d="M639.201 453.938L301.651 259.546L301.825 10.343C301.825 7.79332 303.63 6.75617 305.839 8.0382L635.36 197.893C636.529 198.65 637.503 199.673 638.201 200.877C638.898 202.081 639.3 203.433 639.374 204.822L639.201 453.938Z" fill="url(#paint0_linear_418_1259)"/>
<path opacity="0.4" d="M386.992 617.158L57.399 427.361C52.7782 424.71 53.3558 420.058 58.6986 416.975L279.443 289.839C284.786 286.77 292.858 286.439 297.478 289.104L626.999 478.887C631.62 481.552 631.042 486.19 625.7 489.273L404.955 616.409C399.627 619.477 391.541 619.809 386.992 617.158Z" fill="#D6D8E5"/>
<path d="M394.125 612.837L64.6045 423.055C59.9837 420.39 60.5613 415.751 65.9041 412.669L286.648 285.532C291.977 282.464 300.049 282.133 304.67 284.783L634.205 474.58C638.826 477.231 638.248 481.884 632.905 484.966L412.161 612.103C406.818 615.171 398.746 615.502 394.125 612.837Z" fill="#B1B4C4"/>
<path d="M61.4854 418.761V412.567L68.4599 415.477L61.4854 418.761Z" fill="#B1B4C4"/>
<path d="M637.324 479.204V473.154L632.154 474.926L635.577 479.939L637.324 479.204Z" fill="#B1B4C4"/>
<path d="M394.125 607.623L64.6045 417.84C59.9837 415.175 60.5613 410.522 65.9041 407.454L286.648 280.317C291.977 277.235 300.049 276.903 304.67 279.568L634.205 469.351C638.826 472.016 638.248 476.669 632.905 479.737L412.161 606.874C406.818 609.956 398.746 610.287 394.125 607.623Z" fill="#E4E7F2"/>
<path d="M394.125 606.816L64.6045 417.033C59.9837 414.368 60.5613 409.715 65.9041 406.647L286.648 279.453C291.977 276.371 300.049 276.039 304.67 278.704L634.205 468.545C638.826 471.209 638.248 475.862 632.905 478.93L412.161 606.067C406.818 609.15 398.746 609.481 394.125 606.816Z" fill="#D6D8E5"/>
<path d="M280.526 322.394L265.19 313.549C263.934 312.829 264.093 311.576 265.537 310.74L280.136 302.314C280.877 301.901 281.704 301.668 282.552 301.633C283.4 301.598 284.244 301.762 285.017 302.112L300.352 310.942C301.594 311.662 301.449 312.93 299.991 313.823L285.363 322.25C284.623 322.644 283.801 322.863 282.961 322.888C282.122 322.913 281.289 322.744 280.526 322.394Z" fill="#2B303F"/>
<path d="M302.244 334.897L286.908 326.066C285.652 325.346 285.811 324.079 287.255 323.185L301.897 314.744C302.638 314.332 303.465 314.098 304.313 314.063C305.161 314.028 306.005 314.192 306.778 314.543L322.127 323.387C323.384 324.107 323.225 325.361 321.781 326.196L307.139 334.623C306.401 335.047 305.574 335.293 304.724 335.341C303.874 335.388 303.024 335.236 302.244 334.897Z" fill="#2B303F"/>
<path d="M324.221 347.559L308.872 338.714C307.63 337.994 307.774 336.741 309.233 335.905L323.875 327.479C324.616 327.066 325.443 326.833 326.291 326.798C327.139 326.763 327.983 326.927 328.756 327.277L344.091 336.107C345.347 336.827 345.188 338.095 343.744 338.916L329.102 347.357C328.36 347.767 327.533 347.998 326.686 348.033C325.839 348.068 324.995 347.906 324.221 347.559Z" fill="#2B303F"/>
<path d="M345.694 359.918L330.344 351.088C329.102 350.368 329.246 349.1 330.705 348.279L345.333 339.838C346.076 339.425 346.906 339.192 347.756 339.157C348.606 339.122 349.453 339.286 350.228 339.637L365.563 348.481C366.819 349.201 366.66 350.455 365.216 351.362L350.574 359.789C349.828 360.19 348.997 360.411 348.149 360.434C347.302 360.456 346.46 360.28 345.694 359.918Z" fill="#2B303F"/>
<path d="M367.411 372.436L352.062 363.592C350.82 362.871 350.979 361.618 352.423 360.783L367.065 352.356C367.805 351.94 368.633 351.705 369.481 351.67C370.329 351.635 371.174 351.801 371.946 352.154L387.281 360.984C388.537 361.705 388.378 362.958 386.934 363.865L372.292 372.307C371.545 372.705 370.714 372.924 369.867 372.946C369.02 372.969 368.179 372.794 367.411 372.436Z" fill="#2B303F"/>
<path d="M389.129 384.939L373.794 376.109C372.538 375.388 372.697 374.121 374.141 373.228L388.783 364.801C389.523 364.388 390.351 364.155 391.199 364.12C392.047 364.085 392.891 364.249 393.663 364.599L409.013 373.429C410.255 374.15 410.096 375.417 408.652 376.31L394.01 384.737C393.269 385.15 392.441 385.383 391.594 385.418C390.746 385.453 389.902 385.289 389.129 384.939Z" fill="#2B303F"/>
<path d="M410.847 397.457L395.512 388.612C394.255 387.892 394.414 386.639 395.858 385.803L410.5 377.405C411.242 376.996 412.07 376.764 412.917 376.729C413.764 376.694 414.608 376.857 415.381 377.203L430.731 386.048C431.973 386.768 431.828 388.021 430.37 388.857L415.728 397.284C414.985 397.692 414.156 397.92 413.308 397.95C412.46 397.98 411.617 397.811 410.847 397.457Z" fill="#2B303F"/>
<path d="M432.565 409.96L417.23 401.116C415.973 400.396 416.132 399.142 417.576 398.307L432.218 389.88C432.959 389.467 433.787 389.234 434.635 389.199C435.482 389.164 436.327 389.328 437.099 389.678L452.449 398.508C453.705 399.229 453.546 400.496 452.102 401.389L437.532 409.759C436.78 410.183 435.937 410.423 435.073 410.458C434.209 410.493 433.349 410.323 432.565 409.96Z" fill="#2B303F"/>
<path d="M454.297 422.463L438.976 413.633C437.72 412.913 437.879 411.645 439.323 410.824L453.965 402.383C454.706 401.97 455.533 401.737 456.381 401.702C457.229 401.667 458.073 401.831 458.846 402.181L474.195 411.026C475.452 411.746 475.293 412.999 473.849 413.907L459.192 422.262C458.449 422.677 457.619 422.911 456.769 422.946C455.918 422.981 455.071 422.816 454.297 422.463Z" fill="#2B303F"/>
<path d="M476.014 435.024L460.636 426.137C459.394 425.416 459.538 424.163 460.997 423.328L475.653 414.858C476.397 414.445 477.227 414.212 478.077 414.177C478.927 414.141 479.774 414.306 480.549 414.656L495.884 423.501C497.14 424.221 496.981 425.488 495.537 426.382L480.852 434.78C480.12 435.192 479.302 435.429 478.462 435.472C477.623 435.514 476.785 435.361 476.014 435.024Z" fill="#2B303F"/>
<path d="M497.732 447.485L482.382 438.655C481.141 437.934 481.299 436.667 482.743 435.846L497.386 427.404C498.126 426.992 498.954 426.758 499.802 426.723C500.65 426.688 501.494 426.853 502.266 427.203L517.602 436.047C518.858 436.768 518.699 438.021 517.255 438.928L502.613 447.355C501.866 447.756 501.036 447.977 500.188 448C499.34 448.022 498.499 447.846 497.732 447.485Z" fill="#2B303F"/>
<path d="M519.45 460.003L504.115 451.158C502.858 450.438 503.017 449.185 504.461 448.349L519.104 439.922C519.843 439.506 520.671 439.271 521.52 439.236C522.368 439.201 523.213 439.367 523.984 439.721L539.32 448.551C540.576 449.271 540.417 450.524 538.973 451.36L524.331 459.801C523.589 460.21 522.761 460.442 521.914 460.477C521.067 460.512 520.223 460.349 519.45 460.003Z" fill="#2B303F"/>
<path d="M541.168 472.477L525.833 463.647C524.576 462.926 524.735 461.659 526.179 460.766L540.821 452.339C541.562 451.926 542.39 451.693 543.238 451.658C544.085 451.623 544.93 451.787 545.702 452.137L561.052 460.967C562.294 461.688 562.135 462.955 560.691 463.848L546.049 472.275C545.308 472.688 544.48 472.921 543.632 472.956C542.784 472.991 541.94 472.827 541.168 472.477Z" fill="#2B303F"/>
<path d="M573.355 491.044L547.55 476.179C546.294 475.459 546.453 474.205 547.897 473.37L562.539 464.929C563.281 464.519 564.108 464.288 564.956 464.253C565.803 464.218 566.646 464.38 567.42 464.727L593.224 479.593C594.48 480.313 594.322 481.581 592.878 482.402L578.235 490.843C577.495 491.256 576.667 491.489 575.819 491.524C574.971 491.559 574.127 491.395 573.355 491.044Z" fill="#2B303F"/>
<path d="M291.688 353.075L276.353 344.274C275.096 343.554 275.255 342.301 276.699 341.465L291.341 333.038C292.085 332.626 292.915 332.392 293.765 332.357C294.615 332.322 295.461 332.486 296.236 332.837L311.572 341.667C312.828 342.387 312.669 343.655 311.225 344.548L296.583 352.917C295.837 353.325 295.005 353.552 294.154 353.58C293.304 353.607 292.459 353.435 291.688 353.075Z" fill="#2B303F"/>
<path d="M313.449 365.608L298.114 356.763C296.858 356.043 297.016 354.79 298.46 353.954L313.103 345.527C313.843 345.115 314.671 344.881 315.519 344.846C316.367 344.811 317.211 344.976 317.983 345.326L333.333 354.156C334.575 354.876 334.43 356.144 332.972 356.965L318.344 365.406C317.601 365.819 316.771 366.052 315.921 366.087C315.071 366.122 314.224 365.958 313.449 365.608Z" fill="#2B303F"/>
<path d="M335.21 378.14L319.875 369.295C318.619 368.575 318.778 367.322 320.222 366.414L334.864 357.987C335.605 357.575 336.432 357.341 337.28 357.306C338.128 357.271 338.972 357.436 339.744 357.786L355.094 366.616C356.336 367.336 356.177 368.604 354.733 369.425L340.091 377.866C339.355 378.287 338.53 378.531 337.683 378.578C336.836 378.626 335.989 378.476 335.21 378.14Z" fill="#2B303F"/>
<path d="M356.971 390.672L341.621 381.828C340.379 381.108 340.538 379.855 341.982 379.019L356.668 370.592C357.407 370.176 358.235 369.941 359.084 369.906C359.932 369.871 360.777 370.037 361.548 370.391L376.884 379.221C378.14 379.941 377.981 381.194 376.537 382.03L361.895 390.471C361.148 390.887 360.313 391.123 359.457 391.158C358.602 391.193 357.75 391.026 356.971 390.672Z" fill="#2B303F"/>
<path d="M378.559 403.103L363.21 394.259C361.953 393.539 362.112 392.285 363.556 391.45L378.198 383.009C378.94 382.599 379.768 382.368 380.615 382.333C381.462 382.298 382.306 382.46 383.079 382.807L398.429 391.652C399.685 392.372 399.526 393.625 398.082 394.46L383.44 402.902C382.698 403.311 381.871 403.543 381.023 403.578C380.176 403.613 379.333 403.45 378.559 403.103Z" fill="#2B303F"/>
<path d="M400.306 415.636L384.97 406.791C383.714 406.071 383.873 404.818 385.317 403.982L399.988 395.541C400.73 395.131 401.557 394.9 402.404 394.865C403.252 394.83 404.095 394.992 404.869 395.339L420.204 404.184C421.446 404.904 421.301 406.157 419.843 407.065L405.215 415.491C404.465 415.898 403.63 416.122 402.778 416.147C401.925 416.172 401.078 415.997 400.306 415.636Z" fill="#2B303F"/>
<path d="M422.067 428.153L406.731 419.323C405.475 418.603 405.634 417.35 407.078 416.442L421.72 408.001C422.462 407.591 423.289 407.36 424.137 407.325C424.984 407.29 425.828 407.452 426.601 407.799L441.936 416.644C443.192 417.364 443.034 418.617 441.59 419.453L426.947 427.879C426.212 428.304 425.388 428.549 424.54 428.597C423.692 428.645 422.845 428.493 422.067 428.153Z" fill="#2B303F"/>
<path d="M443.828 440.685L428.478 431.855C427.236 431.135 427.381 429.867 428.839 429.046L443.467 420.619C444.21 420.207 445.04 419.973 445.89 419.938C446.741 419.903 447.587 420.067 448.362 420.418L463.697 429.262C464.954 429.983 464.795 431.236 463.351 432.071L448.709 440.498C447.967 440.908 447.138 441.139 446.291 441.172C445.443 441.204 444.599 441.038 443.828 440.685Z" fill="#2B303F"/>
<path d="M465.589 453.218L450.239 444.388C448.983 443.668 449.142 442.4 450.586 441.579L465.228 433.138C465.969 432.725 466.796 432.492 467.644 432.457C468.492 432.422 469.336 432.586 470.109 432.936L485.458 441.781C486.715 442.501 486.556 443.754 485.112 444.59L470.47 453.016C469.729 453.429 468.901 453.662 468.053 453.697C467.206 453.732 466.361 453.568 465.589 453.218Z" fill="#2B303F"/>
<path d="M487.335 465.75L472 456.92C470.744 456.2 470.903 454.932 472.347 454.039L486.989 445.612C487.73 445.2 488.557 444.966 489.405 444.931C490.253 444.896 491.097 445.061 491.869 445.411L507.219 454.255C508.461 454.976 508.317 456.229 506.858 457.064L492.23 465.491C491.492 465.913 490.664 466.156 489.814 466.201C488.964 466.246 488.115 466.092 487.335 465.75Z" fill="#2B303F"/>
<path d="M509.097 478.239L493.761 469.408C492.505 468.688 492.664 467.421 494.108 466.527L508.75 458.101C509.491 457.688 510.318 457.455 511.166 457.42C512.014 457.385 512.858 457.549 513.631 457.899L528.966 466.729C530.222 467.464 530.063 468.717 528.619 469.61L513.977 478.037C513.236 478.45 512.409 478.683 511.561 478.718C510.713 478.753 509.869 478.589 509.097 478.239Z" fill="#2B303F"/>
<path d="M530.858 490.814L515.508 481.984C514.266 481.263 514.411 479.996 515.869 479.103L530.511 470.676C531.252 470.263 532.08 470.03 532.927 469.995C533.775 469.96 534.619 470.124 535.392 470.474L550.727 479.304C551.983 480.025 551.825 481.292 550.381 482.185L535.724 490.612C534.985 491.023 534.16 491.255 533.315 491.29C532.47 491.325 531.628 491.162 530.858 490.814Z" fill="#2B303F"/>
<path d="M269.942 340.544L244.137 325.678C242.881 324.958 243.04 323.705 244.484 322.797L259.126 314.37C259.867 313.958 260.694 313.724 261.542 313.689C262.39 313.654 263.234 313.818 264.007 314.169L289.811 329.02C291.067 329.74 290.908 331.008 289.464 331.901L274.822 340.328C274.083 340.743 273.255 340.978 272.408 341.016C271.56 341.053 270.715 340.892 269.942 340.544Z" fill="#2B303F"/>
<path d="M572.301 491.852L556.965 483.007C556.261 482.648 555.482 482.461 554.691 482.461C553.9 482.461 553.121 482.648 552.417 483.007L536.937 491.924C536.685 492.038 536.471 492.223 536.321 492.455C536.172 492.688 536.092 492.958 536.092 493.235C536.092 493.511 536.172 493.782 536.321 494.014C536.471 494.246 536.685 494.431 536.937 494.545L538.15 495.237C538.402 495.325 538.619 495.488 538.774 495.705C538.928 495.922 539.011 496.181 539.011 496.447C539.011 496.713 538.928 496.972 538.774 497.189C538.619 497.405 538.402 497.569 538.15 497.657L521.761 507.049C520.504 507.783 520.49 508.95 521.761 509.671L531.522 515.303C532.228 515.657 533.006 515.842 533.796 515.842C534.586 515.842 535.365 515.657 536.071 515.303L551.377 506.487L554.539 504.672L556.821 503.347L559.117 502.036L572.301 494.445C573.543 493.739 573.557 492.644 572.301 491.852Z" fill="#2B303F"/>
<path d="M196.384 370.938L181.034 362.108C179.792 361.388 179.937 360.12 181.381 359.299L196.023 350.858C196.766 350.445 197.596 350.212 198.446 350.177C199.297 350.141 200.143 350.306 200.918 350.656L216.253 359.501C217.51 360.221 217.351 361.474 215.907 362.382L201.265 370.808C200.518 371.21 199.688 371.431 198.84 371.453C197.992 371.476 197.151 371.299 196.384 370.938Z" fill="#2B303F"/>
<path d="M218.044 383.412L202.723 374.524C201.467 373.804 201.626 372.537 203.07 371.643L217.712 363.202C218.453 362.79 219.28 362.556 220.128 362.521C220.976 362.486 221.82 362.65 222.593 363.001L237.942 371.845C239.199 372.565 239.04 373.819 237.596 374.654L222.954 383.167C222.213 383.592 221.382 383.835 220.528 383.878C219.675 383.92 218.824 383.761 218.044 383.412Z" fill="#2B303F"/>
<path d="M239.704 395.887L224.369 387.057C223.112 386.337 223.271 385.069 224.715 384.248L239.357 375.807C240.098 375.394 240.926 375.161 241.774 375.126C242.621 375.091 243.466 375.255 244.238 375.605L259.588 384.45C260.844 385.17 260.685 386.423 259.241 387.259L244.599 395.685C243.856 396.098 243.026 396.332 242.176 396.367C241.325 396.402 240.479 396.237 239.704 395.887Z" fill="#2B303F"/>
<path d="M424.175 502.122L408.825 493.278C407.569 492.558 407.728 491.304 409.172 490.469L423.814 482.042C424.555 481.629 425.382 481.396 426.23 481.361C427.078 481.326 427.922 481.49 428.695 481.84L444.044 490.671C445.301 491.391 445.142 492.658 443.698 493.479L429.056 501.921C428.315 502.333 427.487 502.567 426.639 502.602C425.792 502.637 424.947 502.473 424.175 502.122Z" fill="#2B303F"/>
<path d="M445.821 514.597L430.485 505.752C429.229 505.032 429.388 503.779 430.832 502.871L445.474 494.444C446.215 494.032 447.043 493.798 447.89 493.763C448.738 493.728 449.582 493.893 450.355 494.243L465.705 503.073C466.961 503.793 466.802 505.061 465.358 505.882L450.716 514.323C449.978 514.747 449.151 514.993 448.301 515.041C447.451 515.088 446.601 514.936 445.821 514.597Z" fill="#2B303F"/>
<path d="M467.48 527.071L452.145 518.226C450.889 517.506 451.048 516.253 452.492 515.417L467.134 507.048C467.875 506.635 468.702 506.402 469.55 506.367C470.398 506.332 471.242 506.496 472.015 506.846L487.364 515.691C488.606 516.411 488.462 517.679 487.003 518.5L472.376 526.941C471.625 527.339 470.793 527.558 469.943 527.581C469.094 527.603 468.251 527.429 467.48 527.071Z" fill="#2B303F"/>
<path d="M489.141 539.546L473.805 530.701C472.549 529.981 472.708 528.728 474.152 527.892L488.794 519.465C489.534 519.049 490.362 518.814 491.21 518.779C492.058 518.744 492.903 518.91 493.675 519.264L509.024 528.094C510.266 528.814 510.107 530.067 508.663 530.903L494.021 539.344C493.279 539.753 492.452 539.985 491.605 540.02C490.758 540.055 489.914 539.892 489.141 539.546Z" fill="#2B303F"/>
<path d="M266.967 411.574L246.043 399.531C244.787 398.811 244.946 397.544 246.39 396.651L261.032 388.224C261.773 387.811 262.6 387.578 263.448 387.543C264.296 387.508 265.14 387.672 265.912 388.022L286.836 400.079C288.092 400.799 287.933 402.052 286.489 402.96L271.847 411.387C271.105 411.797 270.277 412.028 269.429 412.06C268.582 412.093 267.738 411.926 266.967 411.574Z" fill="#2B303F"/>
<path d="M402.515 489.647L381.591 477.59C380.335 476.87 380.494 475.617 381.938 474.781L396.58 466.355C397.321 465.942 398.149 465.709 398.996 465.674C399.844 465.639 400.688 465.803 401.461 466.153L422.384 478.239C423.641 478.959 423.482 480.226 422.038 481.047L407.396 489.489C406.651 489.895 405.822 490.12 404.974 490.148C404.126 490.175 403.284 490.004 402.515 489.647Z" fill="#2B303F"/>
<path d="M375.267 473.918L273.277 415.175C272.021 414.455 272.179 413.187 273.623 412.366L288.266 403.925C289.006 403.512 289.834 403.279 290.682 403.244C291.53 403.209 292.374 403.373 293.146 403.723L395.15 462.466C396.407 463.186 396.248 464.454 394.804 465.275L380.162 473.716C379.418 474.129 378.588 474.362 377.738 474.397C376.888 474.432 376.042 474.268 375.267 473.918Z" fill="#2B303F"/>
<path d="M276.555 368.604L261.205 359.76C259.963 359.039 260.122 357.786 261.566 356.951L276.208 348.596C276.949 348.183 277.777 347.95 278.625 347.915C279.472 347.88 280.317 348.044 281.089 348.394L296.424 357.224C297.681 357.945 297.522 359.212 296.078 360.033L281.436 368.474C280.689 368.876 279.859 369.097 279.011 369.119C278.163 369.142 277.322 368.965 276.555 368.604Z" fill="#2B303F"/>
<path d="M298.244 381.093L282.908 372.263C281.652 371.543 281.811 370.275 283.255 369.454L297.897 361.013C298.638 360.6 299.465 360.367 300.313 360.332C301.161 360.297 302.005 360.461 302.778 360.811L318.127 369.656C319.384 370.376 319.225 371.629 317.781 372.465L303.139 380.891C302.395 381.304 301.565 381.538 300.715 381.573C299.865 381.608 299.018 381.443 298.244 381.093Z" fill="#2B303F"/>
<path d="M319.947 393.597L304.597 384.752C303.356 384.032 303.514 382.779 304.958 381.871L319.6 373.444C320.341 373.032 321.169 372.798 322.017 372.763C322.865 372.728 323.709 372.893 324.481 373.243L339.816 382.073C341.073 382.793 340.914 384.061 339.47 384.882L324.9 393.395C324.15 393.82 323.309 394.059 322.448 394.094C321.587 394.129 320.729 393.959 319.947 393.597Z" fill="#2B303F"/>
<path d="M341.636 406.085L326.344 397.255C325.088 396.535 325.246 395.267 326.69 394.446L341.289 386.048C342.03 385.635 342.858 385.402 343.705 385.367C344.553 385.332 345.397 385.496 346.17 385.846L361.52 394.691C362.761 395.411 362.617 396.664 361.173 397.5L346.56 405.883C345.813 406.301 344.978 406.537 344.122 406.572C343.266 406.607 342.415 406.44 341.636 406.085Z" fill="#2B303F"/>
<path d="M363.339 418.588L348.004 409.744C346.762 409.023 346.921 407.77 348.365 406.935L363.007 398.508C363.748 398.095 364.576 397.862 365.424 397.827C366.271 397.792 367.115 397.956 367.888 398.306L383.223 407.136C384.48 407.857 384.321 409.11 382.877 409.945L368.22 418.387C367.478 418.796 366.651 419.027 365.804 419.062C364.956 419.097 364.113 418.935 363.339 418.588Z" fill="#2B303F"/>
<path d="M385.028 431.077L369.664 422.247C368.408 421.527 368.567 420.259 370.011 419.366L384.653 410.94C385.394 410.527 386.221 410.294 387.069 410.259C387.917 410.224 388.761 410.388 389.534 410.738L404.883 419.568C406.125 420.303 405.981 421.556 404.522 422.449L389.88 430.876C389.142 431.282 388.32 431.511 387.478 431.546C386.636 431.581 385.798 431.421 385.028 431.077Z" fill="#2B303F"/>
<path d="M406.731 443.581L391.324 434.736C390.082 434.016 390.226 432.763 391.685 431.927L406.385 423.5C407.124 423.085 407.952 422.849 408.799 422.812C409.647 422.774 410.492 422.936 411.266 423.284L426.601 432.143C427.857 432.863 427.698 434.117 426.254 434.952L411.612 443.393C410.869 443.8 410.041 444.029 409.194 444.062C408.347 444.094 407.504 443.93 406.731 443.581Z" fill="#2B303F"/>
<path d="M428.42 456.07L413.085 447.24C411.829 446.519 411.988 445.252 413.432 444.359L428.074 435.932C428.815 435.519 429.642 435.286 430.49 435.251C431.338 435.216 432.182 435.38 432.954 435.73L448.304 444.56C449.546 445.28 449.402 446.548 447.943 447.441L433.315 455.868C432.572 456.281 431.742 456.514 430.892 456.549C430.042 456.584 429.195 456.42 428.42 456.07Z" fill="#2B303F"/>
<path d="M450.124 468.573L434.774 459.729C433.532 459.009 433.677 457.755 435.135 456.92L449.763 448.479C450.507 448.069 451.337 447.838 452.187 447.803C453.036 447.768 453.882 447.93 454.658 448.277L469.993 457.121C471.25 457.842 471.091 459.095 469.647 460.002L455.005 468.429C454.259 468.833 453.429 469.056 452.581 469.081C451.734 469.106 450.892 468.932 450.124 468.573Z" fill="#2B303F"/>
<path d="M471.812 481.12L456.477 472.29C455.221 471.555 455.38 470.302 456.824 469.409L471.466 460.953C472.207 460.541 473.034 460.307 473.882 460.272C474.73 460.237 475.574 460.401 476.347 460.752L491.696 469.596C492.938 470.316 492.779 471.584 491.335 472.477L476.693 480.904C475.953 481.319 475.126 481.555 474.279 481.592C473.431 481.63 472.586 481.468 471.812 481.12Z" fill="#2B303F"/>
<path d="M493.516 493.551L478.166 484.721C476.924 484.001 477.069 482.747 478.513 481.912L493.155 473.471C493.899 473.061 494.729 472.83 495.579 472.795C496.428 472.76 497.274 472.922 498.05 473.269L513.385 482.114C514.641 482.834 514.483 484.087 513.039 484.923L498.396 493.349C497.656 493.762 496.828 493.995 495.98 494.03C495.132 494.065 494.288 493.901 493.516 493.551Z" fill="#2B303F"/>
<path d="M515.205 506.054L499.87 497.209C498.613 496.489 498.772 495.236 500.216 494.401L514.858 485.974C515.599 485.561 516.427 485.328 517.275 485.293C518.122 485.258 518.967 485.422 519.739 485.772L535.089 494.602C536.331 495.322 536.172 496.59 534.728 497.411L520.086 505.852C519.345 506.265 518.517 506.498 517.669 506.533C516.822 506.568 515.977 506.404 515.205 506.054Z" fill="#2B303F"/>
<path d="M254.852 356.1L223.084 337.835C221.827 337.115 221.986 335.847 223.43 334.954L238.072 326.527C238.813 326.115 239.641 325.881 240.489 325.846C241.336 325.811 242.18 325.976 242.953 326.326L274.721 344.605C275.977 345.326 275.818 346.579 274.374 347.414L259.732 355.841C258.995 356.261 258.17 356.503 257.323 356.548C256.475 356.593 255.629 356.44 254.852 356.1Z" fill="#2B303F"/>
<path d="M244.729 374.525L229.394 365.695C228.137 364.96 228.296 363.707 229.74 362.814L244.382 354.387C245.123 353.974 245.951 353.741 246.799 353.706C247.646 353.671 248.491 353.835 249.263 354.185L264.613 363.015C265.855 363.736 265.696 365.003 264.252 365.896L249.61 374.323C248.869 374.736 248.041 374.969 247.193 375.004C246.346 375.039 245.501 374.875 244.729 374.525Z" fill="#2B303F"/>
<path d="M266.418 387.014L251.083 378.184C249.826 377.463 249.985 376.196 251.429 375.303L266.071 366.861C266.812 366.449 267.64 366.215 268.488 366.18C269.335 366.145 270.179 366.31 270.952 366.66L286.302 375.504C287.558 376.225 287.399 377.478 285.955 378.313L271.313 386.74C270.575 387.164 269.748 387.41 268.898 387.458C268.048 387.505 267.198 387.353 266.418 387.014Z" fill="#2B303F"/>
<path d="M288.121 399.516L272.772 390.672C271.515 389.951 271.674 388.698 273.118 387.863L287.76 379.436C288.502 379.021 289.332 378.785 290.182 378.747C291.032 378.71 291.879 378.872 292.655 379.22L307.991 388.064C309.247 388.785 309.088 390.038 307.644 390.945L293.002 399.387C292.254 399.785 291.424 400.004 290.577 400.026C289.73 400.049 288.889 399.874 288.121 399.516Z" fill="#2B303F"/>
<path d="M309.81 411.977L294.461 403.132C293.219 402.412 293.378 401.159 294.822 400.323L309.464 391.897C310.205 391.484 311.032 391.251 311.88 391.216C312.728 391.181 313.572 391.345 314.345 391.695L329.68 400.525C330.936 401.245 330.777 402.513 329.333 403.406L314.691 411.833C313.946 412.236 313.116 412.46 312.268 412.485C311.42 412.51 310.578 412.336 309.81 411.977Z" fill="#2B303F"/>
<path d="M331.499 424.494L316.236 415.664C314.98 414.944 315.138 413.676 316.582 412.855L331.225 404.414C331.965 404.001 332.793 403.768 333.641 403.733C334.489 403.698 335.333 403.862 336.105 404.212L351.455 413.057C352.697 413.777 352.538 415.03 351.094 415.866L336.452 424.293C335.702 424.717 334.861 424.957 334 424.992C333.138 425.027 332.281 424.857 331.499 424.494Z" fill="#2B303F"/>
<path d="M353.188 436.998L337.896 428.153C336.64 427.433 336.799 426.18 338.243 425.272L352.885 416.831C353.627 416.421 354.454 416.19 355.301 416.155C356.148 416.12 356.992 416.282 357.765 416.629L373.115 425.474C374.357 426.194 374.213 427.447 372.754 428.283L358.112 436.796C357.364 437.21 356.529 437.444 355.674 437.479C354.819 437.514 353.968 437.349 353.188 436.998Z" fill="#2B303F"/>
<path d="M374.891 449.429L359.556 440.642C358.3 439.922 358.459 438.669 359.903 437.833L374.545 429.406C375.286 428.994 376.113 428.76 376.961 428.725C377.809 428.69 378.653 428.855 379.426 429.205L394.775 438.035C396.032 438.755 395.873 440.023 394.429 440.916L379.772 449.285C379.027 449.689 378.197 449.912 377.349 449.937C376.501 449.962 375.659 449.788 374.891 449.429Z" fill="#2B303F"/>
<path d="M396.58 461.976L381.216 453.146C379.974 452.426 380.119 451.158 381.577 450.265L396.205 441.838C396.948 441.425 397.778 441.192 398.628 441.157C399.478 441.122 400.325 441.286 401.1 441.637L416.435 450.467C417.691 451.201 417.533 452.455 416.089 453.348L401.432 461.774C400.695 462.183 399.872 462.413 399.03 462.448C398.188 462.483 397.349 462.322 396.58 461.976Z" fill="#2B303F"/>
<path d="M418.269 474.465L402.876 465.635C401.62 464.915 401.779 463.661 403.223 462.826L417.865 454.385C418.607 453.975 419.434 453.744 420.281 453.709C421.128 453.674 421.972 453.836 422.745 454.183L438.081 463.028C439.337 463.748 439.178 465.001 437.734 465.836L423.092 474.263C422.36 474.67 421.542 474.9 420.705 474.935C419.867 474.97 419.033 474.809 418.269 474.465Z" fill="#2B303F"/>
<path d="M439.958 486.968L424.623 478.124C423.366 477.403 423.525 476.15 424.969 475.315L439.611 466.888C440.352 466.475 441.18 466.242 442.028 466.207C442.875 466.172 443.72 466.336 444.492 466.686L459.842 475.516C461.084 476.236 460.925 477.504 459.481 478.325L444.839 486.766C444.098 487.179 443.27 487.412 442.422 487.447C441.575 487.482 440.73 487.318 439.958 486.968Z" fill="#2B303F"/>
<path d="M461.647 499.457L446.312 490.627C445.055 489.907 445.214 488.639 446.658 487.746L461.3 479.319C462.041 478.907 462.869 478.673 463.717 478.638C464.564 478.603 465.408 478.768 466.181 479.118L481.531 487.948C482.787 488.668 482.628 489.936 481.184 490.829L466.542 499.256C465.799 499.669 464.969 499.902 464.118 499.937C463.268 499.972 462.422 499.808 461.647 499.457Z" fill="#2B303F"/>
<path d="M510.194 527.416L468.001 503.115C466.744 502.395 466.903 501.128 468.347 500.307L482.989 491.865C483.734 491.456 484.563 491.224 485.413 491.189C486.263 491.154 487.109 491.317 487.884 491.664L530.078 515.965C531.32 516.685 531.161 517.952 529.717 518.845L515.075 527.215C514.334 527.627 513.506 527.861 512.659 527.896C511.811 527.931 510.967 527.767 510.194 527.416Z" fill="#2B303F"/>
<path d="M223.04 362.036L202.16 350.037C200.903 349.316 201.062 348.063 202.506 347.156L217.148 338.729C217.891 338.314 218.72 338.078 219.57 338.04C220.42 338.003 221.267 338.165 222.044 338.513L242.953 350.57C244.209 351.29 244.05 352.543 242.606 353.451L227.964 361.892C227.212 362.299 226.375 362.524 225.519 362.55C224.664 362.575 223.815 362.399 223.04 362.036Z" fill="#2B303F"/>
<path d="M595.144 478.484L287.067 301.06C285.811 300.34 285.969 299.072 287.413 298.179L294.735 293.973C295.475 293.56 296.303 293.327 297.151 293.292C297.999 293.257 298.843 293.421 299.615 293.771L607.693 471.267C608.949 471.987 608.79 473.24 607.346 474.076L600.025 478.239C599.288 478.658 598.462 478.899 597.614 478.942C596.766 478.984 595.92 478.827 595.144 478.484Z" fill="#2B303F"/>
<path d="M404.32 498.665C403.886 499.62 403.137 500.398 402.197 500.869L317.42 549.701C315.992 550.494 314.397 550.941 312.764 551.006C311.132 551.071 309.506 550.752 308.02 550.075L163.172 466.715C162.531 466.384 162.022 465.845 161.728 465.188C161.194 463.906 161.93 462.408 163.851 461.299L248.628 412.467C250.056 411.675 251.649 411.227 253.282 411.159C254.914 411.092 256.54 411.406 258.028 412.078L402.876 495.525C403.468 495.772 403.945 496.232 404.212 496.813C404.48 497.395 404.518 498.056 404.32 498.665Z" fill="#B1B4C4"/>
<path d="M404.32 498.665C403.886 499.621 403.137 500.399 402.197 500.869L317.42 549.701C315.992 550.494 314.398 550.941 312.765 551.006C311.132 551.071 309.506 550.753 308.02 550.076L163.172 466.715C162.531 466.384 162.022 465.846 161.728 465.189C162.17 464.239 162.917 463.463 163.851 462.985L248.628 414.167C250.056 413.375 251.65 412.927 253.282 412.86C254.914 412.792 256.54 413.107 258.028 413.778L402.876 497.153C403.514 497.481 404.022 498.014 404.32 498.665Z" fill="#C3C6D1"/>
<path d="M618.595 465.029L310.46 287.591C309.769 287.099 309.203 286.451 308.81 285.701C308.416 284.95 308.205 284.117 308.193 283.27V279.669C308.193 277.998 309.204 277.234 310.46 277.955L618.595 455.393C619.286 455.885 619.852 456.533 620.245 457.284C620.639 458.034 620.851 458.867 620.862 459.714V463.33C620.92 464.986 619.851 465.75 618.595 465.029Z" fill="#2B303F"/>
<path opacity="0.4" d="M554.121 679.142L497.27 646.4C492.462 643.62 493.068 638.78 498.628 635.582L635.923 556.5C641.483 553.302 649.901 552.956 654.695 555.722L711.531 588.464C716.354 591.229 715.748 596.084 710.188 599.282L572.878 678.364C567.333 681.562 558.929 681.908 554.121 679.142Z" fill="#D6D8E5"/>
<path d="M561.312 674.821L504.476 642.093C499.667 639.313 500.259 634.473 505.819 631.275L643.129 552.193C648.688 548.995 657.092 548.649 661.901 551.415L718.737 584.157C723.545 586.923 722.953 591.763 717.394 594.975L580.084 674.043C574.539 677.255 566.135 677.601 561.312 674.821Z" fill="#B1B4C4"/>
<path d="M501.227 637.325V632.096L507.364 634.415L501.227 637.325Z" fill="#B1B4C4"/>
<path d="M722 588.68V583.652L717.12 586.793L722 588.68Z" fill="#B1B4C4"/>
<path d="M561.312 670.412L504.476 637.67C499.667 634.905 500.259 630.05 505.819 626.852L643.129 547.77C648.688 544.572 657.092 544.227 661.901 546.992L718.737 579.734C723.545 582.5 722.953 587.354 717.394 590.552L580.084 669.634C574.539 672.832 566.135 673.178 561.312 670.412Z" fill="#616E84"/>
<path d="M511.337 644.384C511.627 644.217 511.626 643.674 511.335 643.171C511.044 642.668 510.573 642.396 510.283 642.563C509.993 642.73 509.994 643.273 510.285 643.776C510.576 644.279 511.047 644.551 511.337 644.384Z" fill="#757B89"/>
<path d="M514.062 645.98C514.352 645.813 514.351 645.27 514.06 644.767C513.769 644.264 513.298 643.991 513.008 644.158C512.718 644.325 512.718 644.869 513.009 645.372C513.301 645.875 513.772 646.147 514.062 645.98Z" fill="#757B89"/>
<path d="M516.806 647.541C517.096 647.374 517.095 646.831 516.804 646.328C516.513 645.825 516.042 645.553 515.752 645.72C515.462 645.887 515.463 646.43 515.754 646.933C516.045 647.436 516.516 647.708 516.806 647.541Z" fill="#757B89"/>
<path d="M519.538 649.124C519.828 648.957 519.827 648.414 519.536 647.911C519.245 647.408 518.774 647.136 518.484 647.303C518.194 647.47 518.194 648.013 518.486 648.516C518.777 649.019 519.248 649.291 519.538 649.124Z" fill="#757B89"/>
<path d="M545.188 665.293C545.48 665.126 545.48 664.581 545.189 664.075C544.898 663.57 544.426 663.296 544.134 663.463C543.843 663.63 543.842 664.175 544.134 664.68C544.425 665.186 544.897 665.46 545.188 665.293Z" fill="#757B89"/>
<path d="M545.776 664.22C546.066 664.053 546.065 663.51 545.774 663.007C545.483 662.504 545.012 662.232 544.722 662.399C544.432 662.566 544.433 663.109 544.724 663.612C545.015 664.115 545.486 664.387 545.776 664.22Z" fill="#757B89"/>
<path d="M548.493 665.803C548.783 665.636 548.783 665.093 548.492 664.59C548.2 664.087 547.729 663.815 547.439 663.982C547.149 664.149 547.15 664.692 547.441 665.195C547.732 665.698 548.203 665.97 548.493 665.803Z" fill="#757B89"/>
<path d="M551.232 667.384C551.522 667.217 551.521 666.674 551.23 666.171C550.939 665.668 550.468 665.396 550.178 665.563C549.888 665.73 549.889 666.273 550.18 666.776C550.471 667.279 550.942 667.551 551.232 667.384Z" fill="#757B89"/>
<path d="M534.526 658.298L527.06 653.977C526.802 653.787 526.59 653.54 526.442 653.255C526.295 652.97 526.215 652.655 526.208 652.335C526.208 651.701 526.598 651.413 527.06 651.686L534.584 656.008C534.847 656.195 535.062 656.441 535.213 656.726C535.363 657.011 535.445 657.328 535.45 657.65C535.392 658.298 535.002 658.543 534.526 658.298Z" fill="#757B89"/>
<path d="M704.802 601.097L697.813 605.13C697.365 605.39 697.004 605.13 697.004 604.525C697.01 604.225 697.086 603.931 697.226 603.666C697.367 603.401 697.568 603.172 697.813 602.998L704.802 598.965C705.235 598.72 705.596 598.965 705.596 599.57C705.592 599.869 705.518 600.162 705.381 600.427C705.243 600.693 705.044 600.922 704.802 601.097Z" fill="#757B89"/>
<path d="M694.088 607.262L687.099 611.295C686.651 611.555 686.305 611.295 686.305 610.69C686.307 610.392 686.381 610.098 686.519 609.832C686.657 609.567 686.856 609.338 687.099 609.163L694.088 605.13C694.535 604.885 694.896 605.13 694.896 605.735C694.893 606.035 694.818 606.331 694.678 606.596C694.537 606.862 694.335 607.09 694.088 607.262Z" fill="#757B89"/>
<path d="M561.312 669.606L504.476 636.864C499.667 634.098 500.259 629.258 505.819 626.046L643.129 546.978C648.688 543.766 657.092 543.42 661.901 546.2L718.737 578.928C723.545 581.708 722.953 586.548 717.394 589.746L580.084 668.828C574.539 672.026 566.135 672.372 561.312 669.606Z" fill="#20232D"/>
<path d="M712.643 580.239L690.463 567.462C688.991 568.207 687.363 568.595 685.712 568.595C684.061 568.595 682.434 568.207 680.962 567.462C678.348 566.021 678.348 563.5 680.962 561.988L658.767 549.211C656.877 548.252 654.787 547.752 652.666 547.752C650.546 547.752 648.456 548.252 646.566 549.211L512.851 626.219C509.472 628.163 509.472 631.318 512.851 633.248L566.727 664.276C568.617 665.235 570.707 665.735 572.828 665.735C574.948 665.735 577.039 665.235 578.929 664.276L712.643 587.268C716.022 585.323 716.022 582.183 712.643 580.239Z" fill="#2B303F"/>
<path opacity="0.5" d="M712.643 580.239L690.463 567.462C688.991 568.207 687.363 568.595 685.712 568.595C684.061 568.595 682.434 568.207 680.962 567.462C678.348 566.021 678.348 563.5 680.962 561.988L658.767 549.211C656.877 548.252 654.787 547.752 652.666 547.752C650.546 547.752 648.456 548.252 646.566 549.211L512.851 626.219C509.472 628.163 509.472 631.318 512.851 633.248L566.727 664.276C568.617 665.235 570.707 665.735 572.828 665.735C574.948 665.735 577.039 665.235 578.929 664.276L712.643 587.268C716.022 585.323 716.022 582.183 712.643 580.239Z" fill="url(#paint1_linear_418_1259)"/>
<path d="M684.196 567.059C685.6 567.059 686.738 566.401 686.738 565.589C686.738 564.778 685.6 564.12 684.196 564.12C682.793 564.12 681.655 564.778 681.655 565.589C681.655 566.401 682.793 567.059 684.196 567.059Z" fill="#2B303F"/>
<path opacity="0.1" d="M683.445 566.021C683.027 565.791 683.027 565.402 683.445 565.157C683.68 565.036 683.94 564.973 684.204 564.973C684.467 564.973 684.727 565.036 684.962 565.157C685.05 565.19 685.126 565.249 685.18 565.326C685.234 565.403 685.263 565.495 685.263 565.589C685.263 565.683 685.234 565.775 685.18 565.853C685.126 565.93 685.05 565.989 684.962 566.021C684.727 566.143 684.467 566.206 684.204 566.206C683.94 566.206 683.68 566.143 683.445 566.021Z" fill="white"/>
<path d="M80.9362 321.126L65.4565 312.209C60.648 309.444 61.2545 304.589 66.8139 301.391L85.0372 290.89C90.5965 287.692 99.0006 287.347 103.809 290.112L119.289 299.029C124.112 301.809 123.505 306.649 117.946 309.847L99.7226 320.348C94.1632 323.546 85.7447 323.892 80.9362 321.126Z" fill="#B1B4C4"/>
<path d="M122.538 303.308C122.538 303.178 122.538 298.237 122.538 298.237L117.282 301.061L122.538 303.308Z" fill="#B1B4C4"/>
<path d="M168.558 268.059V265.869L165.063 266.964L168.558 268.059Z" fill="#B1B4C4"/>
<path opacity="0.4" d="M84.1708 322.394C83.3122 322.159 82.4723 321.86 81.6582 321.501L71.0304 312.858L73.8029 310.193L63.6949 308.896C63.6927 309.646 63.5138 310.385 63.1726 311.053C62.8315 311.721 62.3377 312.3 61.731 312.743L4.77967 343.381C-0.606448 346.479 -1.96381 352.24 3.43675 355.352C8.23083 358.694 16.505 358.42 21.9055 355.352L81.1817 324.108H81.2972C83.2611 322.984 87.853 323.071 87.853 323.071C86.6095 322.943 85.3782 322.717 84.1708 322.394ZM58.3954 325.937C58.5925 326.007 58.7632 326.136 58.8839 326.306C59.0046 326.476 59.0694 326.679 59.0694 326.888C59.0694 327.097 59.0046 327.3 58.8839 327.47C58.7632 327.641 58.5925 327.769 58.3954 327.839C57.8841 328.102 57.3172 328.239 56.742 328.239C56.1668 328.239 55.6 328.102 55.0886 327.839C54.8844 327.777 54.7056 327.651 54.5785 327.48C54.4515 327.308 54.3829 327.101 54.3829 326.888C54.3829 326.675 54.4515 326.468 54.5785 326.297C54.7056 326.125 54.8844 325.999 55.0886 325.937C55.6 325.675 56.1668 325.537 56.742 325.537C57.3172 325.537 57.8841 325.675 58.3954 325.937ZM53.1392 328.962C53.3363 329.032 53.507 329.161 53.6277 329.331C53.7484 329.501 53.8132 329.704 53.8132 329.913C53.8132 330.122 53.7484 330.325 53.6277 330.495C53.507 330.666 53.3363 330.794 53.1392 330.864C52.6279 331.127 52.061 331.264 51.4859 331.264C50.9107 331.264 50.3438 331.127 49.8325 330.864C49.6282 330.802 49.4494 330.676 49.3224 330.505C49.1953 330.333 49.1267 330.126 49.1267 329.913C49.1267 329.7 49.1953 329.493 49.3224 329.322C49.4494 329.15 49.6282 329.024 49.8325 328.962C50.3438 328.7 50.9107 328.562 51.4859 328.562C52.061 328.562 52.6279 328.7 53.1392 328.962ZM47.8831 331.987C48.0802 332.057 48.2508 332.186 48.3715 332.356C48.4923 332.526 48.5571 332.729 48.5571 332.938C48.5571 333.147 48.4923 333.35 48.3715 333.52C48.2508 333.691 48.0802 333.819 47.8831 333.889C47.3692 334.152 46.8 334.289 46.2225 334.289C45.645 334.289 45.0757 334.152 44.5619 333.889C44.3648 333.819 44.1941 333.691 44.0734 333.52C43.9527 333.35 43.8879 333.147 43.8879 332.938C43.8879 332.729 43.9527 332.526 44.0734 332.356C44.1941 332.186 44.3648 332.057 44.5619 331.987C45.0777 331.731 45.6462 331.598 46.2225 331.598C46.7988 331.598 47.3672 331.731 47.8831 331.987ZM42.6269 335.012C42.8291 335.079 43.0052 335.207 43.1301 335.379C43.2549 335.551 43.3221 335.758 43.3221 335.97C43.3221 336.183 43.2549 336.39 43.1301 336.562C43.0052 336.734 42.8291 336.862 42.6269 336.928C42.111 337.184 41.5426 337.318 40.9663 337.318C40.39 337.318 39.8216 337.184 39.3057 336.928C39.1035 336.862 38.9274 336.734 38.8026 336.562C38.6777 336.39 38.6105 336.183 38.6105 335.97C38.6105 335.758 38.6777 335.551 38.8026 335.379C38.9274 335.207 39.1035 335.079 39.3057 335.012C39.8216 334.756 40.39 334.623 40.9663 334.623C41.5426 334.623 42.111 334.756 42.6269 335.012ZM37.3708 338.037C37.573 338.104 37.7491 338.232 37.8739 338.404C37.9987 338.576 38.0659 338.783 38.0659 338.995C38.0659 339.208 37.9987 339.415 37.8739 339.587C37.7491 339.759 37.573 339.887 37.3708 339.953C36.8549 340.209 36.2864 340.343 35.7102 340.343C35.1339 340.343 34.5654 340.209 34.0496 339.953C33.8473 339.887 33.6712 339.759 33.5464 339.587C33.4216 339.415 33.3544 339.208 33.3544 338.995C33.3544 338.783 33.4216 338.576 33.5464 338.404C33.6712 338.232 33.8473 338.104 34.0496 338.037C34.5654 337.781 35.1339 337.648 35.7102 337.648C36.2864 337.648 36.8549 337.781 37.3708 338.037ZM23.7105 346.09C22.7142 345.629 22.5698 344.779 23.3928 344.203C23.8872 343.913 24.4438 343.745 25.0163 343.712C25.5888 343.679 26.1609 343.783 26.6852 344.015C27.6815 344.491 27.8259 345.341 27.0028 345.917C26.506 346.201 25.9492 346.365 25.3773 346.395C24.8054 346.425 24.2345 346.32 23.7105 346.09ZM28.9667 343.065C27.9703 342.589 27.8259 341.739 28.649 341.163C29.1446 340.876 29.7017 340.71 30.2742 340.68C30.8467 340.65 31.4182 340.756 31.9413 340.99C32.9377 341.451 33.0821 342.301 32.259 342.877C31.7646 343.167 31.2081 343.335 30.6355 343.368C30.063 343.4 29.4909 343.296 28.9667 343.065Z" fill="#D6D8E5"/>
<path d="M85.8601 314.702L81.2248 316.287L71.1168 310.525L73.8893 307.86L63.7813 306.563C63.7803 307.313 63.6019 308.053 63.2606 308.721C62.9194 309.389 62.425 309.968 61.8175 310.41L6.00687 342.561C0.620756 345.672 0.620756 350.7 6.00687 353.811C9.0339 355.336 12.3774 356.13 15.7683 356.13C19.1592 356.13 22.5027 355.336 25.5298 353.811L81.297 321.688H81.427C83.3908 320.565 88.0983 320.565 88.0983 320.565L85.8601 314.702ZM58.5251 323.576C58.7223 323.645 58.8929 323.774 59.0136 323.944C59.1343 324.114 59.1992 324.318 59.1992 324.526C59.1992 324.735 59.1343 324.938 59.0136 325.108C58.8929 325.279 58.7223 325.407 58.5251 325.477C58.0113 325.74 57.4421 325.877 56.8645 325.877C56.287 325.877 55.7178 325.74 55.2039 325.477C55.0068 325.407 54.8362 325.279 54.7155 325.108C54.5948 324.938 54.5299 324.735 54.5299 324.526C54.5299 324.318 54.5948 324.114 54.7155 323.944C54.8362 323.774 55.0068 323.645 55.2039 323.576C55.7178 323.313 56.287 323.175 56.8645 323.175C57.4421 323.175 58.0113 323.313 58.5251 323.576ZM53.269 326.6C53.4661 326.67 53.6368 326.799 53.7575 326.969C53.8782 327.139 53.943 327.343 53.943 327.551C53.943 327.76 53.8782 327.963 53.7575 328.133C53.6368 328.304 53.4661 328.432 53.269 328.502C52.7551 328.765 52.1859 328.902 51.6084 328.902C51.0309 328.902 50.4617 328.765 49.9478 328.502C49.7507 328.432 49.58 328.304 49.4593 328.133C49.3386 327.963 49.2738 327.76 49.2738 327.551C49.2738 327.343 49.3386 327.139 49.4593 326.969C49.58 326.799 49.7507 326.67 49.9478 326.6C50.4617 326.338 51.0309 326.2 51.6084 326.2C52.1859 326.2 52.7551 326.338 53.269 326.6ZM47.9984 329.626C48.2006 329.692 48.3767 329.82 48.5015 329.992C48.6264 330.164 48.6936 330.371 48.6936 330.583C48.6936 330.796 48.6264 331.003 48.5015 331.175C48.3767 331.347 48.2006 331.475 47.9984 331.541C47.4825 331.798 46.9141 331.931 46.3378 331.931C45.7615 331.931 45.1931 331.798 44.6772 331.541C44.475 331.475 44.2989 331.347 44.174 331.175C44.0492 331.003 43.982 330.796 43.982 330.583C43.982 330.371 44.0492 330.164 44.174 329.992C44.2989 329.82 44.475 329.692 44.6772 329.626C45.1924 329.367 45.7611 329.232 46.3378 329.232C46.9145 329.232 47.4832 329.367 47.9984 329.626ZM42.7422 332.65C42.9445 332.717 43.1205 332.845 43.2454 333.017C43.3702 333.189 43.4374 333.396 43.4374 333.608C43.4374 333.821 43.3702 334.028 43.2454 334.2C43.1205 334.372 42.9445 334.5 42.7422 334.566C42.2289 334.822 41.6628 334.956 41.0888 334.956C40.5149 334.956 39.9488 334.822 39.4355 334.566C39.2332 334.5 39.0572 334.372 38.9323 334.2C38.8075 334.028 38.7403 333.821 38.7403 333.608C38.7403 333.396 38.8075 333.189 38.9323 333.017C39.0572 332.845 39.2332 332.717 39.4355 332.65C39.9488 332.394 40.5149 332.261 41.0888 332.261C41.6628 332.261 42.2289 332.394 42.7422 332.65ZM37.5438 335.632C38.468 336.151 38.468 337.073 37.5438 337.534C37.0325 337.797 36.4656 337.934 35.8904 337.934C35.3153 337.934 34.7484 337.797 34.2371 337.534C34.04 337.464 33.8693 337.336 33.7486 337.165C33.6279 336.995 33.5631 336.792 33.5631 336.583C33.5631 336.374 33.6279 336.171 33.7486 336.001C33.8693 335.831 34.04 335.702 34.2371 335.632C34.7484 335.369 35.3153 335.232 35.8904 335.232C36.4656 335.232 37.0325 335.369 37.5438 335.632ZM23.898 343.67C22.8872 343.209 22.7428 342.359 23.5659 341.783C24.0629 341.493 24.6218 341.325 25.1967 341.292C25.7716 341.26 26.3459 341.364 26.8727 341.596C27.869 342.071 28.0134 342.921 27.1904 343.497C26.6925 343.804 26.1274 343.985 25.5438 344.025C24.9602 344.065 24.3756 343.963 23.8403 343.728L23.898 343.67ZM29.1542 340.645C28.1434 340.17 27.999 339.32 28.8221 338.744C29.3214 338.459 29.8806 338.296 30.4549 338.266C31.0291 338.236 31.6024 338.34 32.1288 338.571C33.1252 339.032 33.2696 339.882 32.4465 340.458C31.9498 340.767 31.3854 340.95 30.8018 340.993C30.2182 341.035 29.6329 340.936 29.0964 340.703L29.1542 340.645Z" fill="#B1B4C4"/>
<path d="M85.8601 312.685L81.2248 314.284L71.1168 308.522L73.8893 305.842L62.5683 304.546C62.5683 304.546 63.8102 307.268 61.8463 308.406L6.00687 340.558C0.620756 343.655 0.620756 348.697 6.00687 351.794C9.03087 353.328 12.3756 354.128 15.7683 354.128C19.161 354.128 22.5058 353.328 25.5298 351.794L81.297 319.685H81.427C83.3908 318.547 88.0983 318.245 88.0983 318.245L85.8601 312.685ZM58.5251 321.558C58.7274 321.624 58.9035 321.753 59.0283 321.925C59.1531 322.097 59.2203 322.304 59.2203 322.516C59.2203 322.728 59.1531 322.935 59.0283 323.107C58.9035 323.279 58.7274 323.407 58.5251 323.474C58.0093 323.73 57.4408 323.863 56.8645 323.863C56.2883 323.863 55.7198 323.73 55.2039 323.474C55.0017 323.407 54.8256 323.279 54.7008 323.107C54.576 322.935 54.5088 322.728 54.5088 322.516C54.5088 322.304 54.576 322.097 54.7008 321.925C54.8256 321.753 55.0017 321.624 55.2039 321.558C55.7198 321.302 56.2883 321.168 56.8645 321.168C57.4408 321.168 58.0093 321.302 58.5251 321.558ZM53.269 324.597C53.4661 324.667 53.6368 324.796 53.7575 324.966C53.8782 325.136 53.943 325.34 53.943 325.548C53.943 325.757 53.8782 325.96 53.7575 326.13C53.6368 326.301 53.4661 326.429 53.269 326.499C52.7551 326.762 52.1859 326.899 51.6084 326.899C51.0309 326.899 50.4617 326.762 49.9478 326.499C49.7507 326.429 49.58 326.301 49.4593 326.13C49.3386 325.96 49.2738 325.757 49.2738 325.548C49.2738 325.34 49.3386 325.136 49.4593 324.966C49.58 324.796 49.7507 324.667 49.9478 324.597C50.4617 324.334 51.0309 324.197 51.6084 324.197C52.1859 324.197 52.7551 324.334 53.269 324.597ZM47.9984 327.622C48.1955 327.692 48.3662 327.821 48.4869 327.991C48.6076 328.161 48.6724 328.365 48.6724 328.573C48.6724 328.782 48.6076 328.985 48.4869 329.155C48.3662 329.326 48.1955 329.454 47.9984 329.524C47.4845 329.787 46.9153 329.924 46.3378 329.924C45.7603 329.924 45.1911 329.787 44.6772 329.524C44.4801 329.454 44.3094 329.326 44.1887 329.155C44.068 328.985 44.0032 328.782 44.0032 328.573C44.0032 328.365 44.068 328.161 44.1887 327.991C44.3094 327.821 44.4801 327.692 44.6772 327.622C45.1904 327.357 45.7598 327.219 46.3378 327.219C46.9157 327.219 47.4852 327.357 47.9984 327.622ZM42.7422 330.647C42.9465 330.709 43.1253 330.835 43.2523 331.007C43.3794 331.178 43.448 331.385 43.448 331.598C43.448 331.811 43.3794 332.018 43.2523 332.19C43.1253 332.361 42.9465 332.487 42.7422 332.549C42.2309 332.812 41.664 332.949 41.0888 332.949C40.5137 332.949 39.9468 332.812 39.4355 332.549C39.2384 332.479 39.0677 332.351 38.947 332.18C38.8263 332.01 38.7615 331.807 38.7615 331.598C38.7615 331.39 38.8263 331.186 38.947 331.016C39.0677 330.846 39.2384 330.717 39.4355 330.647C39.9468 330.385 40.5137 330.247 41.0888 330.247C41.664 330.247 42.2309 330.385 42.7422 330.647ZM37.5438 333.672C37.7637 333.726 37.9592 333.852 38.099 334.029C38.2388 334.207 38.3147 334.426 38.3147 334.652C38.3147 334.878 38.2388 335.097 38.099 335.275C37.9592 335.452 37.7637 335.578 37.5438 335.631C37.0305 335.887 36.4644 336.021 35.8904 336.021C35.3165 336.021 34.7504 335.887 34.2371 335.631C34.0348 335.565 33.8588 335.437 33.7339 335.265C33.6091 335.093 33.5419 334.886 33.5419 334.673C33.5419 334.461 33.6091 334.254 33.7339 334.082C33.8588 333.91 34.0348 333.782 34.2371 333.716C34.747 333.453 35.3114 333.312 35.8853 333.305C36.4593 333.297 37.0271 333.423 37.5438 333.672ZM23.898 341.725C22.8872 341.249 22.7428 340.399 23.5659 339.823C24.0641 339.537 24.6228 339.37 25.197 339.338C25.7712 339.305 26.3451 339.407 26.8727 339.636C27.869 340.111 28.0134 340.961 27.1904 341.537C26.6889 341.837 26.122 342.01 25.5384 342.043C24.9549 342.075 24.3722 341.966 23.8403 341.725H23.898ZM29.1542 338.7C28.1434 338.224 27.999 337.374 28.8221 336.798C29.3191 336.508 29.878 336.34 30.4529 336.308C31.0277 336.275 31.6021 336.379 32.1288 336.611C33.1252 337.086 33.2696 337.936 32.4465 338.512C31.945 338.812 31.3781 338.985 30.7946 339.018C30.2111 339.05 29.6283 338.941 29.0964 338.7H29.1542Z" fill="#D6D8E5"/>
<path opacity="0.4" d="M126.061 298.381C126.095 298.387 126.129 298.387 126.162 298.381L165.67 273.086C165.465 270.522 165.079 267.976 164.515 265.466C161.486 263.939 158.14 263.144 154.746 263.144C151.353 263.144 148.006 263.939 144.978 265.466L106.538 287.548C104.574 288.672 99.8525 288.672 99.8525 288.672L102.105 294.434L106.74 292.835L116.848 298.597L122.538 299.49V301.953C123.47 300.547 124.667 299.334 126.061 298.381ZM149.295 279.655L139.75 274.152C139.533 274.079 139.344 273.939 139.21 273.753C139.076 273.567 139.004 273.344 139.004 273.115C139.004 272.886 139.076 272.663 139.21 272.476C139.344 272.29 139.533 272.151 139.75 272.078C140.311 271.801 140.929 271.657 141.555 271.657C142.181 271.657 142.799 271.801 143.36 272.078L152.891 277.566C153.106 277.643 153.293 277.785 153.425 277.971C153.557 278.158 153.628 278.381 153.628 278.61C153.628 278.839 153.557 279.062 153.425 279.249C153.293 279.436 153.106 279.577 152.891 279.655C152.333 279.933 151.718 280.08 151.095 280.082C150.471 280.085 149.855 279.943 149.295 279.669V279.655Z" fill="#D6D8E5"/>
<path d="M126.076 295.918C126.115 295.903 126.149 295.878 126.177 295.846L164.515 273.778C169.901 270.667 169.901 265.639 164.515 262.528C161.488 260.995 158.141 260.195 154.746 260.195C151.351 260.195 148.004 260.995 144.978 262.528L106.538 284.668C104.574 285.792 99.8525 285.806 99.8525 285.806L102.105 291.568L106.74 289.969L116.848 295.731L114.076 298.468L122.538 299.563C123.467 298.129 124.669 296.891 126.076 295.918ZM149.295 276.789L139.75 271.301C139.533 271.227 139.344 271.088 139.21 270.902C139.076 270.716 139.004 270.492 139.004 270.263C139.004 270.034 139.076 269.811 139.21 269.625C139.344 269.439 139.533 269.3 139.75 269.226C140.309 268.942 140.928 268.793 141.555 268.793C142.183 268.793 142.801 268.942 143.36 269.226L152.891 274.714C153.108 274.788 153.297 274.927 153.431 275.113C153.565 275.299 153.637 275.523 153.637 275.752C153.637 275.981 153.565 276.204 153.431 276.39C153.297 276.576 153.108 276.715 152.891 276.789C152.334 277.073 151.718 277.221 151.093 277.221C150.468 277.221 149.851 277.073 149.295 276.789Z" fill="#B1B4C4"/>
<path d="M126.076 293.858H126.177L164.515 271.775C169.901 268.678 169.901 263.637 164.515 260.54C161.488 259.006 158.141 258.207 154.746 258.207C151.351 258.207 148.004 259.006 144.978 260.54L106.538 282.665C104.574 283.789 99.8525 283.789 99.8525 283.789L102.105 289.551L106.74 287.952L116.848 293.714L114.076 296.465L122.278 297.315C123.363 295.979 124.643 294.814 126.076 293.858ZM149.295 274.728L139.75 269.37C139.533 269.297 139.344 269.157 139.21 268.971C139.076 268.785 139.004 268.562 139.004 268.333C139.004 268.104 139.076 267.881 139.21 267.694C139.344 267.508 139.533 267.369 139.75 267.296C140.309 267.011 140.928 266.863 141.555 266.863C142.183 266.863 142.801 267.011 143.36 267.296L152.891 272.784C153.108 272.857 153.297 272.997 153.431 273.183C153.565 273.369 153.637 273.592 153.637 273.821C153.637 274.05 153.565 274.273 153.431 274.459C153.297 274.645 153.108 274.785 152.891 274.858C152.326 275.124 151.708 275.255 151.084 275.243C150.461 275.23 149.848 275.074 149.295 274.786V274.728Z" fill="#D6D8E5"/>
<path d="M80.9362 316.301L65.4565 307.384C60.648 304.619 61.2545 299.779 66.8139 296.566L85.0372 286.08C90.5965 282.867 99.0006 282.522 103.809 285.302L119.289 294.218C124.112 296.984 123.505 301.824 117.946 305.036L99.7226 315.465C94.1632 318.735 85.7447 319.081 80.9362 316.301Z" fill="#20232D"/>
<path d="M67.9835 297.503L86.64 286.757C91.3185 284.063 98.3797 283.775 102.423 286.109L117.903 295.011C121.946 297.344 121.44 301.421 116.762 304.1L98.1053 314.846C93.4412 317.54 86.3801 317.828 82.3369 315.509L66.8572 306.592C62.814 304.259 63.3194 300.182 67.9835 297.503Z" fill="#2B303F"/>
<path opacity="0.5" d="M67.9835 297.503L86.64 286.757C91.3185 284.063 98.3797 283.775 102.423 286.109L117.903 295.011C121.946 297.344 121.44 301.421 116.762 304.1L98.1053 314.846C93.4412 317.54 86.3801 317.828 82.3369 315.509L66.8572 306.592C62.814 304.259 63.3194 300.182 67.9835 297.503Z" fill="url(#paint2_linear_418_1259)"/>
<path d="M118.355 309.246C119.383 307.469 119.383 305.547 118.354 304.954C117.325 304.362 115.657 305.322 114.628 307.1C113.599 308.877 113.599 310.799 114.628 311.392C115.658 311.984 117.326 311.024 118.355 309.246Z" fill="#696F7C"/>
<path d="M118.206 304.892L119.563 305.655L117.932 306.692L118.206 304.892Z" fill="#696F7C"/>
<path d="M116.04 312.195L114.553 311.36L116.343 310.395L116.04 312.195Z" fill="#696F7C"/>
<path d="M119.654 309.981C120.683 308.204 120.683 306.283 119.654 305.69C118.625 305.097 116.956 306.058 115.928 307.835C114.899 309.613 114.899 311.534 115.928 312.127C116.957 312.72 118.626 311.759 119.654 309.981Z" fill="#757B89"/>
<path opacity="0.4" d="M208.253 618.944L188.037 600.117C185.498 596.407 182.428 593.088 178.926 590.264C177.371 588.98 175.736 587.797 174.03 586.721L147.793 569.305L119.216 556.73C117.451 555.907 115.638 555.19 113.787 554.584C109.582 553.2 105.212 552.376 100.791 552.135L73.6436 543.247C72.113 543.161 72.936 546.042 73.8169 547.194L76.4161 548.26C79.7517 549.527 76.9648 549.067 80.3582 551.458L96.04 555.448C105.975 554.54 115.837 558.329 124.415 562.938L145.107 573.31L165.107 585.28C173.854 590.118 180.829 597.611 185.019 606.671L195.561 615.141C198.824 618.209 197.005 616.855 201.799 617.619L204.499 619.909C206.217 620.183 209.163 620.284 208.253 618.944Z" fill="#D6D8E5"/>
<path opacity="0.1" d="M151.374 579.072C152.999 576.585 155.172 574.5 157.728 572.979C163.013 569.277 170.06 570.098 170.06 570.098C175.17 570.618 180.126 572.141 184.644 574.578L185.106 574.823L192.066 578.712C193.934 579.749 195.724 580.868 197.438 582.068C198.593 582.861 199.705 583.682 200.774 584.546C205.77 588.522 204.326 596.387 199.893 602.595C197.44 606.098 194.601 609.316 191.431 612.189C188.684 614.61 185.363 616.292 181.782 617.073C178.201 617.855 174.479 617.71 170.969 616.654C167.708 615.609 164.563 614.234 161.583 612.549C158.802 610.975 156.19 609.121 153.786 607.017C147.346 601.342 146.248 593.549 148.992 584.777C149.547 582.784 150.347 580.868 151.374 579.072ZM91.304 542.844C95.2605 536.852 101.932 532.286 107.621 534.201C108.863 534.605 110.09 535.051 111.289 535.541C113.123 536.276 114.913 537.111 116.661 538.019L123.274 541.476L123.693 541.706C127.844 543.916 131.454 547.015 134.263 550.781C134.263 550.781 138.234 555.823 136.934 561.628C136.514 564.433 135.413 567.093 133.729 569.378C132.381 571.033 130.844 572.527 129.151 573.829C121.787 579.908 113.758 582.472 105.643 579.864C102.723 578.93 99.9067 577.7 97.2388 576.191C94.522 574.662 91.9842 572.836 89.6723 570.746C87.3549 568.569 85.7469 565.747 85.0568 562.647C84.3668 559.546 84.6265 556.311 85.8023 553.36C87.2362 549.656 89.0816 546.124 91.304 542.83V542.844Z" fill="black"/>
<path d="M83.7518 551.587L99.3759 550.147C109.211 549.215 119.104 551.173 127.837 555.779L213.712 598.878L218.722 591.906L122.581 549.585C116.793 546.895 110.545 545.33 104.17 544.975L73.6438 543.247C73.3087 543.21 72.9701 543.27 72.6676 543.418C72.3651 543.567 72.1111 543.798 71.9355 544.085C71.7598 544.372 71.6697 544.703 71.6756 545.039C71.6815 545.375 71.7831 545.703 71.9688 545.984L72.7774 547.035C74.0714 548.658 75.7569 549.927 77.6763 550.723C79.5956 551.519 81.6859 551.816 83.7518 551.587Z" fill="#2B303F"/>
<path d="M194.81 613.773L188.355 599.527C184.171 590.467 177.201 582.974 168.457 578.136L89.9897 531.191L94.3939 524.507L177.381 579.591C182.922 583.049 187.694 587.603 191.402 592.973L209.206 618.901C209.39 619.225 209.473 619.596 209.446 619.966C209.42 620.337 209.283 620.692 209.055 620.986C208.827 621.28 208.516 621.5 208.163 621.619C207.81 621.737 207.429 621.749 207.069 621.653L205.481 621.408C203.208 621.114 201.044 620.263 199.182 618.931C197.319 617.599 195.817 615.827 194.81 613.773Z" fill="#2B303F"/>
<path opacity="0.3" d="M171.489 567.274C176.603 567.788 181.564 569.305 186.088 571.739L186.535 571.984L193.51 575.888C195.359 576.911 197.152 578.032 198.882 579.244C200.022 580.036 201.134 580.858 202.217 581.722C207.214 585.698 205.755 593.563 201.322 599.771C198.869 603.27 196.036 606.487 192.875 609.365C190.128 611.786 186.806 613.466 183.224 614.245C179.643 615.024 175.921 614.876 172.413 613.816C169.153 612.776 166.007 611.405 163.027 609.725C160.247 608.149 157.634 606.296 155.23 604.193C148.789 598.518 147.692 590.71 150.436 581.938C150.988 579.926 151.788 577.991 152.818 576.176C154.44 573.688 156.608 571.599 159.157 570.068C164.457 566.381 171.489 567.274 171.489 567.274Z" fill="url(#paint3_linear_418_1259)"/>
<path d="M92.0404 522.677L88.2427 528.655C87.9785 529.053 87.8667 529.533 87.9276 530.006C87.9886 530.479 88.2183 530.915 88.5748 531.234C89.2159 531.796 89.6558 532.552 89.8277 533.386C89.9997 534.221 89.8944 535.088 89.5278 535.858L83.2609 548.937C81.4106 552.627 80.8184 556.818 81.5743 560.874C82.3301 564.93 84.3927 568.629 87.4485 571.408C92.5789 576.034 98.6388 579.516 105.224 581.621C110.276 583.201 115.667 583.364 120.806 582.094C125.945 580.824 130.635 578.169 134.364 574.419L140.227 568.528C141.507 567.256 142.291 565.57 142.436 563.774C142.542 562.974 142.839 562.211 143.301 561.55C143.764 560.888 144.379 560.346 145.095 559.971C145.811 559.596 146.606 559.397 147.415 559.392C148.224 559.387 149.022 559.576 149.743 559.942L151.187 560.691L152.631 561.527C153.293 561.94 153.832 562.525 154.188 563.219C154.545 563.913 154.706 564.69 154.656 565.469C154.606 566.247 154.345 566.997 153.902 567.639C153.459 568.282 152.85 568.793 152.14 569.118C150.473 569.961 149.148 571.349 148.385 573.051L145.122 580.512C143.069 585.13 142.561 590.285 143.671 595.213C144.781 600.142 147.452 604.583 151.288 607.881C156.845 612.752 163.348 616.43 170.392 618.685C174.921 620.138 179.768 620.302 184.385 619.157C189.003 618.011 193.208 615.603 196.528 612.203L207.474 600.679C208.193 599.943 209.102 599.419 210.101 599.165C211.1 598.91 212.149 598.936 213.134 599.239C213.668 599.408 214.241 599.411 214.777 599.25C215.313 599.088 215.788 598.767 216.138 598.331L220.6 592.252C221.041 591.693 221.275 590.999 221.262 590.287C221.249 589.576 220.989 588.891 220.528 588.349C220.528 588.349 213.308 580.253 196.745 571.308L189.756 567.548C184.406 564.595 178.511 562.757 172.428 562.146L167.056 561.599C166.357 561.54 165.679 561.33 165.07 560.981C164.461 560.633 163.936 560.155 163.533 559.582C163.013 558.807 162.309 558.174 161.482 557.738L155.519 554.512L149.584 551.299C148.731 550.849 147.79 550.588 146.826 550.536C146.135 550.514 145.458 550.342 144.842 550.031C144.226 549.72 143.685 549.277 143.259 548.735L140.371 544.832C136.998 540.35 132.655 536.687 127.664 534.115L121.036 530.672C105.036 522.029 95.6648 521.006 95.6648 521.006C94.9642 520.915 94.2518 521.023 93.6104 521.319C92.9689 521.615 92.4246 522.085 92.0404 522.677ZM152.818 576.191C154.441 573.703 156.608 571.614 159.158 570.083C164.457 566.381 171.489 567.274 171.489 567.274C176.603 567.788 181.564 569.306 186.088 571.74L186.536 571.985L193.51 575.888C195.359 576.912 197.152 578.032 198.882 579.245C200.023 580.037 201.135 580.858 202.218 581.722C207.214 585.698 205.755 593.563 201.322 599.771C198.87 603.27 196.037 606.488 192.875 609.365C190.128 611.786 186.806 613.467 183.225 614.246C179.643 615.025 175.921 614.877 172.413 613.816C169.153 612.776 166.008 611.405 163.027 609.725C160.247 608.149 157.635 606.296 155.23 604.194C148.79 598.518 147.692 590.711 150.436 581.938C150.989 579.932 151.79 578.001 152.818 576.191ZM92.7479 539.948C96.7045 533.956 103.361 529.39 109.065 531.306C110.307 531.723 111.52 532.17 112.733 532.66C114.566 533.391 116.359 534.218 118.105 535.137L124.704 538.58L125.137 538.81C129.289 541.018 132.907 544.106 135.736 547.857C135.736 547.857 139.692 552.898 138.393 558.703C137.986 561.505 136.89 564.163 135.202 566.439C133.849 568.099 132.308 569.597 130.61 570.904C123.245 576.983 115.231 579.547 107.116 576.926C104.188 576.013 101.362 574.801 98.6828 573.31C95.9656 571.775 93.4278 569.944 91.1162 567.85C88.8018 565.674 87.1956 562.855 86.5056 559.758C85.8156 556.66 86.0737 553.428 87.2463 550.478C88.6836 546.776 90.5288 543.244 92.7479 539.948Z" fill="#2B303F"/>
<path d="M129.96 571.869C122.61 577.934 114.595 580.512 106.48 577.876C103.557 576.949 100.741 575.718 98.076 574.203C95.3657 572.665 92.8331 570.834 90.5239 568.743C88.1954 566.564 86.5793 563.735 85.8864 560.626C85.1935 557.517 85.4559 554.272 86.6396 551.314C88.0783 547.637 89.9184 544.13 92.1268 540.856L92.2423 540.697C90.2444 543.76 88.5654 547.018 87.2316 550.42C86.059 553.37 85.8009 556.602 86.4909 559.7C87.1809 562.797 88.7871 565.616 91.1015 567.793C93.4147 569.908 95.9575 571.758 98.6825 573.31C101.35 574.819 104.166 576.05 107.087 576.983C115.202 579.59 123.216 576.983 130.58 570.962C132.253 569.672 133.774 568.198 135.115 566.568C134.941 566.842 134.768 567.116 134.551 567.418C133.199 569.074 131.658 570.568 129.96 571.869Z" fill="#1F232D"/>
<path d="M192.211 610.286C189.473 612.693 186.166 614.365 182.601 615.144C179.036 615.922 175.331 615.783 171.836 614.738C168.579 613.693 165.439 612.317 162.464 610.632C159.681 609.061 157.068 607.208 154.667 605.101C148.226 599.425 147.129 591.618 149.873 582.86C150.42 580.847 151.22 578.911 152.255 577.098C152.457 576.781 152.659 576.522 152.847 576.248C151.835 578.036 151.049 579.942 150.508 581.924C147.764 590.696 148.862 598.503 155.302 604.179C157.707 606.281 160.319 608.134 163.1 609.71C166.08 611.39 169.225 612.761 172.486 613.801C175.986 614.845 179.695 614.982 183.262 614.198C186.83 613.414 190.138 611.736 192.875 609.321C195.778 606.663 198.405 603.719 200.716 600.534C200.682 600.595 200.644 600.653 200.6 600.707C198.17 604.202 195.356 607.415 192.211 610.286Z" fill="#1F232D"/>
<path opacity="0.3" d="M135.736 547.856C132.915 544.079 129.297 540.966 125.137 538.738L124.704 538.508L118.105 535.065C116.359 534.146 114.566 533.319 112.733 532.587C111.52 532.097 110.307 531.651 109.065 531.233C103.289 529.361 96.7046 533.927 92.7481 539.876C90.5327 543.154 88.6876 546.666 87.2464 550.348C86.0738 553.298 85.8157 556.53 86.5057 559.627C87.1957 562.725 88.8019 565.544 91.1163 567.72C93.4213 569.86 95.9593 571.734 98.6829 573.309C101.35 574.819 104.167 576.049 107.087 576.983C115.202 579.59 123.216 576.983 130.581 570.961C132.279 569.655 133.82 568.156 135.173 566.496C136.861 564.22 137.958 561.563 138.364 558.761C139.664 552.898 135.736 547.856 135.736 547.856Z" fill="url(#paint4_linear_418_1259)"/>
<defs>
<linearGradient id="paint0_linear_418_1259" x1="469.285" y1="341.22" x2="578.368" y2="150.952" gradientUnits="userSpaceOnUse">
<stop offset="0.21" stop-color="white" stop-opacity="0"/>
<stop offset="1" stop-color="white" stop-opacity="0.2"/>
</linearGradient>
<linearGradient id="paint1_linear_418_1259" x1="-695659" y1="38699.8" x2="-689718" y2="28337.6" gradientUnits="userSpaceOnUse">
<stop offset="0.21" stop-color="white" stop-opacity="0"/>
<stop offset="1" stop-color="white" stop-opacity="0.2"/>
</linearGradient>
<linearGradient id="paint2_linear_418_1259" x1="-202201" y1="-7003.1" x2="-200618" y2="-7367.15" gradientUnits="userSpaceOnUse">
<stop offset="0.21" stop-color="white" stop-opacity="0"/>
<stop offset="1" stop-color="white" stop-opacity="0.2"/>
</linearGradient>
<linearGradient id="paint3_linear_418_1259" x1="177.193" y1="567.173" x2="177.193" y2="614.738" gradientUnits="userSpaceOnUse">
<stop offset="0.01" stop-color="white"/>
<stop offset="0.88" stop-color="white" stop-opacity="0"/>
</linearGradient>
<linearGradient id="paint4_linear_418_1259" x1="4171.69" y1="17918.7" x2="4171.69" y2="19461.5" gradientUnits="userSpaceOnUse">
<stop offset="0.01" stop-color="white"/>
<stop offset="0.88" stop-color="white" stop-opacity="0"/>
</linearGradient>
</defs>
</svg>
