<svg width="298" height="168" viewBox="0 0 298 168" fill="none" xmlns="http://www.w3.org/2000/svg">
<g filter="url(#filter0_d_1599_1776)">
<path d="M129.543 83.9383C129.543 109.055 109.213 129.386 84.173 129.386C59.1334 129.386 38.8035 109.055 38.8035 83.9383C38.8035 58.8211 59.1334 38.491 84.173 38.491C109.213 38.491 129.543 58.8211 129.543 83.9383Z" stroke="url(#paint0_linear_1599_1776)" stroke-width="27.9821"/>
</g>
<g filter="url(#filter1_d_1599_1776)">
<path d="M68.894 89.79C67.9254 87.267 67.5974 84.5432 67.9391 81.8623C68.2808 79.1814 69.2817 76.627 70.8522 74.4275" stroke="url(#paint1_linear_1599_1776)" stroke-width="6.22179" stroke-linecap="round" stroke-linejoin="round"/>
</g>
<g filter="url(#filter2_d_1599_1776)">
<path d="M80.7602 68.015C85.0023 67.1133 89.4288 67.9337 93.066 70.2957" stroke="url(#paint2_linear_1599_1776)" stroke-width="6.22179" stroke-linecap="round" stroke-linejoin="round"/>
</g>
<g filter="url(#filter3_d_1599_1776)">
<path d="M100.353 86.2855C99.7494 90.5802 97.4645 94.4592 94.001 97.0692" stroke="url(#paint3_linear_1599_1776)" stroke-width="6.22179" stroke-linecap="round" stroke-linejoin="round"/>
</g>
<g filter="url(#filter4_d_1599_1776)">
<path d="M83.5893 100.352C81.0135 100.262 78.4955 99.5645 76.2406 98.3162" stroke="url(#paint4_linear_1599_1776)" stroke-width="6.22179" stroke-linecap="round" stroke-linejoin="round"/>
</g>
<g filter="url(#filter5_d_1599_1776)">
<path d="M63.3914 104.685C59.4798 100.774 56.7475 95.8404 55.5071 90.4494C54.2666 85.0584 54.5678 79.4271 56.3764 74.1992" stroke="url(#paint5_linear_1599_1776)" stroke-width="8.19871" stroke-linecap="round" stroke-linejoin="round" style="mix-blend-mode:lighten" shape-rendering="crispEdges"/>
</g>
<g filter="url(#filter6_d_1599_1776)">
<path d="M94.8041 56.314C99.9755 58.2991 104.483 61.701 107.81 66.1297C111.137 70.5585 113.15 75.835 113.616 81.3546" stroke="url(#paint6_linear_1599_1776)" stroke-width="8.19871" stroke-linecap="round" stroke-linejoin="round" style="mix-blend-mode:lighten" shape-rendering="crispEdges"/>
</g>
<g filter="url(#filter7_d_1599_1776)">
<path d="M109.51 99.3419C105.917 105.321 100.321 109.833 93.715 112.075" stroke="url(#paint7_linear_1599_1776)" stroke-width="8.19871" stroke-linecap="round" stroke-linejoin="round" style="mix-blend-mode:lighten" shape-rendering="crispEdges"/>
</g>
<g filter="url(#filter8_dd_1599_1776)">
<path d="M64.511 61.9285C67.8229 58.9465 71.7678 56.754 76.049 55.5161" stroke="url(#paint8_linear_1599_1776)" stroke-width="8.19871" stroke-linecap="round" stroke-linejoin="round" style="mix-blend-mode:lighten" shape-rendering="crispEdges"/>
</g>
<g filter="url(#filter9_d_1599_1776)">
<path d="M103.58 42.0771C114.717 47.2702 123.334 56.6745 127.537 68.2214C131.74 79.7682 131.183 92.5116 125.99 103.648" stroke="url(#paint9_linear_1599_1776)" stroke-width="11.6698" stroke-linecap="round" stroke-linejoin="round"/>
</g>
<g filter="url(#filter10_d_1599_1776)">
<path d="M51.1678 116.692C42.479 108.003 37.5977 96.2185 37.5976 83.9306C37.5976 71.6427 42.479 59.8581 51.1678 51.1692" stroke="url(#paint10_linear_1599_1776)" stroke-width="11.6698" stroke-linecap="round" stroke-linejoin="round"/>
</g>
<g filter="url(#filter11_d_1599_1776)">
<path d="M153.63 84C153.63 122.261 122.548 153.319 84.1556 153.319C45.7633 153.319 14.6812 122.261 14.6812 84C14.6812 45.739 45.7633 14.6812 84.1556 14.6812C122.548 14.6812 153.63 45.739 153.63 84Z" stroke="url(#paint11_linear_1599_1776)" stroke-width="25.3624"/>
</g>
<path d="M91.2829 69.8478L103.752 97.2149H100.861L96.6611 88.2022H85.1456L80.9819 97.2001H78L90.6287 69.833L91.2829 69.8478ZM90.9467 75.6615L86.3673 85.5617H95.5045L90.9467 75.6615Z" fill="#357ECE"/>
<path d="M108.061 75.8203H110.753V85.8241C110.753 88.2674 110.882 89.9489 111.14 90.8685C111.493 92.1451 112.275 93.2532 113.348 93.9972C114.5 94.7666 115.856 95.154 117.23 95.1067C118.587 95.15 119.924 94.7624 121.058 93.9972C122.076 93.2932 122.838 92.2649 123.226 91.0719C123.494 90.2435 123.629 88.4905 123.631 85.813V75.8277H126.382V86.3382C126.382 89.2968 126.046 91.5219 125.373 93.0135C124.731 94.4732 123.669 95.6985 122.33 96.5268C120.978 97.3725 119.282 97.7966 117.241 97.799C115.2 97.8015 113.497 97.3774 112.13 96.5268C110.782 95.6952 109.718 94.4578 109.083 92.9839C108.406 91.4676 108.069 89.187 108.071 86.1422L108.061 75.8203Z" fill="#357ECE"/>
<path d="M134.717 67.8653H137.41V75.8202H141.682V78.2056H137.41V97.2479H134.717V78.2056H131.041V75.8202H134.717V67.8653Z" fill="#357ECE"/>
<path d="M171.516 75.8202H174.208V79.5184C174.969 78.3347 175.952 77.3177 177.1 76.5266C178.389 75.7074 179.876 75.2708 181.394 75.2655C182.389 75.2609 183.373 75.4687 184.285 75.8757C185.138 76.2425 185.901 76.7983 186.519 77.5029C187.196 78.3638 187.707 79.3492 188.023 80.406C188.805 78.8563 189.962 77.5373 191.384 76.5746C192.675 75.7179 194.182 75.2632 195.721 75.2655C197.078 75.2342 198.413 75.6207 199.552 76.3749C200.669 77.1345 201.531 78.2266 202.021 79.5037C202.556 80.8474 202.825 82.8567 202.827 85.5318V97.2479H200.073V85.5503C200.073 83.2549 199.914 81.6758 199.596 80.8128C199.278 79.9596 198.703 79.2318 197.955 78.7344C197.128 78.1967 196.162 77.9238 195.183 77.9504C193.897 77.9433 192.644 78.3567 191.604 79.1301C190.526 79.9155 189.702 81.0128 189.237 82.281C188.738 83.5927 188.489 85.7845 188.489 88.8565V97.2479H185.792V86.2788C185.792 83.6925 185.636 81.9359 185.323 81.0088C185.021 80.1078 184.445 79.3298 183.678 78.7899C182.856 78.2201 181.88 77.9279 180.888 77.9541C179.636 77.9548 178.415 78.3556 177.396 79.1005C176.312 79.8679 175.475 80.948 174.993 82.2034C174.472 83.5027 174.212 85.4911 174.212 88.1687V97.2479H171.519L171.516 75.8202Z" fill="#357ECE"/>
<path d="M236.671 67.8653H239.364V75.8202H243.636V78.2056H239.353V97.2479H236.671V78.2056H232.984V75.8202H236.671V67.8653Z" fill="#357ECE"/>
<path d="M248.6 67.0003C248.892 66.9957 249.182 67.0527 249.452 67.1679C249.722 67.283 249.966 67.4539 250.168 67.6697C250.379 67.8796 250.545 68.1312 250.658 68.409C250.77 68.6868 250.826 68.9851 250.822 69.2858C250.825 69.5831 250.768 69.8777 250.656 70.1518C250.543 70.4258 250.377 70.6736 250.168 70.8798C249.964 71.0918 249.721 71.2601 249.453 71.3751C249.185 71.49 248.897 71.5492 248.607 71.5492C248.316 71.5492 248.028 71.49 247.76 71.3751C247.492 71.2601 247.249 71.0918 247.045 70.8798C246.837 70.6734 246.671 70.4255 246.559 70.1515C246.447 69.8774 246.391 69.5828 246.395 69.2858C246.391 68.9854 246.446 68.6872 246.558 68.4094C246.67 68.1316 246.836 67.88 247.045 67.6697C247.245 67.4546 247.487 67.2842 247.754 67.169C248.022 67.0538 248.309 66.9964 248.6 67.0003V67.0003ZM247.262 75.8206H249.955V97.2483H247.262V75.8206Z" fill="#357ECE"/>
<path d="M253.576 75.8203H256.442L263.472 91.4381L270.416 75.8203H273.307L263.718 97.248H263.219L253.576 75.8203Z" fill="#357ECE"/>
<path d="M295.03 90.1371L297.303 91.3613C296.659 92.7147 295.785 93.9406 294.723 94.9819C293.765 95.89 292.646 96.6018 291.426 97.0788C290.102 97.5851 288.698 97.8358 287.284 97.8184C283.87 97.8184 281.199 96.6732 279.271 94.3827C277.403 92.2483 276.373 89.4818 276.38 86.6164C276.352 83.9778 277.216 81.4104 278.827 79.3494C280.894 76.6373 283.665 75.2813 287.14 75.2813C290.706 75.2813 293.556 76.6669 295.691 79.4381C297.207 81.3933 297.977 83.8353 298.001 86.7643H279.155C279.206 89.2471 279.984 91.2885 281.49 92.8886C282.203 93.6637 283.066 94.2769 284.025 94.6884C284.984 95.1 286.017 95.3008 287.056 95.2777C288.119 95.2727 289.171 95.0736 290.165 94.6897C291.105 94.3506 291.977 93.8393 292.738 93.1808C293.647 92.2894 294.419 91.2634 295.03 90.1371V90.1371ZM295.03 84.3679C294.759 83.0919 294.224 81.8902 293.461 80.8434C292.726 79.9268 291.791 79.1986 290.732 78.717C289.617 78.183 288.4 77.9077 287.168 77.9107C285.214 77.8751 283.319 78.6024 281.87 79.9448C280.788 80.931 279.972 82.4103 279.423 84.3827L295.03 84.3679Z" fill="#357ECE"/>
<path d="M155.528 97.2483C161.521 97.2483 166.378 92.1883 166.378 85.9464C166.378 79.7046 161.521 74.6446 155.528 74.6446C149.536 74.6446 144.678 79.7046 144.678 85.9464C144.678 92.1883 149.536 97.2483 155.528 97.2483Z" fill="#357ECE"/>
<path d="M219.524 97.2483C225.517 97.2483 230.375 92.1883 230.375 85.9464C230.375 79.7046 225.517 74.6446 219.524 74.6446C213.532 74.6446 208.674 79.7046 208.674 85.9464C208.674 92.1883 213.532 97.2483 219.524 97.2483Z" fill="#357ECE"/>
<path d="M84.7109 116.442C85.637 116.442 86.4669 116.647 87.2005 117.056C87.9341 117.465 88.5054 118.036 88.9143 118.769C89.3352 119.503 89.5457 120.351 89.5457 121.313C89.5457 122.275 89.3352 123.129 88.9143 123.875C88.5054 124.608 87.9341 125.18 87.2005 125.589C86.4669 125.998 85.637 126.202 84.7109 126.202C84.0014 126.202 83.3519 126.064 82.7626 125.787C82.1733 125.51 81.6862 125.108 81.3014 124.578V126.094H79.6417V112.708H81.3735V117.976C81.7584 117.471 82.2394 117.092 82.8167 116.839C83.394 116.575 84.0254 116.442 84.7109 116.442ZM84.5666 124.687C85.18 124.687 85.7272 124.548 86.2083 124.272C86.7014 123.983 87.0862 123.586 87.3628 123.081C87.6515 122.564 87.7958 121.975 87.7958 121.313C87.7958 120.652 87.6515 120.068 87.3628 119.563C87.0862 119.046 86.7014 118.649 86.2083 118.373C85.7272 118.096 85.18 117.958 84.5666 117.958C83.9653 117.958 83.4181 118.096 82.925 118.373C82.4319 118.649 82.047 119.046 81.7704 119.563C81.4938 120.068 81.3555 120.652 81.3555 121.313C81.3555 121.975 81.4938 122.564 81.7704 123.081C82.047 123.586 82.4319 123.983 82.925 124.272C83.4181 124.548 83.9653 124.687 84.5666 124.687ZM100.135 116.532L95.4988 127.05C95.0899 128.024 94.6088 128.71 94.0556 129.106C93.5144 129.503 92.8589 129.702 92.0892 129.702C91.6202 129.702 91.1632 129.624 90.7182 129.467C90.2852 129.323 89.9244 129.106 89.6358 128.818L90.3754 127.519C90.8685 127.988 91.4398 128.223 92.0892 128.223C92.5102 128.223 92.8589 128.108 93.1356 127.88C93.4242 127.663 93.6828 127.284 93.9113 126.743L94.218 126.076L89.9966 116.532H91.8006L95.138 124.182L98.4394 116.532H100.135ZM117.709 113.466V126.094H116.23L108.653 116.677V126.094H106.849V113.466H108.328L115.905 122.883V113.466H117.709ZM129.535 122.937H122.824L121.435 126.094H119.577L125.295 113.466H127.081L132.818 126.094H130.924L129.535 122.937ZM128.903 121.494L126.179 115.306L123.455 121.494H128.903ZM139.627 113.466C141.262 113.466 142.549 113.857 143.487 114.638C144.425 115.42 144.895 116.496 144.895 117.867C144.895 119.239 144.425 120.315 143.487 121.097C142.549 121.878 141.262 122.269 139.627 122.269H136.506V126.094H134.702V113.466H139.627ZM139.573 120.7C140.715 120.7 141.587 120.459 142.188 119.978C142.79 119.485 143.09 118.781 143.09 117.867C143.09 116.953 142.79 116.256 142.188 115.775C141.587 115.282 140.715 115.035 139.573 115.035H136.506V120.7H139.573ZM154.957 122.937H148.246L146.857 126.094H144.998L150.717 113.466H152.503L158.24 126.094H156.346L154.957 122.937ZM154.325 121.494L151.601 115.306L148.877 121.494H154.325Z" fill="#9AC1EC"/>
<defs>
<filter id="filter0_d_1599_1776" x="21.2338" y="20.9212" width="125.878" height="126.034" filterUnits="userSpaceOnUse" color-interpolation-filters="sRGB">
<feFlood flood-opacity="0" result="BackgroundImageFix"/>
<feColorMatrix in="SourceAlpha" type="matrix" values="0 0 0 0 0 0 0 0 0 0 0 0 0 0 0 0 0 0 127 0" result="hardAlpha"/>
<feMorphology radius="0.155598" operator="dilate" in="SourceAlpha" result="effect1_dropShadow_1599_1776"/>
<feOffset/>
<feGaussianBlur stdDeviation="1.71158"/>
<feColorMatrix type="matrix" values="0 0 0 0 0 0 0 0 0 0 0 0 0 0 0 0 0 0 0.25 0"/>
<feBlend mode="normal" in2="BackgroundImageFix" result="effect1_dropShadow_1599_1776"/>
<feBlend mode="normal" in="SourceGraphic" in2="effect1_dropShadow_1599_1776" result="shape"/>
</filter>
<filter id="filter1_d_1599_1776" x="64.2518" y="71.0937" width="10.3051" height="22.6248" filterUnits="userSpaceOnUse" color-interpolation-filters="sRGB">
<feFlood flood-opacity="0" result="BackgroundImageFix"/>
<feColorMatrix in="SourceAlpha" type="matrix" values="0 0 0 0 0 0 0 0 0 0 0 0 0 0 0 0 0 0 127 0" result="hardAlpha"/>
<feOffset dx="0.0742461" dy="0.296984"/>
<feGaussianBlur stdDeviation="0.259861"/>
<feComposite in2="hardAlpha" operator="out"/>
<feColorMatrix type="matrix" values="0 0 0 0 0 0 0 0 0 0 0 0 0 0 0 0 0 0 0.25 0"/>
<feBlend mode="normal" in2="BackgroundImageFix" result="effect1_dropShadow_1599_1776"/>
<feBlend mode="normal" in="SourceGraphic" in2="effect1_dropShadow_1599_1776" result="shape"/>
</filter>
<filter id="filter2_d_1599_1776" x="77.203" y="64.3239" width="19.5687" height="9.89974" filterUnits="userSpaceOnUse" color-interpolation-filters="sRGB">
<feFlood flood-opacity="0" result="BackgroundImageFix"/>
<feColorMatrix in="SourceAlpha" type="matrix" values="0 0 0 0 0 0 0 0 0 0 0 0 0 0 0 0 0 0 127 0" result="hardAlpha"/>
<feOffset dx="0.0742461" dy="0.296984"/>
<feGaussianBlur stdDeviation="0.259861"/>
<feComposite in2="hardAlpha" operator="out"/>
<feColorMatrix type="matrix" values="0 0 0 0 0 0 0 0 0 0 0 0 0 0 0 0 0 0 0.25 0"/>
<feBlend mode="normal" in2="BackgroundImageFix" result="effect1_dropShadow_1599_1776"/>
<feBlend mode="normal" in="SourceGraphic" in2="effect1_dropShadow_1599_1776" result="shape"/>
</filter>
<filter id="filter3_d_1599_1776" x="90.4451" y="82.9515" width="13.6137" height="18.0454" filterUnits="userSpaceOnUse" color-interpolation-filters="sRGB">
<feFlood flood-opacity="0" result="BackgroundImageFix"/>
<feColorMatrix in="SourceAlpha" type="matrix" values="0 0 0 0 0 0 0 0 0 0 0 0 0 0 0 0 0 0 127 0" result="hardAlpha"/>
<feOffset dx="0.0742461" dy="0.296984"/>
<feGaussianBlur stdDeviation="0.259861"/>
<feComposite in2="hardAlpha" operator="out"/>
<feColorMatrix type="matrix" values="0 0 0 0 0 0 0 0 0 0 0 0 0 0 0 0 0 0 0.25 0"/>
<feBlend mode="normal" in2="BackgroundImageFix" result="effect1_dropShadow_1599_1776"/>
<feBlend mode="normal" in="SourceGraphic" in2="effect1_dropShadow_1599_1776" result="shape"/>
</filter>
<filter id="filter4_d_1599_1776" x="72.6834" y="94.982" width="14.6117" height="9.29756" filterUnits="userSpaceOnUse" color-interpolation-filters="sRGB">
<feFlood flood-opacity="0" result="BackgroundImageFix"/>
<feColorMatrix in="SourceAlpha" type="matrix" values="0 0 0 0 0 0 0 0 0 0 0 0 0 0 0 0 0 0 127 0" result="hardAlpha"/>
<feOffset dx="0.0742461" dy="0.296984"/>
<feGaussianBlur stdDeviation="0.259861"/>
<feComposite in2="hardAlpha" operator="out"/>
<feColorMatrix type="matrix" values="0 0 0 0 0 0 0 0 0 0 0 0 0 0 0 0 0 0 0.25 0"/>
<feBlend mode="normal" in2="BackgroundImageFix" result="effect1_dropShadow_1599_1776"/>
<feBlend mode="normal" in="SourceGraphic" in2="effect1_dropShadow_1599_1776" result="shape"/>
</filter>
<filter id="filter5_d_1599_1776" x="49.8876" y="69.7144" width="18.6275" height="40.4794" filterUnits="userSpaceOnUse" color-interpolation-filters="sRGB">
<feFlood flood-opacity="0" result="BackgroundImageFix"/>
<feColorMatrix in="SourceAlpha" type="matrix" values="0 0 0 0 0 0 0 0 0 0 0 0 0 0 0 0 0 0 127 0" result="hardAlpha"/>
<feOffset dx="0.128105" dy="0.51242"/>
<feGaussianBlur stdDeviation="0.448367"/>
<feComposite in2="hardAlpha" operator="out"/>
<feColorMatrix type="matrix" values="0 0 0 0 0 0 0 0 0 0 0 0 0 0 0 0 0 0 0.25 0"/>
<feBlend mode="normal" in2="BackgroundImageFix" result="effect1_dropShadow_1599_1776"/>
<feBlend mode="normal" in="SourceGraphic" in2="effect1_dropShadow_1599_1776" result="shape"/>
</filter>
<filter id="filter6_d_1599_1776" x="89.9345" y="51.8292" width="28.8052" height="35.0341" filterUnits="userSpaceOnUse" color-interpolation-filters="sRGB">
<feFlood flood-opacity="0" result="BackgroundImageFix"/>
<feColorMatrix in="SourceAlpha" type="matrix" values="0 0 0 0 0 0 0 0 0 0 0 0 0 0 0 0 0 0 127 0" result="hardAlpha"/>
<feOffset dx="0.128105" dy="0.51242"/>
<feGaussianBlur stdDeviation="0.448367"/>
<feComposite in2="hardAlpha" operator="out"/>
<feColorMatrix type="matrix" values="0 0 0 0 0 0 0 0 0 0 0 0 0 0 0 0 0 0 0.25 0"/>
<feBlend mode="normal" in2="BackgroundImageFix" result="effect1_dropShadow_1599_1776"/>
<feBlend mode="normal" in="SourceGraphic" in2="effect1_dropShadow_1599_1776" result="shape"/>
</filter>
<filter id="filter7_d_1599_1776" x="88.8466" y="94.8576" width="25.7876" height="22.7272" filterUnits="userSpaceOnUse" color-interpolation-filters="sRGB">
<feFlood flood-opacity="0" result="BackgroundImageFix"/>
<feColorMatrix in="SourceAlpha" type="matrix" values="0 0 0 0 0 0 0 0 0 0 0 0 0 0 0 0 0 0 127 0" result="hardAlpha"/>
<feOffset dx="0.128105" dy="0.51242"/>
<feGaussianBlur stdDeviation="0.448367"/>
<feComposite in2="hardAlpha" operator="out"/>
<feColorMatrix type="matrix" values="0 0 0 0 0 0 0 0 0 0 0 0 0 0 0 0 0 0 0.25 0"/>
<feBlend mode="normal" in2="BackgroundImageFix" result="effect1_dropShadow_1599_1776"/>
<feBlend mode="normal" in="SourceGraphic" in2="effect1_dropShadow_1599_1776" result="shape"/>
</filter>
<filter id="filter8_dd_1599_1776" x="59.4549" y="50.2989" width="21.7184" height="17.1381" filterUnits="userSpaceOnUse" color-interpolation-filters="sRGB">
<feFlood flood-opacity="0" result="BackgroundImageFix"/>
<feColorMatrix in="SourceAlpha" type="matrix" values="0 0 0 0 0 0 0 0 0 0 0 0 0 0 0 0 0 0 127 0" result="hardAlpha"/>
<feOffset dx="0.128105" dy="0.51242"/>
<feGaussianBlur stdDeviation="0.448367"/>
<feComposite in2="hardAlpha" operator="out"/>
<feColorMatrix type="matrix" values="0 0 0 0 0 0 0 0 0 0 0 0 0 0 0 0 0 0 0.25 0"/>
<feBlend mode="normal" in2="BackgroundImageFix" result="effect1_dropShadow_1599_1776"/>
<feColorMatrix in="SourceAlpha" type="matrix" values="0 0 0 0 0 0 0 0 0 0 0 0 0 0 0 0 0 0 127 0" result="hardAlpha"/>
<feOffset dx="-0.319066" dy="-0.478599"/>
<feGaussianBlur stdDeviation="0.319066"/>
<feComposite in2="hardAlpha" operator="out"/>
<feColorMatrix type="matrix" values="0 0 0 0 0 0 0 0 0 0 0 0 0 0 0 0 0 0 0.04 0"/>
<feBlend mode="normal" in2="effect1_dropShadow_1599_1776" result="effect2_dropShadow_1599_1776"/>
<feBlend mode="normal" in="SourceGraphic" in2="effect2_dropShadow_1599_1776" result="shape"/>
</filter>
<filter id="filter9_d_1599_1776" x="97.2773" y="35.9296" width="40.289" height="75.1109" filterUnits="userSpaceOnUse" color-interpolation-filters="sRGB">
<feFlood flood-opacity="0" result="BackgroundImageFix"/>
<feColorMatrix in="SourceAlpha" type="matrix" values="0 0 0 0 0 0 0 0 0 0 0 0 0 0 0 0 0 0 127 0" result="hardAlpha"/>
<feOffset dx="0.466793" dy="0.622391"/>
<feGaussianBlur stdDeviation="0.466793"/>
<feComposite in2="hardAlpha" operator="out"/>
<feColorMatrix type="matrix" values="0 0 0 0 0 0 0 0 0 0 0 0 0 0 0 0 0 0 0.25 0"/>
<feBlend mode="normal" in2="BackgroundImageFix" result="effect1_dropShadow_1599_1776"/>
<feBlend mode="normal" in="SourceGraphic" in2="effect1_dropShadow_1599_1776" result="shape"/>
</filter>
<filter id="filter10_d_1599_1776" x="31.2969" y="45.0231" width="27.1055" height="79.0597" filterUnits="userSpaceOnUse" color-interpolation-filters="sRGB">
<feFlood flood-opacity="0" result="BackgroundImageFix"/>
<feColorMatrix in="SourceAlpha" type="matrix" values="0 0 0 0 0 0 0 0 0 0 0 0 0 0 0 0 0 0 127 0" result="hardAlpha"/>
<feOffset dx="0.466793" dy="0.622391"/>
<feGaussianBlur stdDeviation="0.466793"/>
<feComposite in2="hardAlpha" operator="out"/>
<feColorMatrix type="matrix" values="0 0 0 0 0 0 0 0 0 0 0 0 0 0 0 0 0 0 0.25 0"/>
<feBlend mode="normal" in2="BackgroundImageFix" result="effect1_dropShadow_1599_1776"/>
<feBlend mode="normal" in="SourceGraphic" in2="effect1_dropShadow_1599_1776" result="shape"/>
</filter>
<filter id="filter11_d_1599_1776" x="0.288425" y="0.288455" width="167.734" height="167.423" filterUnits="userSpaceOnUse" color-interpolation-filters="sRGB">
<feFlood flood-opacity="0" result="BackgroundImageFix"/>
<feColorMatrix in="SourceAlpha" type="matrix" values="0 0 0 0 0 0 0 0 0 0 0 0 0 0 0 0 0 0 127 0" result="hardAlpha"/>
<feOffset/>
<feGaussianBlur stdDeviation="0.855788"/>
<feColorMatrix type="matrix" values="0 0 0 0 0 0 0 0 0 0 0 0 0 0 0 0 0 0 0.25 0"/>
<feBlend mode="normal" in2="BackgroundImageFix" result="effect1_dropShadow_1599_1776"/>
<feBlend mode="normal" in="SourceGraphic" in2="effect1_dropShadow_1599_1776" result="shape"/>
</filter>
<linearGradient id="paint0_linear_1599_1776" x1="84.173" y1="24.4999" x2="95.2641" y2="143.493" gradientUnits="userSpaceOnUse">
<stop stop-color="#F6FBFA"/>
<stop offset="1" stop-color="#E5EEF5"/>
</linearGradient>
<linearGradient id="paint1_linear_1599_1776" x1="84.16" y1="103.393" x2="84.16" y2="64.4669" gradientUnits="userSpaceOnUse">
<stop stop-color="#E9F0F7"/>
<stop offset="1" stop-color="#F9FCFD"/>
</linearGradient>
<linearGradient id="paint2_linear_1599_1776" x1="84.16" y1="103.473" x2="84.16" y2="64.5467" gradientUnits="userSpaceOnUse">
<stop stop-color="#E9F0F7"/>
<stop offset="1" stop-color="#F9FCFD"/>
</linearGradient>
<linearGradient id="paint3_linear_1599_1776" x1="84.16" y1="103.473" x2="84.16" y2="64.5467" gradientUnits="userSpaceOnUse">
<stop stop-color="#E9F0F7"/>
<stop offset="1" stop-color="#F9FCFD"/>
</linearGradient>
<linearGradient id="paint4_linear_1599_1776" x1="84.16" y1="103.473" x2="84.16" y2="64.5467" gradientUnits="userSpaceOnUse">
<stop stop-color="#E9F0F7"/>
<stop offset="1" stop-color="#F9FCFD"/>
</linearGradient>
<linearGradient id="paint5_linear_1599_1776" x1="84.2386" y1="117.42" x2="84.2386" y2="50.2564" gradientUnits="userSpaceOnUse">
<stop stop-color="#E9F0F7"/>
<stop offset="1" stop-color="#F9FCFD"/>
</linearGradient>
<linearGradient id="paint6_linear_1599_1776" x1="84.2386" y1="117.42" x2="84.2386" y2="50.2564" gradientUnits="userSpaceOnUse">
<stop stop-color="#E9F0F7"/>
<stop offset="1" stop-color="#F9FCFD"/>
</linearGradient>
<linearGradient id="paint7_linear_1599_1776" x1="84.2386" y1="117.739" x2="84.2386" y2="50.5756" gradientUnits="userSpaceOnUse">
<stop stop-color="#E9F0F7"/>
<stop offset="1" stop-color="#F9FCFD"/>
</linearGradient>
<linearGradient id="paint8_linear_1599_1776" x1="84.2386" y1="117.42" x2="84.2386" y2="50.2564" gradientUnits="userSpaceOnUse">
<stop stop-color="#E9F0F7"/>
<stop offset="1" stop-color="#F9FCFD"/>
</linearGradient>
<linearGradient id="paint9_linear_1599_1776" x1="118.801" y1="116.139" x2="101.334" y2="31.7641" gradientUnits="userSpaceOnUse">
<stop stop-color="#E6EFF6"/>
<stop offset="1" stop-color="#F9FCFD"/>
</linearGradient>
<linearGradient id="paint10_linear_1599_1776" x1="118.731" y1="116.002" x2="101.264" y2="31.6269" gradientUnits="userSpaceOnUse">
<stop stop-color="#E6EFF6"/>
<stop offset="1" stop-color="#F9FCFD"/>
</linearGradient>
<linearGradient id="paint11_linear_1599_1776" x1="84.1556" y1="2.00003" x2="109.179" y2="156.391" gradientUnits="userSpaceOnUse">
<stop stop-color="#F9FCFD"/>
<stop offset="0.989105" stop-color="#E3EBF4"/>
</linearGradient>
</defs>
</svg>
