<svg width="220" height="64" viewBox="0 0 220 64" fill="none" xmlns="http://www.w3.org/2000/svg">
<path d="M13.2829 2.84783L25.7525 30.2149H22.861L18.6611 21.2022H7.14563L2.98187 30.2001H0L12.6287 2.83304L13.2829 2.84783ZM12.9467 8.66148L8.36729 18.5617H17.5045L12.9467 8.66148Z" fill="#357ECE"/>
<path d="M30.0605 8.82034H32.7533V18.8241C32.7533 21.2674 32.8822 22.9489 33.14 23.8685C33.4928 25.1451 34.2749 26.2532 35.3484 26.9972C36.5001 27.7666 37.8556 28.154 39.2302 28.1067C40.5874 28.15 41.9245 27.7624 43.0579 26.9972C44.076 26.2932 44.8383 25.2649 45.2265 24.0719C45.494 23.2435 45.6289 21.4905 45.6313 18.813V8.82774H48.3818V19.3382C48.3818 22.2968 48.0457 24.5219 47.3734 26.0135C46.7306 27.4732 45.6692 28.6985 44.3301 29.5268C42.9783 30.3725 41.282 30.7966 39.2411 30.799C37.2002 30.8015 35.4966 30.3774 34.1303 29.5268C32.7823 28.6952 31.7181 27.4578 31.0834 25.9839C30.4063 24.4676 30.069 22.187 30.0714 19.1422L30.0605 8.82034Z" fill="#357ECE"/>
<path d="M56.7168 0.865265H59.4096V8.8202H63.6818V11.2056H59.4096V30.2479H56.7168V11.2056H53.041V8.8202H56.7168V0.865265Z" fill="#357ECE"/>
<path d="M93.5156 8.8202H96.2083V12.5184C96.9686 11.3347 97.9515 10.3177 99.0998 9.52656C100.389 8.70738 101.876 8.27078 103.394 8.26546C104.389 8.26091 105.373 8.46874 106.285 8.87567C107.138 9.24252 107.901 9.79826 108.519 10.5029C109.196 11.3638 109.707 12.3492 110.023 13.406C110.805 11.8563 111.962 10.5373 113.384 9.57464C114.675 8.71795 116.182 8.26316 117.721 8.26546C119.078 8.23418 120.413 8.62071 121.552 9.37494C122.669 10.1345 123.531 11.2266 124.021 12.5037C124.556 13.8474 124.825 15.8567 124.827 18.5318V30.2479H122.073V18.5503C122.073 16.2549 121.914 14.6758 121.596 13.8128C121.278 12.9596 120.703 12.2318 119.955 11.7344C119.128 11.1967 118.162 10.9238 117.183 10.9504C115.897 10.9433 114.644 11.3567 113.604 12.1301C112.526 12.9155 111.702 14.0128 111.237 15.281C110.738 16.5927 110.489 18.7845 110.489 21.8565V30.2479H107.792V19.2788C107.792 16.6925 107.636 14.9359 107.323 14.0088C107.021 13.1078 106.445 12.3298 105.678 11.7899C104.856 11.2201 103.88 10.9279 102.888 10.9541C101.636 10.9548 100.415 11.3556 99.3962 12.1005C98.3119 12.8679 97.4752 13.948 96.9927 15.2034C96.4722 16.5027 96.212 18.4911 96.212 21.1687V30.2479H93.5192L93.5156 8.8202Z" fill="#357ECE"/>
<path d="M158.671 0.865265H161.364V8.8202H165.636V11.2056H161.353V30.2479H158.671V11.2056H154.984V8.8202H158.671V0.865265Z" fill="#357ECE"/>
<path d="M170.6 0.000292235C170.892 -0.00434546 171.182 0.0526973 171.452 0.167864C171.722 0.28303 171.966 0.453851 172.168 0.669675C172.379 0.879646 172.545 1.13118 172.658 1.409C172.77 1.68682 172.826 1.98513 172.822 2.28581C172.825 2.58305 172.768 2.87771 172.656 3.15178C172.543 3.42584 172.377 3.67355 172.168 3.87976C171.964 4.09176 171.721 4.26014 171.453 4.37507C171.185 4.49 170.897 4.5492 170.607 4.5492C170.316 4.5492 170.028 4.49 169.76 4.37507C169.492 4.26014 169.249 4.09176 169.045 3.87976C168.837 3.67337 168.671 3.42554 168.559 3.15146C168.447 2.87738 168.391 2.58281 168.395 2.28581C168.391 1.98539 168.446 1.68724 168.558 1.40944C168.67 1.13163 168.836 0.879959 169.045 0.669675C169.245 0.454622 169.487 0.284162 169.754 0.168977C170.022 0.0537918 170.309 -0.00363586 170.6 0.000292235ZM169.262 8.82062H171.955V30.2483H169.262V8.82062Z" fill="#357ECE"/>
<path d="M175.576 8.82034H178.442L185.472 24.4381L192.416 8.82034H195.307L185.718 30.248H185.219L175.576 8.82034Z" fill="#357ECE"/>
<path d="M217.03 23.1371L219.303 24.3613C218.659 25.7147 217.785 26.9406 216.723 27.9819C215.765 28.89 214.646 29.6018 213.426 30.0788C212.102 30.5851 210.698 30.8358 209.284 30.8184C205.87 30.8184 203.199 29.6732 201.271 27.3827C199.403 25.2483 198.373 22.4818 198.38 19.6164C198.352 16.9778 199.216 14.4104 200.827 12.3494C202.894 9.63731 205.665 8.28128 209.14 8.28128C212.706 8.28128 215.556 9.66689 217.691 12.4381C219.207 14.3933 219.977 16.8353 220.001 19.7643H201.155C201.206 22.2471 201.984 24.2885 203.49 25.8886C204.203 26.6637 205.066 27.2769 206.025 27.6884C206.984 28.1 208.017 28.3008 209.056 28.2777C210.119 28.2727 211.171 28.0736 212.165 27.6897C213.105 27.3506 213.977 26.8393 214.738 26.1808C215.647 25.2894 216.419 24.2634 217.03 23.1371ZM217.03 17.3679C216.759 16.0919 216.224 14.8902 215.461 13.8434C214.726 12.9268 213.791 12.1986 212.732 11.717C211.617 11.183 210.4 10.9077 209.168 10.9107C207.214 10.8751 205.319 11.6024 203.87 12.9448C202.788 13.931 201.972 15.4103 201.423 17.3827L217.03 17.3679Z" fill="#357ECE"/>
<path d="M77.5281 30.2483C83.5206 30.2483 88.3785 25.1883 88.3785 18.9464C88.3785 12.7046 83.5206 7.64456 77.5281 7.64456C71.5356 7.64456 66.6777 12.7046 66.6777 18.9464C66.6777 25.1883 71.5356 30.2483 77.5281 30.2483Z" fill="#357ECE"/>
<path d="M141.524 30.2483C147.517 30.2483 152.375 25.1883 152.375 18.9464C152.375 12.7046 147.517 7.64456 141.524 7.64456C135.532 7.64456 130.674 12.7046 130.674 18.9464C130.674 25.1883 135.532 30.2483 141.524 30.2483Z" fill="#357ECE"/>
<path d="M6.71094 49.4423C7.63701 49.4423 8.46685 49.6467 9.20049 50.0557C9.93412 50.4646 10.5054 51.0358 10.9143 51.7695C11.3352 52.5031 11.5457 53.351 11.5457 54.3131C11.5457 55.2753 11.3352 56.1292 10.9143 56.8748C10.5054 57.6085 9.93412 58.1797 9.20049 58.5887C8.46685 58.9976 7.63701 59.202 6.71094 59.202C6.00136 59.202 5.35192 59.0637 4.76261 58.7871C4.17329 58.5105 3.68621 58.1076 3.30135 57.5784V59.0938H1.64166V45.708H3.37351V50.9757C3.75837 50.4706 4.23944 50.0917 4.81673 49.8392C5.39401 49.5746 6.02542 49.4423 6.71094 49.4423ZM6.56662 57.6866C7.17999 57.6866 7.72721 57.5483 8.20828 57.2717C8.70138 56.9831 9.08623 56.5862 9.36285 56.0811C9.65149 55.5639 9.79581 54.9746 9.79581 54.3131C9.79581 53.6517 9.65149 53.0684 9.36285 52.5632C9.08623 52.0461 8.70138 51.6492 8.20828 51.3726C7.72721 51.096 7.17999 50.9577 6.56662 50.9577C5.96528 50.9577 5.41806 51.096 4.92497 51.3726C4.43187 51.6492 4.04701 52.0461 3.7704 52.5632C3.49378 53.0684 3.35547 53.6517 3.35547 54.3131C3.35547 54.9746 3.49378 55.5639 3.7704 56.0811C4.04701 56.5862 4.43187 56.9831 4.92497 57.2717C5.41806 57.5483 5.96528 57.6866 6.56662 57.6866ZM22.1351 49.5325L17.4988 60.0499C17.0899 61.0241 16.6088 61.7096 16.0556 62.1065C15.5144 62.5034 14.8589 62.7018 14.0892 62.7018C13.6202 62.7018 13.1632 62.6236 12.7182 62.4673C12.2852 62.323 11.9244 62.1065 11.6358 61.8178L12.3754 60.519C12.8685 60.988 13.4398 61.2225 14.0892 61.2225C14.5102 61.2225 14.8589 61.1083 15.1356 60.8798C15.4242 60.6633 15.6828 60.2844 15.9113 59.7432L16.218 59.0757L11.9966 49.5325H13.8006L17.138 57.1815L20.4394 49.5325H22.1351ZM39.709 46.4657V59.0938H38.2297L30.6528 49.6768V59.0938H28.8488V46.4657H30.3281L37.9049 55.8826V46.4657H39.709ZM51.5347 55.9368H44.8238L43.4347 59.0938H41.5765L47.2953 46.4657H49.0812L54.818 59.0938H52.9238L51.5347 55.9368ZM50.9033 54.4935L48.1792 48.3058L45.4552 54.4935H50.9033ZM61.6268 46.4657C63.2624 46.4657 64.5493 46.8565 65.4874 47.6383C66.4255 48.42 66.8945 49.4964 66.8945 50.8675C66.8945 52.2385 66.4255 53.3149 65.4874 54.0967C64.5493 54.8784 63.2624 55.2693 61.6268 55.2693H58.5058V59.0938H56.7018V46.4657H61.6268ZM61.5727 53.6998C62.7152 53.6998 63.5871 53.4592 64.1885 52.9782C64.7898 52.4851 65.0905 51.7815 65.0905 50.8675C65.0905 49.9534 64.7898 49.2559 64.1885 48.7748C63.5871 48.2817 62.7152 48.0352 61.5727 48.0352H58.5058V53.6998H61.5727ZM76.9566 55.9368H70.2456L68.8565 59.0938H66.9984L72.7171 46.4657H74.5031L80.2399 59.0938H78.3456L76.9566 55.9368ZM76.3251 54.4935L73.6011 48.3058L70.877 54.4935H76.3251Z" fill="#9AC1EC"/>
</svg>
