<svg width="89" height="83" viewBox="0 0 89 83" fill="none" xmlns="http://www.w3.org/2000/svg">
<g filter="url(#filter0_d_1290_1997)">
<path d="M71.5276 26.118C72.7511 25.4245 74.2489 25.4245 75.4724 26.118L92.8575 35.9718L110.084 46.1008C111.296 46.8137 112.045 48.1108 112.056 49.5171L112.215 69.5L112.056 89.4829C112.045 90.8892 111.296 92.1863 110.084 92.8992L92.8575 103.028L75.4724 112.882C74.2489 113.576 72.7511 113.576 71.5276 112.882L54.1425 103.028L36.9162 92.8992C35.7039 92.1863 34.955 90.8892 34.9438 89.4829L34.785 69.5L34.9438 49.5171C34.955 48.1108 35.7039 46.8137 36.9162 46.1008L54.1425 35.9718L71.5276 26.118Z" fill="#F6B399"/>
</g>
<defs>
<filter id="filter0_d_1290_1997" x="0.785156" y="0.597656" width="131.43" height="141.805" filterUnits="userSpaceOnUse" color-interpolation-filters="sRGB">
<feFlood flood-opacity="0" result="BackgroundImageFix"/>
<feColorMatrix in="SourceAlpha" type="matrix" values="0 0 0 0 0 0 0 0 0 0 0 0 0 0 0 0 0 0 127 0" result="hardAlpha"/>
<feOffset dx="-7" dy="2"/>
<feGaussianBlur stdDeviation="13.5"/>
<feComposite in2="hardAlpha" operator="out"/>
<feColorMatrix type="matrix" values="0 0 0 0 0 0 0 0 0 0 0 0 0 0 0 0 0 0 0.12 0"/>
<feBlend mode="normal" in2="BackgroundImageFix" result="effect1_dropShadow_1290_1997"/>
<feBlend mode="normal" in="SourceGraphic" in2="effect1_dropShadow_1290_1997" result="shape"/>
</filter>
</defs>
</svg>
