<svg width="163" height="86" viewBox="0 0 163 86" fill="none" xmlns="http://www.w3.org/2000/svg">
<g filter="url(#filter0_d_1290_1995)">
<path d="M83.0759 -63.9256C86.4405 -65.8327 90.5595 -65.8327 93.9241 -63.9256L115.688 -51.5901L137.252 -38.9102C140.586 -36.9499 142.645 -33.3828 142.676 -29.5154L142.875 -4.5L142.676 20.5154C142.645 24.3828 140.586 27.9499 137.252 29.9102L115.688 42.5901L93.9241 54.9256C90.5595 56.8327 86.4405 56.8327 83.0759 54.9256L61.3125 42.5901L39.748 29.9102C36.4141 27.9499 34.3546 24.3828 34.3239 20.5154L34.125 -4.5L34.3239 -29.5154C34.3546 -33.3828 36.4141 -36.9499 39.748 -38.9102L61.3125 -51.5901L83.0759 -63.9256Z" fill="#F6B399"/>
</g>
<defs>
<filter id="filter0_d_1290_1995" x="0.125" y="-90.3555" width="162.75" height="175.711" filterUnits="userSpaceOnUse" color-interpolation-filters="sRGB">
<feFlood flood-opacity="0" result="BackgroundImageFix"/>
<feColorMatrix in="SourceAlpha" type="matrix" values="0 0 0 0 0 0 0 0 0 0 0 0 0 0 0 0 0 0 127 0" result="hardAlpha"/>
<feOffset dx="-7" dy="2"/>
<feGaussianBlur stdDeviation="13.5"/>
<feComposite in2="hardAlpha" operator="out"/>
<feColorMatrix type="matrix" values="0 0 0 0 0 0 0 0 0 0 0 0 0 0 0 0 0 0 0.19 0"/>
<feBlend mode="normal" in2="BackgroundImageFix" result="effect1_dropShadow_1290_1995"/>
<feBlend mode="normal" in="SourceGraphic" in2="effect1_dropShadow_1290_1995" result="shape"/>
</filter>
</defs>
</svg>
