<svg width="109" height="98" viewBox="0 0 109 98" fill="none" xmlns="http://www.w3.org/2000/svg">
<path d="M55.8224 0.213683L52.2758 1.12991L8.5801 12.4181L5.03343 13.3343C3.31192 13.7811 1.83763 14.8938 0.933991 16.4281C0.0303544 17.9625 -0.228825 19.7933 0.213314 21.5189L15.5925 81.2613C16.0385 82.9858 17.1491 84.4627 18.6808 85.368C20.2124 86.2732 22.04 86.5328 23.7625 86.0899L23.7717 86.0876L74.5423 72.9716L74.5515 72.9693C76.273 72.5225 77.7473 71.4098 78.6509 69.8755C79.5546 68.3411 79.8138 66.5103 79.3716 64.7848L63.9925 5.04237C63.5465 3.3178 62.4358 1.84089 60.9042 0.935651C59.3725 0.0304089 57.545 -0.229235 55.8224 0.213683Z" fill="#F2F2F2"/>
<path d="M56.3046 2.08694L52.1038 3.17216L9.71629 14.1224L5.51557 15.2076C4.28964 15.5258 3.23975 16.3181 2.59624 17.4108C1.95274 18.5034 1.76817 19.8072 2.08303 21.036L17.4622 80.7784C17.7798 82.0065 18.5707 83.0582 19.6614 83.7028C20.7522 84.3475 22.0536 84.5324 23.2802 84.217L23.2894 84.2146L74.0601 71.0987L74.0693 71.0963C75.2952 70.7781 76.3451 69.9858 76.9886 68.8931C77.6321 67.8005 77.8166 66.4967 77.5018 65.2679L62.1226 5.52556C61.805 4.29747 61.0141 3.24574 59.9234 2.60109C58.8327 1.95645 57.5313 1.77154 56.3046 2.08694Z" fill="white"/>
<path d="M53.1327 21.4327L27.449 28.0677C27.1622 28.1418 26.8577 28.0988 26.6025 27.948C26.3474 27.7972 26.1625 27.551 26.0885 27.2636C26.0145 26.9763 26.0575 26.6712 26.2081 26.4156C26.3586 26.16 26.6043 25.9748 26.8912 25.9007L52.5748 19.2657C52.8616 19.1919 53.1659 19.2351 53.4208 19.386C53.6757 19.5368 53.8605 19.7828 53.9344 20.07C54.0083 20.3572 53.9654 20.6621 53.8151 20.9176C53.6647 21.1731 53.4193 21.3584 53.1327 21.4327Z" fill="#F2F2F2"/>
<path d="M58.5357 23.9374L28.3904 31.725C28.1036 31.7991 27.7991 31.756 27.5439 31.6052C27.2888 31.4544 27.1039 31.2083 27.0299 30.9209C26.9559 30.6335 26.9989 30.3285 27.1495 30.0729C27.3 29.8173 27.5457 29.6321 27.8326 29.5579L57.9779 21.7703C58.2647 21.6962 58.5692 21.7393 58.8244 21.8901C59.0795 22.0409 59.2644 22.287 59.3384 22.5744C59.4124 22.8618 59.3694 23.1668 59.2188 23.4224C59.0683 23.678 58.8226 23.8633 58.5357 23.9374Z" fill="#F2F2F2"/>
<path d="M57.3514 37.8211L31.6678 44.4562C31.5257 44.4929 31.3779 44.5012 31.2326 44.4806C31.0874 44.4601 30.9476 44.4111 30.8213 44.3364C30.6949 44.2617 30.5845 44.1629 30.4963 44.0454C30.4081 43.928 30.3439 43.7944 30.3072 43.6521C30.2706 43.5098 30.2623 43.3617 30.2828 43.2162C30.3033 43.0707 30.3523 42.9306 30.4268 42.8041C30.5013 42.6775 30.6 42.5669 30.7172 42.4785C30.8344 42.3902 30.9679 42.3258 31.1099 42.2891L56.7936 35.6541C56.9356 35.6174 57.0835 35.6091 57.2287 35.6297C57.374 35.6502 57.5138 35.6992 57.6401 35.7739C57.7664 35.8485 57.8768 35.9474 57.965 36.0648C58.0532 36.1822 58.1175 36.3159 58.1541 36.4582C58.1907 36.6005 58.199 36.7486 58.1785 36.8941C58.158 37.0396 58.1091 37.1797 58.0346 37.3062C57.96 37.4328 57.8613 37.5434 57.7441 37.6317C57.6269 37.7201 57.4935 37.7845 57.3514 37.8211Z" fill="#F2F2F2"/>
<path d="M62.7545 40.3255L32.6092 48.1132C32.4671 48.1499 32.3193 48.1582 32.174 48.1376C32.0288 48.1171 31.889 48.0681 31.7627 47.9934C31.6363 47.9187 31.5259 47.8199 31.4377 47.7024C31.3495 47.585 31.2853 47.4514 31.2486 47.3091C31.212 47.1668 31.2037 47.0187 31.2242 46.8732C31.2448 46.7277 31.2937 46.5876 31.3682 46.4611C31.4427 46.3345 31.5414 46.2239 31.6586 46.1355C31.7758 46.0472 31.9093 45.9828 32.0513 45.9461L62.1966 38.1585C62.4835 38.0844 62.788 38.1275 63.0431 38.2783C63.2983 38.4291 63.4832 38.6752 63.5571 38.9626C63.6311 39.25 63.5881 39.555 63.4376 39.8106C63.2871 40.0662 63.0413 40.2514 62.7545 40.3255Z" fill="#F2F2F2"/>
<path d="M61.5702 54.2093L35.8865 60.8444C35.5997 60.9182 35.2954 60.875 35.0404 60.7242C34.7854 60.5734 34.6007 60.3273 34.5267 60.0401C34.4528 59.7528 34.4957 59.4479 34.6461 59.1924C34.7965 58.9368 35.042 58.7516 35.3287 58.6773L61.0123 52.0423C61.2992 51.9682 61.6037 52.0113 61.8588 52.1621C62.114 52.3129 62.2989 52.559 62.3728 52.8464C62.4468 53.1338 62.4038 53.4388 62.2533 53.6944C62.1027 53.95 61.857 54.1352 61.5702 54.2093Z" fill="#F2F2F2"/>
<path d="M66.9732 56.7137L36.8279 64.5014C36.6858 64.5382 36.5379 64.5466 36.3925 64.5262C36.2472 64.5057 36.1073 64.4567 35.9809 64.3821C35.8544 64.3074 35.7439 64.2085 35.6556 64.0911C35.5674 63.9736 35.5031 63.8399 35.4664 63.6975C35.4298 63.5551 35.4215 63.4069 35.442 63.2613C35.4626 63.1158 35.5116 62.9757 35.5862 62.8491C35.6609 62.7225 35.7597 62.6118 35.877 62.5235C35.9943 62.4352 36.1279 62.3709 36.2701 62.3343L66.4154 54.5467C66.7022 54.4726 67.0067 54.5157 67.2619 54.6665C67.517 54.8173 67.7019 55.0634 67.7759 55.3508C67.8499 55.6382 67.8069 55.9432 67.6563 56.1988C67.5058 56.4544 67.2601 56.6396 66.9732 56.7137Z" fill="#F2F2F2"/>
<path d="M23.0644 34.8714L13.9752 37.2195C13.8377 37.2549 13.6918 37.2341 13.5695 37.1618C13.4472 37.0896 13.3585 36.9716 13.3229 36.8339L11.2364 28.7289C11.2011 28.5911 11.2218 28.445 11.294 28.3224C11.3661 28.1999 11.4839 28.1111 11.6213 28.0754L20.7105 25.7273C20.8481 25.6919 20.994 25.7127 21.1163 25.785C21.2386 25.8572 21.3273 25.9752 21.3629 26.1129L23.4493 34.2179C23.4846 34.3557 23.4639 34.5019 23.3918 34.6244C23.3196 34.7469 23.2019 34.8357 23.0644 34.8714Z" fill="#E6E6E6"/>
<path d="M27.2832 51.2596L18.194 53.6076C18.0564 53.643 17.9105 53.6223 17.7882 53.55C17.6659 53.4777 17.5772 53.3598 17.5416 53.2221L15.4552 45.1171C15.4199 44.9793 15.4406 44.8331 15.5127 44.7106C15.5849 44.5881 15.7026 44.4993 15.8401 44.4636L24.9293 42.1155C25.0668 42.0801 25.2127 42.1009 25.335 42.1731C25.4573 42.2454 25.546 42.3634 25.5816 42.5011L27.6681 50.606C27.7034 50.7438 27.6827 50.89 27.6105 51.0125C27.5384 51.1351 27.4206 51.2239 27.2832 51.2596Z" fill="#E6E6E6"/>
<path d="M31.5019 67.6478L22.4127 69.9959C22.2752 70.0312 22.1293 70.0105 22.007 69.9382C21.8847 69.8659 21.796 69.748 21.7604 69.6103L19.6739 61.5053C19.6386 61.3675 19.6593 61.2213 19.7315 61.0988C19.8036 60.9763 19.9214 60.8874 20.0588 60.8518L29.148 58.5037C29.2856 58.4683 29.4315 58.489 29.5538 58.5613C29.6761 58.6336 29.7648 58.7516 29.8004 58.8893L31.8868 66.9942C31.9221 67.132 31.9014 67.2782 31.8293 67.4007C31.7571 67.5233 31.6394 67.6121 31.5019 67.6478Z" fill="#E6E6E6"/>
<path d="M91.2452 15.3574H38.7946C37.0163 15.3594 35.3113 16.068 34.0538 17.3277C32.7964 18.5874 32.089 20.2954 32.087 22.0769V83.7738C32.089 85.5553 32.7964 87.2633 34.0538 88.523C35.3113 89.7827 37.0163 90.4913 38.7946 90.4933H91.2452C93.0236 90.4913 94.7285 89.7827 95.986 88.523C97.2434 87.2633 97.9508 85.5553 97.9528 83.7738V22.0769C97.9508 20.2954 97.2434 18.5874 95.986 17.3277C94.7285 16.068 93.0236 15.3594 91.2452 15.3574Z" fill="#E6E6E6"/>
<path d="M91.2453 17.292H38.7946C37.5282 17.2934 36.314 17.798 35.4186 18.6951C34.5231 19.5921 34.0194 20.8084 34.0179 22.0771V83.774C34.0194 85.0426 34.5231 86.2589 35.4186 87.156C36.314 88.053 37.5282 88.5576 38.7946 88.5591H91.2453C92.5117 88.5576 93.7258 88.053 94.6213 87.156C95.5167 86.2589 96.0204 85.0426 96.0218 83.774V22.0771C96.0204 20.8084 95.5167 19.5922 94.6213 18.6951C93.7258 17.798 92.5117 17.2934 91.2453 17.292Z" fill="white"/>
<path d="M96.7555 98C103.518 98 109 92.5083 109 85.7339C109 78.9595 103.518 73.4678 96.7555 73.4678C89.9931 73.4678 84.5111 78.9595 84.5111 85.7339C84.5111 92.5083 89.9931 98 96.7555 98Z" fill="#357ECE"/>
<path d="M102.612 84.134H98.3527V79.8675C98.3527 79.4432 98.1845 79.0362 97.8849 78.7362C97.5854 78.4361 97.1792 78.2676 96.7556 78.2676C96.332 78.2676 95.9258 78.4361 95.6263 78.7362C95.3268 79.0362 95.1585 79.4432 95.1585 79.8675V84.134H90.8996C90.476 84.134 90.0698 84.3025 89.7703 84.6026C89.4708 84.9026 89.3025 85.3096 89.3025 85.7339C89.3025 86.1582 89.4708 86.5652 89.7703 86.8652C90.0698 87.1653 90.476 87.3338 90.8996 87.3338H95.1585V91.6003C95.1585 92.0246 95.3268 92.4316 95.6263 92.7316C95.9258 93.0317 96.332 93.2002 96.7556 93.2002C97.1792 93.2002 97.5854 93.0317 97.8849 92.7316C98.1845 92.4316 98.3527 92.0246 98.3527 91.6003V87.3338H102.612C103.035 87.3338 103.441 87.1653 103.741 86.8652C104.04 86.5652 104.209 86.1582 104.209 85.7339C104.209 85.3096 104.04 84.9026 103.741 84.6026C103.441 84.3025 103.035 84.134 102.612 84.134Z" fill="white"/>
<path d="M83.3514 51.1945H56.8275C56.6807 51.1947 56.5353 51.1658 56.3996 51.1097C56.264 51.0535 56.1407 50.9711 56.0368 50.8672C55.933 50.7633 55.8506 50.6399 55.7944 50.504C55.7382 50.3682 55.7092 50.2226 55.7092 50.0755C55.7092 49.9285 55.7382 49.7829 55.7944 49.647C55.8506 49.5112 55.933 49.3878 56.0368 49.2838C56.1407 49.1799 56.264 49.0975 56.3996 49.0414C56.5353 48.9852 56.6807 48.9564 56.8275 48.9565H83.3514C83.6474 48.9569 83.9312 49.0749 84.1404 49.2847C84.3496 49.4945 84.4671 49.779 84.4671 50.0755C84.4671 50.3721 84.3496 50.6565 84.1404 50.8663C83.9312 51.0761 83.6474 51.1942 83.3514 51.1945Z" fill="#E6E6E6"/>
<path d="M87.959 54.9708H56.8275C56.6807 54.971 56.5353 54.9422 56.3996 54.886C56.264 54.8299 56.1407 54.7475 56.0368 54.6435C55.933 54.5396 55.8506 54.4162 55.7944 54.2804C55.7382 54.1445 55.7092 53.9989 55.7092 53.8519C55.7092 53.7048 55.7382 53.5592 55.7944 53.4234C55.8506 53.2875 55.933 53.1641 56.0368 53.0602C56.1407 52.9563 56.264 52.8739 56.3996 52.8177C56.5353 52.7616 56.6807 52.7327 56.8275 52.7329H87.959C88.2552 52.7329 88.5393 52.8508 88.7488 53.0606C88.9583 53.2705 89.076 53.5551 89.076 53.8519C89.076 54.1486 88.9583 54.4333 88.7488 54.6431C88.5393 54.853 88.2552 54.9708 87.959 54.9708Z" fill="#E6E6E6"/>
<path d="M83.3514 68.1188H56.8275C56.6807 68.119 56.5353 68.0901 56.3996 68.034C56.264 67.9778 56.1407 67.8954 56.0368 67.7915C55.933 67.6876 55.8506 67.5642 55.7944 67.4283C55.7382 67.2925 55.7092 67.1469 55.7092 66.9998C55.7092 66.8528 55.7382 66.7072 55.7944 66.5713C55.8506 66.4355 55.933 66.3121 56.0368 66.2082C56.1407 66.1042 56.264 66.0218 56.3996 65.9657C56.5353 65.9095 56.6807 65.8807 56.8275 65.8809H83.3514C83.6476 65.8809 83.9317 65.9988 84.1412 66.2086C84.3507 66.4184 84.4684 66.7031 84.4684 66.9998C84.4684 67.2966 84.3507 67.5812 84.1412 67.7911C83.9317 68.0009 83.6476 68.1188 83.3514 68.1188Z" fill="#E6E6E6"/>
<path d="M87.959 71.8952H56.8275C56.6807 71.8954 56.5353 71.8665 56.3996 71.8104C56.264 71.7542 56.1407 71.6718 56.0368 71.5679C55.933 71.464 55.8506 71.3406 55.7944 71.2047C55.7382 71.0689 55.7092 70.9233 55.7092 70.7762C55.7092 70.6292 55.7382 70.4835 55.7944 70.3477C55.8506 70.2119 55.933 70.0884 56.0368 69.9845C56.1407 69.8806 56.264 69.7982 56.3996 69.742C56.5353 69.6859 56.6807 69.6571 56.8275 69.6572H87.959C88.1058 69.6571 88.2512 69.6859 88.3868 69.742C88.5225 69.7982 88.6458 69.8806 88.7496 69.9845C88.8535 70.0884 88.9359 70.2119 88.9921 70.3477C89.0483 70.4835 89.0772 70.6292 89.0772 70.7762C89.0772 70.9233 89.0483 71.0689 88.9921 71.2047C88.9359 71.3406 88.8535 71.464 88.7496 71.5679C88.6458 71.6718 88.5225 71.7542 88.3868 71.8104C88.2512 71.8665 88.1058 71.8954 87.959 71.8952Z" fill="#E6E6E6"/>
<path d="M50.8859 56.6854H41.4993C41.3573 56.6853 41.2212 56.6287 41.1208 56.5281C41.0204 56.4275 40.9639 56.2911 40.9637 56.1489V47.7787C40.9639 47.6365 41.0204 47.5001 41.1208 47.3995C41.2212 47.2989 41.3573 47.2423 41.4993 47.2422H50.8859C51.0279 47.2423 51.1641 47.2989 51.2645 47.3995C51.3649 47.5001 51.4214 47.6365 51.4215 47.7787V56.1489C51.4214 56.2911 51.3649 56.4275 51.2645 56.5281C51.1641 56.6287 51.0279 56.6853 50.8859 56.6854Z" fill="#E6E6E6"/>
<path d="M50.8859 73.6097H41.4993C41.3573 73.6096 41.2212 73.553 41.1208 73.4524C41.0204 73.3518 40.9639 73.2154 40.9637 73.0732V64.7031C40.9639 64.5608 41.0204 64.4244 41.1208 64.3238C41.2212 64.2232 41.3573 64.1667 41.4993 64.1665H50.8859C51.0279 64.1667 51.1641 64.2232 51.2645 64.3238C51.3649 64.4244 51.4214 64.5608 51.4215 64.7031V73.0732C51.4214 73.2154 51.3649 73.3518 51.2645 73.4524C51.1641 73.553 51.0279 73.6096 50.8859 73.6097Z" fill="#E6E6E6"/>
<path d="M83.3809 32.3542H63.8259C63.5296 32.3542 63.2455 32.2363 63.036 32.0264C62.8265 31.8166 62.7089 31.532 62.7089 31.2352C62.7089 30.9384 62.8265 30.6538 63.036 30.4439C63.2455 30.2341 63.5296 30.1162 63.8259 30.1162H83.3809C83.6771 30.1162 83.9612 30.2341 84.1707 30.4439C84.3802 30.6538 84.4979 30.9384 84.4979 31.2352C84.4979 31.532 84.3802 31.8166 84.1707 32.0264C83.9612 32.2363 83.6771 32.3542 83.3809 32.3542Z" fill="#CCCCCC"/>
<path d="M87.9885 36.1305H63.8259C63.6792 36.1305 63.5339 36.1016 63.3984 36.0453C63.2629 35.9891 63.1397 35.9067 63.036 35.8028C62.9323 35.6989 62.85 35.5755 62.7939 35.4398C62.7378 35.304 62.7089 35.1585 62.7089 35.0115C62.7089 34.8646 62.7378 34.7191 62.7939 34.5833C62.85 34.4476 62.9323 34.3242 63.036 34.2203C63.1397 34.1164 63.2629 34.034 63.3984 33.9778C63.5339 33.9215 63.6792 33.8926 63.8259 33.8926H87.9885C88.2847 33.8926 88.5688 34.0105 88.7783 34.2203C88.9878 34.4302 89.1055 34.7148 89.1055 35.0115C89.1055 35.3083 88.9878 35.5929 88.7783 35.8028C88.5688 36.0126 88.2847 36.1305 87.9885 36.1305Z" fill="#CCCCCC"/>
<path d="M59.4979 40.7074H41.4699C41.3279 40.7073 41.1918 40.6507 41.0914 40.5501C40.991 40.4495 40.9345 40.3131 40.9343 40.1709V26.0761C40.9345 25.9338 40.991 25.7975 41.0914 25.6969C41.1918 25.5963 41.3279 25.5397 41.4699 25.5396H59.4979C59.6399 25.5397 59.7761 25.5963 59.8765 25.6969C59.9769 25.7975 60.0334 25.9338 60.0335 26.0761V40.1709C60.0334 40.3131 59.9769 40.4495 59.8765 40.5501C59.7761 40.6507 59.6399 40.7073 59.4979 40.7074Z" fill="#357ECE"/>
</svg>
